<?xml version="1.0" standalone="no"?>
<!DOCTYPE svg PUBLIC "-//W3C//DTD SVG 20010904//EN"
 "http://www.w3.org/TR/2001/REC-SVG-20010904/DTD/svg10.dtd">
<svg version="1.0" xmlns="http://www.w3.org/2000/svg"
 width="700.000000pt" height="700.000000pt" viewBox="0 0 700.000000 700.000000"
 preserveAspectRatio="xMidYMid meet">
<metadata>
Created by potrace 1.14, written by Peter Selinger 2001-2017
</metadata>
<g transform="translate(0.000000,700.000000) scale(0.100000,-0.100000)"
fill="#000000" stroke="none">
<path d="M3200 5049 c-544 -60 -1045 -258 -1488 -589 -142 -105 -417 -372
-526 -510 -300 -378 -515 -850 -600 -1320 -42 -234 -40 -323 13 -435 147 -315
592 -362 818 -86 67 82 108 176 133 311 82 443 255 777 559 1080 616 614 1545
752 2319 345 371 -196 668 -505 852 -887 78 -162 125 -307 165 -505 36 -176
60 -238 124 -323 134 -178 363 -248 572 -175 70 25 120 59 180 121 104 110
141 231 120 393 -103 797 -517 1512 -1156 1995 -401 304 -857 493 -1379 572
-121 19 -579 27 -706 13z m485 -169 c384 -28 724 -121 1067 -292 610 -305
1087 -827 1341 -1468 85 -214 161 -519 174 -701 5 -78 3 -91 -19 -140 -30 -66
-74 -111 -142 -147 -44 -23 -63 -27 -136 -26 -73 0 -93 4 -138 27 -118 62
-177 158 -212 346 -167 898 -851 1579 -1750 1742 -145 27 -456 37 -597 20
-269 -32 -505 -103 -743 -222 -119 -60 -158 -75 -166 -66 -21 21 -355 499
-352 502 2 2 38 24 81 49 359 212 787 345 1204 375 160 12 233 12 388 1z
m-2563 -2079 c150 -55 281 -103 291 -106 11 -5 16 -13 12 -24 -3 -8 -19 -83
-36 -166 -35 -181 -67 -254 -140 -319 -161 -145 -407 -101 -495 88 -16 35 -24
69 -24 108 0 68 31 256 65 393 31 122 32 125 44 125 6 0 133 -45 283 -99z"/>
<path d="M2216 3104 c-9 -8 -16 -23 -16 -33 0 -17 82 -143 122 -187 11 -12
246 -167 523 -345 456 -293 506 -327 521 -362 79 -174 344 -119 346 72 0 66
-27 118 -81 156 -37 26 -51 30 -104 29 l-62 -1 -499 321 -499 320 -106 23
c-128 27 -126 27 -145 7z"/>
</g>
</svg>
