<?xml version="1.0" encoding="UTF-8"?><svg id="Ebene_1" xmlns="http://www.w3.org/2000/svg" viewBox="0 0 300 200"><defs><style>.cls-1{fill:#ff9494;stroke-width:4.21px;}.cls-1,.cls-2{stroke:#5928e5;stroke-miterlimit:10;}.cls-2{fill:none;stroke-width:3.27px;}</style></defs><path class="cls-2" d="m134.91,160c-.26,0-.52-.08-.74-.23-2.96-2.08-2.99-7.48-3.03-13.19-.03-4.09-.06-8.72-1.46-10.31-1.5-1.7-3.22-2.05-5.33-2.05-.89,0-1.85.07-2.87.13-1.04.07-2.11.14-3.27.16-.12,0-.25,0-.37,0h0c-3.65,0-6.24-.91-7.93-2.77-2.74-3.02-2.28-7.7-1.87-11.82.32-3.24.62-6.3-.87-6.9-.32-.13-.44-.15-.8-.22-.13-.02-.27-.05-.44-.09-3.92-.8-5.92-1.94-6.5-3.69-.77-2.36,1.32-4.67,3.98-7.6,1.54-1.7,3.29-3.63,4.59-5.72,1.22-1.97,1.19-5.35,1.15-9.26-.09-9.66-.23-24.27,18.07-37.43,8.08-5.81,18.51-9.01,29.36-9.01,12.96,0,24.97,4.67,32.94,12.8,8.03,8.18,11.88,18.53,11.14,29.92-.69,10.7-5.5,21.4-13.55,30.14-3.47,3.77-3.29,11.17-3.1,19,.13,5.63.27,11.46-1.02,16.21-.12.46-.49.81-.95.92l-46.82,10.98c-.1.02-.2.03-.29.03Zm-10.56-28.37c2.31,0,4.99.35,7.26,2.92,2.04,2.31,2.07,7.02,2.1,12,.03,4.25.06,9.02,1.55,10.75l45.41-10.65c1-4.27.87-9.58.75-14.73-.2-8.37-.39-16.27,3.78-20.8,16.24-17.64,17.28-41.41,2.47-56.51-7.49-7.64-18.83-12.03-31.1-12.03-10.32,0-20.21,3.03-27.86,8.53-17.22,12.38-17.09,25.64-17,35.31.04,4.31.08,8.04-1.53,10.64-1.42,2.29-3.25,4.32-4.87,6.1-1.75,1.93-3.74,4.12-3.44,5.06.09.26.67,1.17,4.57,1.97.16.03.29.06.4.08.41.08.74.14,1.29.36,3.28,1.31,2.86,5.5,2.47,9.54-.35,3.59-.76,7.67,1.21,9.84,1.17,1.3,3.15,1.93,6.02,1.93.09-.01.22,0,.33,0,1.09-.02,2.13-.09,3.13-.16,1.06-.07,2.07-.14,3.05-.14Z"/><path class="cls-1" d="m178.95,79.29v-.49h-4.16v.49l.47-.12c-.57-2.27-1.46-4.41-2.63-6.36l-.42.25.34.34,2.94-2.94c.56-.56.83-1.29.83-2.02,0-.73-.28-1.46-.83-2.02l-4.51-4.51c-.56-.56-1.29-.83-2.02-.83-.73,0-1.46.28-2.02.83l-2.94,2.94.34.34.25-.42c-1.95-1.17-4.09-2.07-6.36-2.63l-.12.47h.49v-4.16c0-.79-.32-1.5-.84-2.02-.52-.52-1.23-.84-2.02-.84h-6.37c-.79,0-1.5.32-2.02.84-.52.52-.84,1.23-.84,2.02v4.16h.49l-.12-.47c-2.27.57-4.41,1.46-6.36,2.63l.25.42.34-.34-2.94-2.94c-.56-.56-1.29-.83-2.02-.83-.73,0-1.46.28-2.02.83l-4.51,4.51c-.56.56-.83,1.29-.83,2.02,0,.73.28,1.46.83,2.02l2.94,2.94.34-.34-.42-.25c-1.17,1.95-2.07,4.09-2.63,6.36l.47.12v-.49h-4.16c-.79,0-1.5.32-2.02.84-.52.52-.84,1.23-.84,2.02v6.37c0,.79.32,1.5.84,2.02.52.52,1.23.84,2.02.84h4.16v-.49l-.47.12c.57,2.27,1.46,4.41,2.63,6.36l.42-.25-.34-.34-2.94,2.94c-.56.56-.83,1.29-.83,2.02,0,.73.28,1.46.83,2.02l4.51,4.51c.56.56,1.29.83,2.02.83.73,0,1.46-.28,2.02-.83l2.94-2.94-.34-.34-.25.42c1.95,1.17,4.09,2.07,6.36,2.63l.12-.47h-.49v4.16c0,.79.32,1.5.84,2.02.52.52,1.23.84,2.02.84h6.37c.79,0,1.5-.32,2.02-.84.52-.52.84-1.23.84-2.02v-4.16h-.49l.12.47c2.27-.57,4.41-1.46,6.36-2.63l-.25-.42-.34.34,2.94,2.94c.56.56,1.29.83,2.02.83.73,0,1.46-.28,2.02-.83l4.51-4.51c.56-.56.83-1.29.83-2.02,0-.73-.28-1.46-.83-2.02l-2.94-2.94-.34.34.42.25c1.17-1.95,2.07-4.09,2.63-6.36l-.47-.12v.49h4.16c.79,0,1.5-.32,2.02-.84.52-.52.84-1.23.84-2.02v-6.37c0-.79-.32-1.5-.84-2.02-.52-.52-1.23-.84-2.02-.84v.98c.52,0,.98.21,1.33.55.34.34.55.81.55,1.33v6.37c0,.52-.21.98-.55,1.33-.34.34-.81.55-1.33.55h-4.54l-.09.37c-.54,2.18-1.4,4.22-2.52,6.09l-.2.33,3.21,3.21c.37.37.55.84.55,1.33,0,.48-.18.96-.55,1.33l-4.51,4.51c-.37.37-.84.55-1.33.55-.48,0-.96-.18-1.33-.55l-3.21-3.21-.33.2c-1.87,1.13-3.92,1.98-6.09,2.52l-.37.09v4.54c0,.52-.21.98-.55,1.33-.34.34-.81.55-1.33.55h-6.37c-.52,0-.98-.21-1.33-.55-.34-.34-.55-.81-.55-1.33v-4.54l-.37-.09c-2.18-.54-4.22-1.4-6.09-2.52l-.33-.2-3.21,3.21c-.37.37-.84.55-1.33.55-.48,0-.96-.18-1.33-.55l-4.51-4.51c-.37-.37-.55-.84-.55-1.33,0-.48.18-.96.55-1.33l3.21-3.21-.2-.33c-1.13-1.87-1.98-3.92-2.52-6.09l-.09-.37h-4.54c-.52,0-.98-.21-1.33-.55-.34-.34-.55-.81-.55-1.33v-6.37c0-.52.21-.98.55-1.33.34-.34.81-.55,1.33-.55h4.54l.09-.37c.54-2.18,1.4-4.22,2.52-6.09l.2-.33-3.21-3.21c-.37-.37-.55-.84-.55-1.33,0-.48.18-.96.55-1.33l4.51-4.51c.37-.37.84-.55,1.33-.55.48,0,.96.18,1.33.55l3.21,3.21.33-.2c1.87-1.13,3.92-1.98,6.09-2.52l.37-.09v-4.54c0-.52.21-.98.55-1.33.34-.34.81-.55,1.33-.55h6.37c.52,0,.98.21,1.33.55.34.34.55.81.55,1.33v4.54l.37.09c2.18.54,4.22,1.4,6.09,2.52l.33.2,3.21-3.21c.37-.37.84-.55,1.33-.55.48,0,.96.18,1.33.55l4.51,4.51c.37.37.55.84.55,1.33,0,.48-.18.96-.55,1.33l-3.21,3.21.2.33c1.13,1.87,1.98,3.92,2.52,6.09l.09.37h4.54v-.49Zm-26.37,20.33v-.49c-3.95,0-7.51-1.6-10.1-4.18-2.59-2.59-4.18-6.15-4.18-10.1,0-3.95,1.6-7.51,4.18-10.1,2.59-2.59,6.15-4.18,10.1-4.18,3.95,0,7.51,1.6,10.1,4.18,2.59,2.59,4.18,6.15,4.18,10.1,0,3.95-1.6,7.51-4.18,10.1-2.59,2.59-6.15,4.18-10.1,4.18v.98c8.43,0,15.26-6.83,15.26-15.26,0-8.43-6.83-15.26-15.26-15.26-8.43,0-15.26,6.83-15.26,15.26,0,8.43,6.83,15.26,15.26,15.26v-.49Z"/></svg>