<?xml version="1.0" encoding="UTF-8"?><svg id="Ebene_1" xmlns="http://www.w3.org/2000/svg" viewBox="0 0 400 300"><defs><style>.cls-1,.cls-2,.cls-3,.cls-4,.cls-5,.cls-6,.cls-7,.cls-8,.cls-9,.cls-10,.cls-11,.cls-12{stroke:#000;stroke-miterlimit:10;}.cls-1,.cls-5,.cls-11{stroke-width:3.11px;}.cls-1,.cls-13{fill:#c8b5ff;}.cls-14,.cls-15{fill:#fff;}.cls-2{stroke-width:1.34px;}.cls-2,.cls-7{fill:#5928e5;}.cls-3{stroke-width:1.62px;}.cls-3,.cls-4,.cls-5,.cls-6,.cls-8,.cls-9,.cls-12{fill:none;}.cls-3,.cls-8,.cls-9,.cls-16{opacity:.1;}.cls-15{opacity:.3;}.cls-4{stroke-width:1.89px;}.cls-6,.cls-7{stroke-width:1.74px;}.cls-8{stroke-width:1.76px;}.cls-9{stroke-width:2.02px;}.cls-17{fill:#b4a3e6;}.cls-18{fill:#b3b3b3;}.cls-10{stroke-width:2.66px;}.cls-11{fill:#ffcbcb;}.cls-12{stroke-width:2.17px;}</style></defs><path class="cls-11" d="m326.24,268.25l-7.83-20.28c-.17-.44-.42-.84-.75-1.17-.4-.39-.46-.79-.89-1.02l1.91-10.84.26-1.28c1.66.32,3.37-.58,3.91-2.18.65-1.94-.58-3.96-2.52-4.33l-12.75-2.46c-1.83-.35-2.87.88-3.33,2.75h0c0,1.87,1.5,3.68,3.33,4.03l.14.03-2.55,13.2c-.48.16-.86.37-1.13.63l-14.79,16.18c-2.59,2.51-2.59,12.22.96,12.87l29.91,5.46c3.55.65,7.67-8.31,6.14-11.58Z"/><g><path class="cls-18" d="m281.06,261.08c0,13.85-43.82,25.08-97.88,25.08s-97.88-11.23-97.88-25.08c0-2.79,1.78-5.47,5.06-7.98,25.63,9.39,63.89,7.75,104.36,7.75,33.96,0,63.39,1.15,84.94-4.03.92,1.38,1.4,2.8,1.4,4.25Z"/><path class="cls-1" d="m290.5,215.36c0,.49,0,.98,0,1.46,0,.44-.01.87-.02,1.3-.02,1.03-.06,2.03-.11,3.02-.02.43-.05.86-.08,1.28-.05.76-.11,1.52-.17,2.26-.02.27-.05.53-.08.79-.03.35-.07.7-.11,1.04-.08.79-.18,1.57-.29,2.33-.04.29-.08.58-.12.87-.04.23-.07.46-.11.69-.04.29-.09.59-.14.87-.07.39-.14.78-.21,1.16-.08.45-.18.9-.27,1.35-.06.28-.12.56-.18.84-.04.19-.08.38-.13.56-.07.29-.14.58-.21.87-.14.55-.28,1.09-.44,1.62-.09.32-.18.63-.28.94-.08.28-.17.55-.26.83-.08.25-.16.51-.25.75-.43,1.29-.91,2.53-1.42,3.71-.1.22-.19.44-.29.65-.27.58-.54,1.14-.82,1.69-.08.15-.15.3-.23.45-.08.16-.17.32-.26.48-.49.91-1.02,1.78-1.56,2.62-.12.19-.24.37-.36.55-.12.18-.24.35-.36.52-.12.17-.25.35-.37.51-.67.93-1.39,1.81-2.13,2.65-.17.2-.35.4-.53.59-.2.21-.4.42-.59.62-.21.22-.43.44-.64.64-.2.2-.41.4-.63.59-.21.2-.43.4-.65.59-.21.19-.43.37-.64.55-.06.05-.12.11-.18.16h0c-.13.12-.27.23-.4.33-.12.09-.24.19-.35.28-.15.12-.29.23-.44.34-.19.15-.38.29-.57.43-.07.05-.14.1-.2.15-.21.15-.42.29-.63.44-.23.16-.45.31-.68.46-.12.08-.25.16-.38.25-.31.2-.61.39-.93.57-.14.08-.28.17-.42.25-.66.39-1.33.75-2.01,1.11-.16.08-.32.16-.48.25-.32.16-.63.31-.95.46-.18.09-.37.17-.55.26-.32.15-.65.29-.98.43-.17.08-.35.15-.52.22-.22.09-.44.18-.66.27-.2.08-.4.16-.61.24-.15.06-.31.12-.47.18-.29.11-.59.22-.88.32-.19.07-.37.13-.56.2-.08.03-.16.06-.25.08-.24.08-.49.16-.74.24-.12.04-.25.08-.37.12-.21.07-.43.14-.65.2-.36.11-.72.22-1.09.32-18.04,5.18-42.65,4.03-71.07,4.03-10.56,0-20.94.16-30.88.09-.5,0-1,0-1.5-.01-2.34-.02-4.67-.05-6.96-.11-.55-.01-1.11-.03-1.66-.04-1.21-.04-2.42-.08-3.62-.12-.72-.03-1.43-.06-2.14-.09-1.07-.05-2.12-.11-3.17-.16-.35-.02-.7-.04-1.05-.06-.35-.02-.7-.04-1.04-.07-.35-.02-.69-.04-1.03-.07-.34-.02-.69-.05-1.03-.08-1.49-.12-2.97-.24-4.42-.39-.51-.05-1-.1-1.5-.16-2.69-.29-5.31-.64-7.86-1.06-.63-.1-1.25-.21-1.86-.32-.31-.06-.62-.12-.92-.17-.96-.18-1.91-.38-2.85-.59-.52-.11-1.05-.23-1.57-.36-.05,0-.1-.02-.15-.03-.25-.06-.5-.12-.75-.18-.34-.08-.68-.17-1.02-.26-.4-.1-.79-.21-1.19-.32-2.14-.59-4.21-1.26-6.2-2.01-.26-.1-.51-.2-.77-.29-.01,0-.03-.01-.04-.02-.25-.1-.51-.2-.76-.3-.26-.11-.52-.22-.79-.33-.2-.08-.4-.17-.6-.26-.05-.02-.1-.04-.15-.07-.22-.1-.44-.2-.67-.3-.27-.12-.53-.24-.8-.37-.08-.04-.16-.08-.24-.12-.07-.03-.13-.07-.2-.1-.23-.11-.45-.22-.67-.33-.13-.07-.25-.13-.38-.2-.12-.06-.24-.12-.36-.19-.16-.08-.32-.17-.48-.25-.11-.06-.22-.12-.32-.18-.01,0-.03-.01-.04-.02-.07-.04-.15-.08-.22-.12-.16-.08-.31-.17-.47-.27-.75-.42-1.48-.87-2.19-1.33-.03-.02-.06-.04-.08-.06-.12-.08-.24-.16-.36-.24-.08-.05-.16-.11-.24-.17-.04-.02-.08-.05-.12-.08-.16-.11-.32-.22-.48-.33-.19-.12-.37-.26-.55-.39-.04-.03-.09-.07-.14-.1-.09-.07-.18-.13-.28-.2-.09-.06-.18-.13-.26-.2-.11-.08-.21-.16-.31-.24-.08-.07-.17-.13-.25-.2-.04-.03-.08-.06-.12-.09-.15-.12-.3-.24-.44-.36-.33-.26-.65-.53-.97-.81-.06-.05-.12-.1-.17-.16-.06-.05-.12-.1-.19-.16-.49-.43-.97-.88-1.44-1.34l-.11-.11c-.07-.07-.14-.14-.21-.21-.08-.07-.15-.15-.22-.22-.13-.13-.27-.27-.4-.4,0,0,0,0,0-.01-.02-.02-.04-.04-.05-.05-.07-.07-.14-.15-.21-.23-.12-.12-.24-.25-.36-.38-.04-.05-.09-.1-.14-.15-.08-.09-.16-.19-.25-.28-.02-.02-.04-.04-.06-.07-.13-.15-.27-.31-.4-.46-.09-.1-.18-.2-.26-.31-.15-.17-.29-.35-.43-.52-.03-.03-.05-.06-.08-.09-.1-.12-.2-.25-.29-.37-.18-.23-.36-.46-.54-.7-.05-.07-.1-.13-.15-.2,0,0,0,0,0,0-.19-.25-.37-.51-.55-.77-.01-.01-.02-.03-.03-.04,0,0-.01-.01-.02-.02,0,0,0,0-.01-.02-.2-.29-.4-.58-.59-.88-.05-.08-.11-.17-.16-.26-.2-.3-.39-.6-.57-.91,0,0-.01-.02-.02-.03-.19-.31-.37-.63-.55-.95-.02-.04-.04-.08-.07-.12-.42-.75-.82-1.52-1.2-2.31-.09-.19-.18-.38-.27-.57-.11-.23-.21-.46-.32-.7-.02-.05-.04-.1-.07-.16-.1-.24-.21-.48-.31-.73-.12-.27-.22-.54-.33-.81-.31-.77-.59-1.56-.86-2.37-.06-.16-.11-.33-.16-.5-.05-.17-.11-.34-.16-.51-.07-.21-.13-.42-.19-.63-.07-.23-.13-.45-.2-.68-.08-.26-.15-.53-.22-.79-.28-1.07-.54-2.17-.77-3.3-.04-.19-.08-.37-.11-.56-.23-1.17-.42-2.37-.59-3.61-.04-.24-.07-.49-.09-.73-.17-1.35-.31-2.75-.4-4.19-.02-.32-.04-.65-.06-.98s-.04-.66-.05-.99c-.01-.33-.03-.67-.04-1.01-.02-.43-.03-.86-.04-1.29-.01-.63-.02-1.27-.02-1.92,0-.42,0-.85,0-1.27,0-.42,0-.84.02-1.27,0-.36.02-.73.03-1.1,0-.31.02-.62.04-.94,0-.27.02-.54.04-.81.02-.54.05-1.07.09-1.61.02-.37.05-.74.08-1.1.04-.55.08-1.09.13-1.63.04-.44.08-.88.12-1.32.02-.21.04-.42.07-.63.08-.69.16-1.38.24-2.06.05-.41.11-.82.16-1.23.03-.24.07-.48.1-.72.04-.27.08-.53.12-.8.08-.55.17-1.1.26-1.65.06-.35.12-.69.18-1.03,0-.02,0-.05,0-.07.08-.41.15-.82.23-1.23.09-.48.19-.97.29-1.45.08-.42.17-.84.27-1.26.3-1.38.62-2.73.97-4.09.1-.38.2-.76.3-1.15.12-.43.24-.86.36-1.29.12-.41.24-.82.36-1.23.22-.74.44-1.46.67-2.19.08-.27.17-.53.26-.79.25-.76.51-1.52.78-2.28.24-.69.5-1.38.75-2.07.19-.51.39-1.02.59-1.53.16-.4.32-.81.48-1.21,0-.01,0-.02.01-.03.16-.4.33-.8.5-1.2.15-.36.31-.72.46-1.08.37-.85.75-1.7,1.15-2.54.19-.4.37-.79.56-1.19.13-.28.27-.55.4-.83.64-1.3,1.31-2.58,1.99-3.85.21-.39.42-.77.63-1.15.43-.77.87-1.54,1.32-2.3.22-.37.44-.74.66-1.1.2-.34.41-.67.62-1.01.48-.78.98-1.54,1.48-2.31.24-.36.48-.73.73-1.09.24-.36.49-.72.74-1.08.24-.34.47-.67.71-1.01.27-.37.53-.75.81-1.12.25-.34.5-.68.75-1.02.02-.02.04-.04.05-.07.26-.34.51-.67.77-1.01.26-.35.53-.69.8-1.03.27-.34.54-.68.81-1.02.86-1.07,1.74-2.13,2.65-3.17.23-.27.47-.54.71-.81.28-.32.57-.64.87-.96,0,0,0,0,.01-.02.24-.27.48-.53.73-.79.63-.69,1.28-1.37,1.94-2.04.27-.28.55-.56.83-.83,1.05-1.05,2.12-2.09,3.22-3.1.21-.2.43-.4.64-.59,1.09-.99,2.21-1.96,3.34-2.91.3-.25.6-.5.9-.75,1.22-1,2.45-1.97,3.72-2.91.2-.15.41-.31.61-.45.55-.41,1.11-.81,1.66-1.21.33-.24.66-.47.99-.69.36-.25.71-.49,1.08-.74.29-.2.58-.39.87-.58.44-.29.88-.58,1.32-.86.22-.14.44-.28.65-.41.2-.13.41-.26.62-.39.19-.12.37-.24.56-.35,1.86-1.14,3.75-2.23,5.68-3.26.32-.17.64-.34.96-.5.43-.23.87-.45,1.31-.67.27-.14.54-.27.81-.4.36-.18.71-.35,1.07-.52,1.07-.52,2.15-1.01,3.25-1.49.23-.1.46-.2.7-.3.5-.22,1-.43,1.5-.63.37-.15.74-.3,1.11-.45.37-.15.74-.3,1.11-.44.37-.15.75-.29,1.12-.43.29-.11.58-.22.87-.32.3-.11.6-.22.91-.32.54-.19,1.08-.38,1.62-.56,1.14-.39,2.29-.75,3.45-1.1.77-.23,1.54-.45,2.32-.67.31-.09.62-.17.93-.25h0c.08-.03.16-.04.24-.06.35-.09.69-.18,1.04-.27.1-.03.2-.05.3-.08.34-.08.67-.17,1.02-.25.4-.09.79-.19,1.19-.28.32-.08.65-.15.97-.22.3-.07.6-.13.9-.19.17-.04.34-.07.51-.11.8-.16,1.6-.32,2.41-.46.8-.15,1.61-.28,2.42-.41.45-.07.9-.14,1.34-.2.24-.04.49-.07.74-.1.69-.1,1.39-.19,2.09-.27.28-.04.57-.07.85-.1,1.24-.14,2.5-.25,3.76-.35.86-.06,1.72-.12,2.59-.16.21-.01.43-.02.65-.03h0c.59-.03,1.17-.05,1.76-.06.28-.01.55-.02.83-.02.34,0,.68-.01,1.03-.02.44,0,.87,0,1.31,0,.47,0,.93,0,1.39,0h.04c.43,0,.86.01,1.29.03h.12c.45.01.9.03,1.35.04.93.04,1.86.08,2.77.14.43.03.85.05,1.27.08.08,0,.17.01.26.02.41.03.82.07,1.23.1.35.03.7.06,1.05.1.45.04.9.09,1.35.14.28.03.57.06.86.1.15.02.29.04.44.05.27.03.53.07.79.1,1.11.14,2.21.31,3.3.48.21.04.43.07.63.11.36.06.71.12,1.06.18.45.08.89.16,1.34.25.36.07.72.14,1.08.21.19.04.37.08.56.12.34.07.67.14,1.01.21,1.62.35,3.23.74,4.83,1.17.29.08.58.16.87.24,1.08.3,2.16.61,3.22.94.34.11.67.21,1.01.32.34.11.67.22,1.01.33.4.13.8.27,1.2.41.97.33,1.93.67,2.88,1.03.3.11.6.23.9.34,2.62,1.01,5.2,2.13,7.72,3.33.32.15.63.3.94.46.32.15.63.31.94.47.32.16.63.32.93.48.56.28,1.12.58,1.67.88.72.39,1.43.78,2.14,1.19.26.14.51.29.77.44.9.52,1.8,1.06,2.68,1.6.11.06.21.13.32.2.19.12.38.23.56.36.3.19.59.37.88.56.29.19.58.38.87.57.2.13.39.26.59.39.41.28.81.55,1.22.83.26.18.51.36.77.54.28.2.57.4.85.6.28.2.56.4.84.61.03.02.05.04.08.05.4.29.79.59,1.19.88.42.32.83.63,1.25.95.41.32.83.64,1.23.97.41.32.82.65,1.22.99.81.66,1.61,1.33,2.4,2.02.4.34.79.69,1.18,1.04.39.35.78.7,1.16,1.05.39.36.77.71,1.15,1.07.33.32.66.63.99.95.07.07.14.13.2.2.36.35.71.7,1.06,1.05.37.37.73.74,1.1,1.12.36.37.72.75,1.08,1.13.33.36.67.71,1,1.07.48.53.95,1.06,1.42,1.59.24.28.48.55.72.83.34.4.68.79,1.02,1.19.33.4.67.8.99,1.2,0,0,.01,0,.02.02.32.4.65.8.97,1.21,1.03,1.31,2.04,2.65,3.02,4.01.24.32.47.65.69.98.98,1.39,1.92,2.8,2.82,4.23.23.36.46.72.68,1.09.18.28.35.57.52.86.15.25.3.5.45.75.03.04.05.09.08.13.44.74.87,1.49,1.29,2.25.28.49.55.98.81,1.47.25.47.5.93.74,1.4.24.47.48.94.72,1.41.24.47.47.95.7,1.42.22.44.43.89.64,1.34.26.55.51,1.12.76,1.68.17.37.34.75.5,1.13.14.31.27.63.4.94.14.32.27.65.41.98.9,2.2,1.74,4.44,2.49,6.72.08.24.16.47.24.71.29.9.57,1.8.84,2.71.13.43.25.86.37,1.28.09.3.17.6.25.9.08.28.16.55.23.83.04.15.08.3.12.45.12.45.24.91.35,1.37.09.37.19.75.27,1.12.27,1.12.51,2.24.74,3.37.08.38.15.75.22,1.13.08.44.17.88.25,1.33,0,.01,0,.02,0,.04.08.41.15.83.21,1.24.19,1.14.36,2.29.52,3.45.04.32.08.63.12.96.02.16.04.32.06.49.05.42.1.84.14,1.27,0,.06.02.12.02.18.04.38.08.75.11,1.13.03.22.04.44.06.67.09.94.16,1.88.22,2.83.02.32.04.63.05.95.02.22.03.44.04.66.01.21.02.43.03.65.02.41.04.83.04,1.24,0,.05,0,.1,0,.15.02.48.03.95.04,1.42.01.63.02,1.26.02,1.9Z"/><path class="cls-15" d="m177.4,131.68c-1.7,2.3-6.15.89-10.65.89,0,0-7.57.28-15.98,2.66-6.14,1.74-9.86,4.86-17.31,11.1-4.63,3.88-10.24,8.58-15.54,16.42-3.84,5.69-8.55,12.65-10.21,22.64-1.16,6.98-.4,12.79-4,14.65-1.7.87-4.23.81-5.77-.44-1.94-1.58-1.82-4.69-1.78-5.77.08-2.12.8-2.73.89-5.77.06-2.07-.24-2.75-.44-3.11-.77-1.37-2.48-2.39-4-2.22-2.19.25-3.37,2.91-4.44,5.33-1.3,2.93-1.82,5.71-2.22,10.21-.17,1.96-.36,4.69-.44,9.77-.13,8.14,1.1,11.6-.44,14.65-.6,1.19-2.22,3.11-5.33,3.11-2.15,0-4.51-2.29-6.25-7.22-.02-.43-.03-.86-.04-1.29-.01-.63-.02-1.27-.02-1.92,0-.42,0-.85,0-1.27,0-.42,0-.84.02-1.27,0-.36.02-.73.03-1.1,0-.31.02-.62.04-.94,0-.27.02-.54.04-.81.02-.54.05-1.07.09-1.61.02-.37.05-.74.08-1.1.04-.55.08-1.09.13-1.63.04-.44.08-.88.12-1.32.02-.21.04-.42.07-.63.08-.69.16-1.38.24-2.06.05-.41.11-.82.16-1.23.03-.24.07-.48.1-.72.04-.27.08-.53.12-.8.08-.55.17-1.1.26-1.65.06-.35.12-.69.18-1.03,0-.02,0-.05,0-.07.08-.41.15-.82.23-1.23.09-.48.19-.97.29-1.45.08-.42.17-.84.27-1.26.3-1.38.62-2.73.97-4.09.1-.38.2-.76.3-1.15.12-.43.24-.86.36-1.29.12-.41.24-.82.36-1.23.22-.74.44-1.46.67-2.19.08-.27.17-.53.26-.79.25-.76.51-1.52.78-2.28.24-.69.5-1.38.75-2.07.19-.51.39-1.02.59-1.53.16-.4.32-.81.48-1.21,0-.01,0-.02.01-.03.16-.4.33-.8.5-1.2.15-.36.31-.72.46-1.08.37-.85.75-1.7,1.15-2.54.19-.4.37-.79.56-1.19.13-.28.27-.55.4-.83.64-1.3,1.31-2.58,1.99-3.85.21-.39.42-.77.63-1.15.43-.77.87-1.54,1.32-2.3.22-.37.44-.74.66-1.1.2-.34.41-.67.62-1.01.48-.78.98-1.54,1.48-2.31.24-.36.48-.73.73-1.09.24-.36.49-.72.74-1.08.24-.34.47-.67.71-1.01.27-.37.53-.75.81-1.12.25-.34.5-.68.75-1.02.02-.02.04-.04.05-.07.26-.34.51-.67.77-1.01.26-.35.53-.69.8-1.03.27-.34.54-.68.81-1.02.86-1.07,1.74-2.13,2.65-3.17.23-.27.47-.54.71-.81.28-.32.57-.64.87-.96,0,0,0,0,.01-.02.24-.27.48-.53.73-.79.63-.69,1.28-1.37,1.94-2.04.27-.28.55-.56.83-.83,1.05-1.05,2.12-2.09,3.22-3.1.21-.2.43-.4.64-.59,1.09-.99,2.21-1.96,3.34-2.91.3-.25.6-.5.9-.75,1.22-1,2.45-1.97,3.72-2.91.2-.15.41-.31.61-.45.55-.41,1.11-.81,1.66-1.21.33-.24.66-.47.99-.69.36-.25.71-.49,1.08-.74.29-.2.58-.39.87-.58.44-.29.88-.58,1.32-.86.22-.14.44-.28.65-.41.2-.13.41-.26.62-.39.19-.12.37-.24.56-.35,1.86-1.14,3.75-2.23,5.68-3.26.32-.17.64-.34.96-.5.43-.23.87-.45,1.31-.67.27-.14.54-.27.81-.4.36-.18.71-.35,1.07-.52,1.07-.52,2.15-1.01,3.25-1.49.23-.1.46-.2.7-.3.5-.22,1-.43,1.5-.63.37-.15.74-.3,1.11-.45.37-.15.74-.3,1.11-.44.37-.15.75-.29,1.12-.43.29-.11.58-.22.87-.32.3-.11.6-.22.91-.32.54-.19,1.08-.38,1.62-.56,1.14-.39,2.29-.75,3.45-1.1.77-.23,1.54-.45,2.32-.67.31-.09.62-.17.93-.25h0c.08-.02.16-.04.23-.06.35-.09.69-.18,1.04-.27.1-.03.2-.05.3-.08.34-.08.67-.17,1.02-.25.4-.09.79-.19,1.19-.28.32-.08.65-.15.97-.22.3-.07.6-.13.9-.19.17-.04.34-.07.51-.11.8-.16,1.6-.32,2.41-.46.8-.15,1.61-.28,2.42-.41,2.57,2.3,3.75,4.51,3.07,6.23-.16.39-.32.72-.5,1.01-1.76,2.83-4.63,1.29-7.76,3.42-.2.13-.41.29-.61.46-1.8,1.5-1.86,3.52-1.11,4.74.36.58.92.98,1.56,1.03,4.63.42,3.87.16,8.5.4.26.01.53.03.83.04,2.68.15,7.84.44,8.88,3.11.38.98.2,2.24-.44,3.11Z"/><path class="cls-16" d="m290.5,215.36c0,59.94-43.04,54.82-102.98,54.82-47.61,0-91.56,3.23-107.63-25.48,20.65,6.35,60.5,11.12,124.15,6.39,34.7-2.58,45.97-5.72,54.6-15.09,17.56-19.08,11.32-50.05,8.88-62.15-.33-1.65-5.29-24.55-21.74-46.29,27.1,19.73,44.72,51.71,44.72,87.8Z"/><path class="cls-5" d="m100.19,262.42l-.15-.07c-.22-.1-.44-.2-.67-.3-.27-.12-.53-.24-.8-.37-.08-.04-.16-.08-.24-.12-.07-.03-.13-.07-.2-.1-.23-.11-.45-.22-.67-.33-.13-.07-.25-.13-.38-.2-.12-.06-.24-.12-.36-.19-.16-.08-.32-.17-.48-.25-.11-.06-.22-.12-.32-.18-.01,0-.03-.01-.04-.02-.07-.04-.15-.08-.22-.12-.16-.08-.31-.17-.47-.27-.75-.42-1.48-.87-2.19-1.33-.03-.02-.06-.04-.08-.06-.12-.08-.24-.16-.36-.24-.08-.05-.16-.11-.24-.17-.04-.02-.08-.05-.12-.08-.16-.11-.32-.22-.48-.33-.19-.12-.37-.26-.55-.39-.05-.03-.09-.06-.14-.1-.09-.07-.18-.13-.28-.2-.09-.06-.18-.13-.26-.2-.11-.08-.21-.16-.31-.24l-.25-.2s-.08-.06-.12-.09c-.15-.12-.3-.24-.44-.36-.33-.26-.65-.53-.97-.81-.06-.05-.12-.1-.17-.16-.06-.05-.12-.1-.19-.16-.49-.43-.97-.88-1.44-1.34-.04-.04-.08-.07-.11-.11-.07-.07-.14-.14-.21-.21-.08-.07-.15-.15-.22-.22-.1-.1-.2-.2-.28-.3-.04-.04-.08-.08-.12-.12l-.05-.05c-.07-.07-.14-.15-.21-.23-.12-.12-.24-.25-.36-.38-.04-.05-.09-.1-.14-.15-.08-.09-.16-.18-.25-.28-.02-.02-.04-.04-.06-.07-.13-.15-.27-.31-.4-.46-.09-.1-.18-.2-.26-.31-.15-.17-.29-.35-.43-.52-.03-.03-.05-.06-.08-.09-.1-.12-.2-.24-.29-.37-.18-.23-.36-.46-.54-.7-.05-.07-.1-.13-.15-.2,0,0,0,0,0,0-.19-.25-.37-.51-.55-.77-.01-.01-.02-.03-.03-.04,0,0-.01-.01-.02-.02,0,0,0,0-.01-.02-.2-.29-.4-.58-.59-.88-.05-.08-.11-.17-.16-.26-.2-.3-.39-.6-.57-.91,0,0-.01-.02-.02-.03-.19-.31-.37-.63-.55-.95l-.07-.12c-.42-.75-.82-1.52-1.2-2.31-.09-.19-.18-.38-.27-.57-.11-.23-.21-.46-.32-.7-.02-.05-.04-.1-.07-.16-.1-.24-.21-.48-.31-.73-.12-.27-.22-.54-.33-.81-.31-.77-.59-1.56-.86-2.37-.06-.16-.11-.33-.16-.5s-.11-.34-.16-.51c-.07-.21-.13-.42-.19-.63-.07-.23-.13-.45-.2-.68-.08-.26-.15-.53-.22-.79-.28-1.07-.54-2.17-.77-3.3-.04-.19-.08-.37-.11-.56-.23-1.17-.42-2.37-.59-3.61-.03-.24-.06-.48-.09-.73-.17-1.35-.31-2.75-.4-4.19-.02-.32-.04-.65-.06-.98s-.04-.66-.05-.99-.03-.67-.04-1.01c-.02-.43-.03-.86-.04-1.29-.01-.63-.02-1.27-.02-1.92,0-.42,0-.85,0-1.27s0-.84.02-1.27c0-.36.02-.73.03-1.1,0-.31.02-.62.04-.94,0-.27.02-.54.04-.81.02-.54.05-1.07.09-1.61.02-.37.05-.74.08-1.1.04-.55.08-1.09.13-1.63.04-.44.08-.88.12-1.32.02-.21.04-.42.07-.63.08-.69.16-1.38.24-2.06.05-.41.11-.82.16-1.23.03-.24.07-.48.1-.72.04-.27.08-.53.12-.8.08-.55.17-1.1.26-1.65.06-.35.12-.69.18-1.03,0-.02,0-.05,0-.07.08-.41.15-.82.23-1.23.09-.48.19-.97.29-1.45.08-.42.17-.84.27-1.26.3-1.38.62-2.73.97-4.09.1-.38.2-.76.3-1.15.12-.43.24-.86.36-1.29.12-.41.24-.83.36-1.23.22-.74.44-1.46.67-2.19.08-.27.17-.53.26-.79.25-.76.51-1.52.78-2.28.24-.69.5-1.38.75-2.07.19-.51.39-1.02.59-1.53.16-.4.32-.81.48-1.21,0-.01,0-.02.01-.03.16-.4.33-.8.5-1.2.15-.36.3-.72.46-1.08.37-.85.75-1.7,1.15-2.54.18-.4.37-.79.56-1.19.13-.28.27-.55.4-.83.64-1.3,1.31-2.58,1.99-3.85.21-.39.42-.77.63-1.15.43-.77.87-1.54,1.32-2.29.22-.37.44-.74.66-1.1.2-.34.41-.67.62-1.01.48-.78.98-1.54,1.48-2.31.24-.36.48-.73.73-1.09.24-.36.49-.72.74-1.08.23-.34.47-.67.71-1.01.27-.37.53-.75.81-1.12.24-.34.5-.68.75-1.02.02-.02.04-.04.05-.07.25-.34.51-.67.77-1.01.26-.35.53-.69.8-1.03.27-.34.54-.68.81-1.02.86-1.07,1.74-2.13,2.65-3.17.23-.27.47-.54.71-.81.28-.32.57-.64.87-.96,0,0,0,0,.01-.02.24-.27.48-.53.73-.79.63-.69,1.28-1.37,1.94-2.04.27-.28.55-.56.83-.83,1.05-1.05,2.12-2.09,3.22-3.1l.64-.59c1.09-.99,2.21-1.96,3.34-2.91.3-.25.6-.5.9-.75,1.22-1,2.45-1.97,3.72-2.91.2-.15.41-.31.61-.45.55-.41,1.11-.81,1.66-1.21.33-.24.66-.47.99-.69.36-.25.72-.49,1.08-.74.29-.2.58-.39.87-.58.44-.29.88-.58,1.32-.86.22-.14.44-.28.65-.41.2-.13.41-.26.62-.39.19-.12.37-.24.56-.35,1.86-1.14,3.75-2.23,5.68-3.26.32-.17.64-.34.96-.5.43-.23.87-.45,1.31-.67.27-.14.54-.27.81-.4.36-.18.71-.35,1.07-.52,1.07-.52,2.15-1.01,3.25-1.49.23-.1.46-.2.7-.3.5-.22,1-.43,1.5-.63.37-.15.74-.3,1.11-.45.37-.15.74-.3,1.11-.44.37-.15.75-.29,1.12-.43.29-.11.58-.22.87-.32.3-.11.6-.22.91-.32.54-.19,1.08-.38,1.62-.56,1.14-.39,2.29-.75,3.45-1.1.77-.23,1.54-.45,2.32-.67.31-.09.62-.17.93-.25h0c.08-.02.16-.04.23-.06.35-.09.69-.18,1.04-.27.1-.03.2-.05.3-.08.34-.08.67-.17,1.02-.25.4-.09.79-.19,1.19-.28.32-.08.65-.15.97-.22.3-.07.6-.13.9-.19.17-.04.34-.07.51-.11.8-.16,1.6-.32,2.41-.46s1.61-.28,2.42-.41c.45-.07.9-.14,1.35-.2.24-.04.49-.07.74-.1.69-.1,1.39-.19,2.09-.27.28-.04.57-.07.85-.1,1.24-.14,2.5-.25,3.76-.35.86-.06,1.72-.12,2.59-.16.21-.01.43-.02.64-.03h.01c.59-.03,1.17-.05,1.76-.06.28-.01.55-.02.83-.02.34,0,.68-.01,1.03-.02.44,0,.87,0,1.31,0,.47,0,.93,0,1.39,0h.04c.43,0,.86.01,1.29.03h.12c.45.01.9.03,1.35.04.93.04,1.85.08,2.77.14.42.03.85.05,1.27.08.08,0,.17.01.26.02.41.03.82.07,1.23.1.35.03.7.06,1.05.1.45.04.9.09,1.35.14.28.03.57.06.86.1.15.02.29.04.44.05.27.03.53.07.79.1,1.11.14,2.21.31,3.3.48.21.04.43.07.63.11.36.06.71.12,1.06.18.45.08.89.16,1.34.25.36.07.72.14,1.08.21.19.04.37.08.56.12.34.07.67.14,1.01.21,1.62.35,3.23.74,4.83,1.17.29.08.58.16.87.24,1.08.3,2.16.61,3.22.94l1.01.32c.34.11.67.22,1.01.33.4.13.8.27,1.2.41.97.33,1.93.67,2.88,1.03.3.11.6.23.9.34,2.62,1.01,5.2,2.13,7.72,3.33.32.15.63.3.94.46.32.15.63.31.94.47.32.16.63.32.93.47.56.29,1.12.58,1.67.88.72.39,1.43.78,2.14,1.19.26.14.51.29.77.44.9.52,1.8,1.06,2.68,1.6.11.06.21.12.31.2h0c.19.12.38.24.57.36.3.19.59.37.88.56s.58.38.87.57l.59.39c.41.28.81.55,1.22.83.26.18.51.36.77.54.28.2.57.4.85.6.28.2.56.4.84.61.03.02.05.04.08.05.4.29.79.59,1.19.88.42.32.83.63,1.25.95s.83.64,1.23.97c.41.32.82.65,1.22.99.81.67,1.61,1.34,2.4,2.02.4.34.79.69,1.18,1.04.39.35.78.7,1.16,1.05.39.36.77.71,1.15,1.07.33.32.66.63.99.95.07.07.14.13.2.2.36.35.71.7,1.06,1.05.37.37.73.74,1.1,1.12.36.37.72.75,1.08,1.13.33.36.67.71,1,1.07.48.53.95,1.06,1.42,1.59.24.28.48.55.72.83.34.4.68.79,1.02,1.19.33.4.67.8.99,1.2,0,0,.01,0,.02.02.32.4.65.8.97,1.21,1.03,1.31,2.04,2.65,3.02,4.01.24.32.47.65.69.98.98,1.39,1.92,2.8,2.82,4.23.23.36.46.72.68,1.09.18.28.35.57.52.86.15.25.3.5.45.75l.08.13c.44.75.87,1.5,1.29,2.25.28.49.55.98.81,1.47.25.47.5.93.74,1.4s.48.94.72,1.41c.24.47.47.95.7,1.42.22.44.43.89.64,1.34.26.55.51,1.12.76,1.68.17.37.34.75.5,1.13.14.31.27.63.4.94.14.32.28.65.41.98.9,2.2,1.74,4.44,2.49,6.72.08.24.16.47.24.71.29.9.57,1.8.84,2.71.13.43.25.86.37,1.28.09.3.17.6.25.9.08.28.16.55.23.83.04.15.08.3.12.45.12.45.24.91.35,1.37.09.37.19.75.27,1.12.27,1.12.51,2.24.74,3.37.08.37.15.75.22,1.13.09.44.17.88.25,1.33,0,.01,0,.02,0,.04.08.41.15.83.21,1.24.19,1.14.36,2.29.52,3.45.04.32.08.63.12.96.02.16.04.32.06.49.05.42.1.84.14,1.27,0,.06.02.12.02.18.04.38.08.75.11,1.13.03.22.04.44.06.67.09.94.16,1.88.22,2.83.02.32.04.63.05.95.02.22.03.44.04.66.01.21.02.43.03.65.02.41.04.83.04,1.24,0,.05,0,.1,0,.15.02.47.03.95.04,1.42.01.63.02,1.26.02,1.9,0,.49,0,.98,0,1.46,0,.44-.01.87-.02,1.3-.02,1.03-.06,2.03-.11,3.02-.02.43-.05.86-.08,1.28-.05.76-.11,1.52-.17,2.26-.02.27-.05.53-.08.79-.03.35-.07.7-.11,1.04-.08.79-.18,1.57-.29,2.33-.04.29-.08.58-.12.87-.04.23-.07.46-.11.69-.04.29-.09.59-.14.87-.07.39-.14.78-.21,1.16-.08.45-.18.9-.27,1.35-.06.28-.12.56-.18.84-.04.19-.08.38-.13.56-.07.29-.14.58-.21.87-.14.55-.28,1.09-.44,1.62-.09.32-.18.63-.28.94-.08.28-.17.55-.26.83-.08.26-.16.51-.25.75-.44,1.29-.91,2.53-1.42,3.71-.1.22-.19.44-.29.65-.27.58-.54,1.14-.82,1.69-.08.15-.15.3-.23.45-.08.16-.17.32-.26.48-.49.91-1.02,1.78-1.56,2.62-.12.19-.24.37-.36.55-.12.18-.24.35-.36.52-.12.17-.25.35-.37.51-.67.93-1.38,1.81-2.13,2.65-.17.2-.35.4-.53.59-.2.21-.4.42-.59.62-.21.22-.43.44-.64.64-.2.2-.41.4-.63.59-.21.2-.43.4-.65.59-.21.19-.43.37-.64.55-.06.05-.12.11-.18.16h0c-.13.12-.27.23-.4.33-.12.09-.24.19-.35.28-.15.12-.29.23-.44.34-.19.15-.38.29-.57.43-.07.05-.14.1-.2.15-.21.15-.42.29-.63.44-.23.16-.45.31-.68.46-.13.08-.25.16-.38.25-.31.2-.61.39-.93.57-.14.08-.28.17-.42.25-.66.39-1.33.75-2.01,1.11-.16.08-.32.16-.48.25-.32.16-.63.31-.95.46-.18.09-.37.17-.55.26-.32.15-.65.29-.98.43-.17.08-.35.15-.52.22-.22.09-.44.18-.66.27-.2.08-.4.16-.61.24-.15.06-.31.12-.47.18-.29.11-.59.22-.88.32-.19.07-.37.13-.56.2-.08.03-.16.06-.25.08-.24.08-.49.17-.74.24-.12.04-.25.08-.37.12-.21.07-.43.14-.65.2-.36.11-.72.22-1.09.32"/><path class="cls-14" d="m118.43,143.69c7.04-6.61,15.42-11.72,24.6-14.75,2.43-.8,1.39-4.66-1.06-3.85-9.85,3.25-18.81,8.69-26.36,15.78-1.88,1.76.95,4.58,2.82,2.82h0Z"/><path class="cls-14" d="m101.66,168.87c.37-1.01.76-2.02,1.18-3.01l-.2.48c.44-1.03.9-2.04,1.38-3.05.24-.49.35-1,.2-1.54-.13-.46-.49-.97-.92-1.19-.89-.47-2.25-.29-2.73.72-1.03,2.13-1.95,4.31-2.77,6.54-.17.46-.04,1.13.2,1.54s.72.81,1.19.92c1.13.26,2.07-.34,2.46-1.4h0Z"/></g><g><path d="m136.02,218.59c1.09-3.27,2.47-6.43,4.16-9.44.83-1.48,1.72-2.93,2.69-4.32.67-.96,1.64-2.38,2.91-2.54,1.15-.14,2.09.94,2.74,1.74,1.05,1.28,1.9,2.75,2.82,4.12,2.21,3.3,4.42,6.61,6.63,9.91,1.42,2.13,4.88.13,3.45-2.02-2.58-3.85-5.15-7.71-7.73-11.56-1.99-2.98-4.46-6.78-8.62-6.1-3.79.62-6.02,4.79-7.78,7.79-2.1,3.59-3.8,7.41-5.11,11.35-.82,2.44,3.04,3.49,3.85,1.06h0Z"/><path d="m206.16,218.59c1.09-3.27,2.47-6.43,4.16-9.44.83-1.48,1.72-2.93,2.69-4.32.67-.96,1.64-2.38,2.91-2.54,1.15-.14,2.09.94,2.74,1.74,1.05,1.28,1.9,2.75,2.82,4.12,2.21,3.3,4.42,6.61,6.63,9.91,1.42,2.13,4.88.13,3.45-2.02-2.58-3.85-5.15-7.71-7.73-11.56-1.99-2.98-4.46-6.78-8.62-6.1-3.79.62-6.02,4.79-7.78,7.79-2.1,3.59-3.8,7.41-5.11,11.35-.82,2.44,3.04,3.49,3.85,1.06h0Z"/><path class="cls-10" d="m190.14,249.18c-1.67,1.51-3.86,2.5-6.73,2.51-3.16.02-5.5-1.13-7.23-2.85-5.12-5.11-4.87-15.28-4.87-15.28h24.19s.14,10.65-5.37,15.63Z"/><path class="cls-2" d="m190.14,249.18c-1.67,1.51-3.86,2.5-6.73,2.51-3.16.02-5.5-1.13-7.23-2.85,1.3-2.49,3.9-4.19,6.89-4.19s5.83,1.86,7.06,4.53Z"/></g><path class="cls-6" d="m278.29,77.4c0,6.45-41.88,7.23-93.53,7.23s-93.53-.79-93.53-7.23,41.88-12.56,93.53-12.56,93.53,6.11,93.53,12.56Z"/><path class="cls-12" d="m260.35,100.32c-1.47,3.63-34.11-5.81-75.44-18.33-41.33-12.53-75.7-23.4-74.23-27.03s36.16,3.59,77.49,16.12c41.33,12.53,73.65,25.62,72.18,29.25Z"/><path class="cls-4" d="m109.54,94.91c1.68,2.74,39.11-5.16,80.45-14.35,41.34-9.19,70.92-16.2,69.24-18.94s-36.55,2.5-77.89,11.69c-41.34,9.19-73.48,18.87-71.8,21.6Z"/><path class="cls-3" d="m239.19,123.12h0c-5.11.3-10.82.51-17,.67-9.04.22-19.08.31-29.72.34-2.53,0-5.1,0-7.7,0-3.86,0-7.66,0-11.38-.02-5.28-.02-10.39-.06-15.29-.12-5.02-.07-9.82-.16-14.34-.3,0,0,0,0,0,0-6.86-.2-13.07-.5-18.45-.91,1.86-1.14,3.75-2.23,5.68-3.26.32-.17.64-.34.96-.5.43-.23.87-.45,1.31-.67.27-.14.54-.27.81-.4.36-.18.71-.35,1.07-.52,1.07-.52,2.15-1.01,3.25-1.49.23-.1.46-.2.7-.3.5-.22,1-.43,1.5-.63.37-.15.74-.3,1.11-.45.37-.15.74-.3,1.11-.44.37-.15.75-.29,1.12-.43.29-.11.58-.22.87-.32.3-.11.6-.22.91-.32.54-.19,1.08-.38,1.62-.56,1.14-.39,2.29-.75,3.45-1.1.77-.23,1.54-.45,2.32-.67.31-.09.62-.17.93-.25"/><path class="cls-9" d="m177.02,106.94h.01c3.49,1.15,7.05,2.37,10.68,3.64.42.15.83.29,1.24.44,5.06,1.78,9.97,3.57,14.64,5.35,6.72,2.54,12.97,5.05,18.58,7.43,17.63,7.48,28.88,13.7,28.06,16.03-1.18,3.37-25.64-4.53-57.78-15.7-2.48-.86-5-1.74-7.56-2.64l-.49-.17h0c-5.11-1.79-10.1-3.54-14.88-5.25-.65-.23-1.3-.46-1.94-.69-4.75-1.7-9.3-3.34-13.55-4.92h0"/><path class="cls-8" d="m217.3,112.71c-4.25,1.16-8.84,2.37-13.7,3.65-4.54,1.19-9.33,2.43-14.31,3.71-1.64.42-3.27.84-4.89,1.25h0c-3.74.95-7.43,1.89-11.03,2.8-1.77.44-3.51.88-5.23,1.31-17.65,4.39-32.78,7.89-41.27,9.09-4.27.61-6.87.63-7.26-.1-.87-1.63,8.68-5.74,24.13-10.72h0c4.83-1.56,10.23-3.21,16.06-4.9h0c3.12-.9,6.36-1.81,9.7-2.73,3.96-1.09,8.07-2.18,12.29-3.26,2.41-.62,4.8-1.22,7.15-1.8,3.82-.95,7.55-1.84,11.16-2.67"/><ellipse class="cls-7" cx="105.94" cy="82.19" rx="3.33" ry="2.89"/><ellipse class="cls-7" cx="241.24" cy="98.17" rx="3.33" ry="2.89"/><ellipse class="cls-7" cx="228.43" cy="71.98" rx="3.33" ry="2.89"/><ellipse class="cls-7" cx="260.2" cy="70.2" rx="3.33" ry="2.89"/><ellipse class="cls-7" cx="152.57" cy="71.98" rx="3.33" ry="2.89"/><ellipse class="cls-7" cx="136.17" cy="56.89" rx="3.33" ry="2.89"/><ellipse class="cls-7" cx="117.72" cy="95.5" rx="3.33" ry="2.89"/><g><path class="cls-17" d="m284.44,218.6c7.36,5.13,14.05,10.75,19.8,16.63,2.24,2.29,4.48,5.02,3.66,6.92-.9,2.08-4.91,2.08-8.43,1.88-7.97-.45-15.94-.9-23.9-1.36"/><path d="m283.43,220.33c6.99,4.88,13.62,10.34,19.55,16.47.63.66,1.27,1.33,1.83,2.05.43.56,1.24,1.51,1.25,2.27,0,.71-1.32.83-2,.91-1.84.22-3.74.05-5.59-.05-2.32-.13-4.65-.26-6.97-.4-5.31-.3-10.62-.6-15.94-.9-2.57-.15-2.56,3.85,0,4,5.31.3,10.62.6,15.94.9,2.66.15,5.31.31,7.97.45,2.07.11,4.18.18,6.22-.24,1.69-.35,3.33-1.22,4.04-2.87.82-1.9,0-3.99-1.1-5.59-2.61-3.82-6.41-7.01-9.86-10.05-4.23-3.72-8.69-7.18-13.31-10.41-2.11-1.48-4.11,1.99-2.02,3.45h0Z"/></g><g><path class="cls-13" d="m107.58,217.07c2.39,8.65,3.95,17.24,4.63,25.44.26,3.2.24,6.72-1.6,7.66-2.02,1.03-5.11-1.54-7.69-3.94-5.84-5.43-11.69-10.87-17.53-16.3"/><path d="m105.65,217.6c2.3,8.37,4.07,17.03,4.61,25.71.09,1.44.3,3.31-.31,4.67-.43.96-1.65,0-2.31-.42-1.63-1.05-3.01-2.45-4.42-3.76-1.7-1.59-3.41-3.17-5.11-4.76-3.77-3.51-7.55-7.02-11.32-10.53-1.88-1.75-4.71,1.07-2.82,2.82,3.84,3.57,7.67,7.13,11.51,10.7,1.89,1.75,3.77,3.51,5.66,5.26,1.63,1.51,3.32,3.14,5.31,4.18,1.63.85,3.6,1.33,5.28.34s2.25-2.86,2.47-4.65c.27-2.16.06-4.35-.15-6.51-.24-2.43-.55-4.84-.91-7.25-.86-5.7-2.1-11.33-3.62-16.89-.68-2.48-4.54-1.42-3.85,1.06h0Z"/></g><circle cx="313.8" cy="219.57" r="2.22"/><circle cx="312.91" cy="208.48" r="3.11"/><circle cx="320.24" cy="215.36" r="4.22"/><g><path d="m292,270.24c-.2.78,16.16,4.16,27.48,5.91.71.11,2.58-4.61,2.4-6.96-.05-.65-.19-1.56-1.41-2.89-1.18-1.29-2.77-2.36-4.24-2.61-6.1-1.05-11.35-1.95-15.18-2.93-.91-.23-2.19-.58-3.65-.13-2.02.63-3.96,2.4-4.57,3.38-1.48,2.38-.83,4.79-.81,6.1"/><path d="m291.38,270.24c-.04.89,1.6,1.18,2.2,1.36,2.1.62,4.26,1.09,6.4,1.56,6.01,1.31,12.06,2.43,18.14,3.4.91.14,1.62.44,2.27-.33.61-.73.96-1.73,1.28-2.62.74-2.09,1.38-4.61.11-6.63-.8-1.28-2.04-2.38-3.35-3.12-1.55-.88-3.36-1-5.09-1.3-3.41-.59-6.83-1.18-10.21-1.94-1.52-.34-3.1-.94-4.68-.81-1.67.13-3.18,1.01-4.45,2.06-1.16.96-2.05,2.09-2.48,3.56-.45,1.56-.19,3.1-.13,4.69.03.8,1.27.8,1.24,0-.1-2.6-.39-4.95,1.71-6.91.99-.93,2.28-1.81,3.64-2.09s2.79.23,4.14.55c2.64.62,5.31,1.11,7.99,1.59,3.02.54,6.6.55,9.02,2.63.94.81,1.91,1.84,2.09,3.12.14,1.03-.12,2.11-.39,3.09s-.59,1.91-1.06,2.79c-.13.23-.27.53-.47.61-.41.15-1.66-.26-2.08-.33-5.07-.83-10.12-1.77-15.15-2.83-2.17-.46-4.35-.93-6.5-1.48-.74-.19-1.48-.38-2.21-.62-.2-.07-.44-.2-.65-.23-.44-.05-.07-.36-.1.23.03-.8-1.21-.8-1.24,0h0Z"/></g></svg>