<?xml version="1.0" encoding="UTF-8"?><svg id="Ebene_1" xmlns="http://www.w3.org/2000/svg" xmlns:xlink="http://www.w3.org/1999/xlink" viewBox="0 0 400 300"><defs><style>.cls-1,.cls-2,.cls-3{fill:#fff;}.cls-4{stroke-width:2.82px;}.cls-4,.cls-5,.cls-6,.cls-7,.cls-8{fill:none;}.cls-4,.cls-6,.cls-3,.cls-9{stroke:#000;}.cls-2{stroke-width:.75px;}.cls-2,.cls-10{stroke:#fff;}.cls-5{stroke:#d9d9d9;}.cls-5,.cls-7,.cls-8{stroke-width:2.35px;}.cls-6,.cls-3,.cls-10{stroke-width:1.41px;}.cls-11{stroke:#fccc4a;stroke-miterlimit:10;stroke-width:.47px;}.cls-11,.cls-12,.cls-10{fill:#ffcd4b;}.cls-7{stroke-linecap:round;}.cls-7,.cls-8{stroke:#ffcd4b;}.cls-13{mask:url(#mask-1);}.cls-14{mask:url(#mask);}.cls-15{fill:#fbffc8;}.cls-16{fill:#d9d9d9;}.cls-9{stroke-width:.04px;}</style><mask id="mask" x="228.24" y="227.67" width="43.78" height="23.54" maskUnits="userSpaceOnUse"><g id="path-24-outside-1_729_299"><rect class="cls-1" x="228.24" y="227.67" width="43.78" height="23.54"/><path d="m231.98,249.52c-1.28,0-2.34-1.04-2.19-2.32.52-4.57,2.57-8.85,5.85-12.14,3.83-3.83,9.03-5.99,14.45-5.99s10.62,2.15,14.45,5.99c3.28,3.28,5.33,7.57,5.85,12.14.15,1.27-.91,2.32-2.19,2.32h0c-1.28,0-2.31-1.05-2.49-2.31-.49-3.33-2.04-6.44-4.46-8.85-2.96-2.96-6.98-4.63-11.17-4.63s-8.21,1.66-11.17,4.63c-2.41,2.41-3.96,5.52-4.46,8.85-.19,1.27-1.21,2.31-2.49,2.31h0Z"/></g></mask><mask id="mask-1" x="229.4" y="240.65" width="6.26" height="9.25" maskUnits="userSpaceOnUse"><g id="path-25-inside-2_729_299"><path class="cls-1" d="m231.98,249.52c-1.28,0-2.34-1.04-2.19-2.32.19-1.66.58-3.29,1.17-4.85.45-1.2,1.86-1.65,3.01-1.07h0c1.14.58,1.58,1.98,1.17,3.2-.3.89-.52,1.8-.66,2.73-.19,1.27-1.21,2.31-2.49,2.31h0Z"/></g></mask></defs><rect class="cls-3" x="2.06" y="25.03" width="181.22" height="249.95" rx="11.06" ry="11.06"/><path d="m24.72,53.14c.42,0,.78-.05,1.07-.15s.52-.24.69-.41c.18-.17.3-.37.37-.59.08-.23.12-.47.12-.72s-.04-.5-.13-.71c-.08-.21-.22-.4-.4-.54-.18-.15-.42-.27-.7-.35-.28-.08-.62-.12-1.03-.12h-2.3v3.59h2.3Zm-2.3-8.71v3.54h1.81c.78,0,1.37-.14,1.76-.42.4-.28.6-.73.6-1.35s-.18-1.09-.54-1.36c-.36-.27-.93-.41-1.69-.41h-1.94Zm1.94-1.76c.8,0,1.49.08,2.06.23s1.04.37,1.4.65c.37.28.64.62.8,1.03s.25.85.25,1.36c0,.29-.04.56-.13.83-.08.26-.22.51-.4.74-.18.23-.4.43-.68.62-.27.19-.6.34-.97.47,1.68.38,2.52,1.29,2.52,2.73,0,.52-.1,1-.3,1.44-.2.44-.49.82-.86,1.14-.38.32-.84.56-1.4.75-.55.18-1.19.27-1.9.27h-4.63v-12.25h4.22Zm8.62,3.56v8.69h-2.1v-8.69h2.1Zm.29-2.53c0,.18-.04.35-.11.51-.07.16-.17.3-.3.42-.12.12-.26.21-.42.29-.16.07-.34.1-.53.1s-.35-.03-.52-.1c-.16-.07-.3-.17-.42-.29-.12-.12-.21-.26-.29-.42-.07-.16-.1-.33-.1-.51s.03-.36.1-.53c.07-.16.17-.31.29-.42.12-.12.26-.21.42-.28.16-.07.34-.11.52-.11s.36.04.53.11c.16.07.31.16.42.28.12.12.22.26.3.42.07.16.11.34.11.53Zm7.3,4.75c-.24-.29-.5-.49-.78-.61-.28-.12-.58-.18-.9-.18s-.6.06-.86.18-.47.3-.65.54c-.18.24-.32.54-.42.92-.1.37-.14.8-.14,1.3s.04.94.12,1.3c.08.35.2.64.36.86.15.22.34.38.56.48.22.1.47.14.74.14.43,0,.8-.09,1.11-.27.31-.18.59-.44.86-.77v-3.9Zm2.09-6.12v12.59h-1.28c-.28,0-.45-.13-.53-.38l-.18-.84c-.35.4-.75.73-1.21.97-.45.25-.98.37-1.58.37-.47,0-.91-.1-1.3-.3-.4-.2-.74-.48-1.03-.86-.28-.38-.5-.84-.66-1.4-.15-.55-.23-1.19-.23-1.9,0-.64.09-1.24.26-1.8.18-.55.43-1.03.75-1.44s.72-.72,1.18-.95c.46-.23.97-.35,1.54-.35.49,0,.9.08,1.25.23.34.15.65.36.92.62v-4.58h2.09Zm7.67,7.24c0-.27-.04-.53-.12-.76-.07-.24-.19-.45-.34-.64-.15-.18-.35-.32-.58-.42-.23-.11-.5-.16-.81-.16-.6,0-1.08.17-1.43.52-.34.34-.56.83-.66,1.47h3.95Zm-3.99,1.26c.03.45.11.83.24,1.16.12.32.29.59.49.8.2.21.44.37.72.47.28.1.59.15.93.15s.63-.04.87-.12c.25-.08.46-.17.64-.26.19-.1.35-.18.48-.26.14-.08.28-.12.41-.12.18,0,.31.06.39.19l.6.76c-.23.27-.49.5-.78.69-.29.18-.59.33-.91.44-.31.11-.63.18-.96.23-.32.05-.64.07-.94.07-.6,0-1.17-.1-1.69-.3-.52-.2-.97-.5-1.36-.89-.38-.4-.69-.88-.91-1.46-.22-.58-.33-1.25-.33-2.02,0-.59.1-1.15.29-1.67.19-.53.47-.98.82-1.36.36-.39.8-.7,1.31-.92.52-.23,1.1-.34,1.75-.34.55,0,1.05.09,1.52.26.46.18.86.43,1.19.77.33.33.59.75.78,1.24.19.49.29,1.04.29,1.67,0,.32-.03.53-.1.64-.07.11-.2.16-.39.16h-5.38Zm9.4-3.54c.18-.18.36-.34.55-.48.2-.15.4-.28.62-.38.22-.11.45-.19.7-.25.25-.06.52-.09.81-.09.47,0,.9.08,1.26.25.37.16.67.38.92.68.25.29.43.64.56,1.04.13.4.19.84.19,1.33v5.53h-2.09v-5.53c0-.53-.12-.94-.36-1.23-.24-.29-.61-.44-1.11-.44-.36,0-.7.08-1.02.25-.32.16-.62.39-.9.67v6.29h-2.09v-8.69h1.28c.27,0,.45.13.53.38l.14.69Zm23.79-1.07l-2.76,8.69h-1.68c-.19,0-.32-.12-.4-.37l-1.56-5.02c-.05-.17-.1-.34-.14-.5-.04-.17-.07-.34-.1-.51-.03.17-.07.34-.12.52-.04.17-.08.34-.14.51l-1.58,5.01c-.07.25-.22.37-.45.37h-1.61l-2.75-8.69h1.67c.15,0,.28.04.39.11.11.07.18.17.21.28l1.25,4.64c.06.25.12.5.16.75.05.24.09.49.13.73.06-.24.13-.49.19-.73.07-.24.15-.49.23-.75l1.44-4.66c.03-.11.1-.21.19-.28.1-.07.22-.11.36-.11h.92c.15,0,.27.04.37.11.11.07.18.17.21.28l1.4,4.66c.07.25.14.51.2.75.07.24.13.49.19.73.07-.48.18-.97.31-1.48l1.28-4.64c.04-.11.11-.21.21-.28.1-.07.22-.11.36-.11h1.59Zm5.67,4.98c-.6.03-1.11.08-1.53.16-.41.07-.74.17-.99.29s-.43.26-.53.42-.16.33-.16.52c0,.37.11.63.32.79.22.16.51.24.86.24.43,0,.8-.08,1.11-.23.32-.16.62-.4.92-.71v-1.47Zm-4.8-3.77c1-.92,2.2-1.37,3.61-1.37.51,0,.96.08,1.36.25.4.16.74.4,1.02.69.28.29.49.65.63,1.06.15.41.22.86.22,1.36v5.49h-.95c-.2,0-.35-.03-.46-.08-.11-.06-.19-.18-.25-.36l-.19-.63c-.22.2-.43.37-.64.53-.21.15-.43.27-.65.37-.23.1-.47.18-.73.23-.25.06-.54.08-.85.08-.37,0-.71-.05-1.02-.14-.31-.1-.58-.25-.8-.45s-.4-.44-.53-.74c-.12-.29-.19-.64-.19-1.03,0-.22.04-.44.11-.65.07-.22.19-.43.36-.63.17-.2.39-.38.65-.56.27-.18.59-.33.97-.46.39-.13.84-.23,1.36-.31.51-.08,1.1-.14,1.76-.15v-.51c0-.58-.12-1.01-.37-1.29-.25-.28-.61-.42-1.08-.42-.34,0-.62.04-.85.12-.22.08-.42.17-.58.27-.17.1-.32.18-.47.26-.14.08-.29.12-.46.12-.15,0-.27-.04-.37-.11-.1-.08-.18-.17-.25-.27l-.37-.67Zm10.77-.14c.18-.18.36-.34.55-.48.2-.15.4-.28.62-.38.22-.11.45-.19.7-.25.25-.06.52-.09.81-.09.47,0,.9.08,1.26.25.37.16.67.38.92.68.25.29.43.64.56,1.04.13.4.19.84.19,1.33v5.53h-2.09v-5.53c0-.53-.12-.94-.36-1.23-.24-.29-.61-.44-1.11-.44-.36,0-.7.08-1.02.25-.32.16-.62.39-.9.67v6.29h-2.09v-8.69h1.28c.27,0,.45.13.53.38l.14.69Zm10.39,7.76c-.76,0-1.34-.21-1.75-.64-.4-.43-.6-1.02-.6-1.77v-4.85h-.89c-.11,0-.21-.04-.29-.11-.08-.07-.12-.18-.12-.33v-.83l1.4-.23.44-2.37c.03-.11.08-.2.16-.26s.18-.09.31-.09h1.08v2.74h2.32v1.49h-2.32v4.71c0,.27.06.48.19.64.14.15.32.23.55.23.13,0,.24-.01.32-.04.09-.03.17-.07.23-.1.07-.03.13-.06.18-.09.05-.03.1-.05.15-.05.06,0,.11.02.15.05.04.03.08.07.13.14l.63,1.02c-.31.25-.66.45-1.05.58-.4.13-.8.19-1.23.19Zm8.71-7.13c-.06.09-.12.16-.18.19-.06.03-.14.05-.24.05-.1,0-.21-.03-.33-.08-.11-.06-.25-.12-.4-.19-.15-.07-.33-.14-.53-.19-.19-.06-.42-.08-.69-.08-.41,0-.74.09-.97.26-.23.18-.35.4-.35.69,0,.19.06.34.18.47.12.12.29.23.48.33.2.1.43.18.69.26.25.07.51.16.77.25.27.09.53.19.78.31.25.11.48.26.68.44.2.18.36.39.48.64.12.25.19.55.19.9,0,.42-.08.8-.23,1.16-.15.35-.37.66-.66.92-.29.25-.66.45-1.09.6-.43.14-.93.21-1.49.21-.3,0-.59-.03-.88-.08-.28-.05-.56-.12-.82-.22-.26-.1-.5-.21-.73-.34-.22-.13-.42-.27-.58-.42l.48-.8c.06-.1.14-.17.22-.22.08-.05.19-.08.32-.08s.25.04.36.11c.12.07.25.15.41.24s.33.16.53.24c.21.07.47.11.79.11.25,0,.46-.03.64-.08.18-.06.33-.14.44-.24.12-.1.2-.21.25-.33.06-.13.08-.26.08-.4,0-.2-.06-.37-.19-.5-.12-.13-.28-.24-.48-.34-.2-.1-.43-.18-.69-.25-.25-.08-.52-.16-.79-.25-.27-.09-.53-.19-.79-.31-.25-.12-.48-.28-.69-.47-.2-.19-.36-.42-.48-.69-.12-.27-.18-.6-.18-.98,0-.36.07-.69.21-1.02.14-.32.35-.6.62-.84.28-.24.62-.43,1.03-.58.41-.15.89-.22,1.42-.22.6,0,1.14.1,1.64.3.49.2.9.46,1.23.78l-.47.75Zm9.16,7.13c-.76,0-1.34-.21-1.75-.64-.4-.43-.6-1.02-.6-1.77v-4.85h-.89c-.11,0-.21-.04-.29-.11-.08-.07-.12-.18-.12-.33v-.83l1.4-.23.44-2.37c.03-.11.08-.2.16-.26.08-.06.18-.09.31-.09h1.08v2.74h2.32v1.49h-2.32v4.71c0,.27.06.48.19.64.14.15.32.23.55.23.13,0,.24-.01.32-.04.09-.03.17-.07.23-.1.07-.03.13-.06.18-.09.05-.03.1-.05.15-.05.06,0,.11.02.15.05.04.03.08.07.13.14l.63,1.02c-.31.25-.66.45-1.05.58s-.8.19-1.23.19Zm7.19-8.96c.64,0,1.23.1,1.75.31.53.21.98.51,1.36.89.38.38.67.85.87,1.41.2.55.31,1.17.31,1.86s-.1,1.31-.31,1.86c-.2.55-.49,1.03-.87,1.41-.37.39-.82.69-1.36.9-.53.21-1.11.31-1.75.31s-1.24-.1-1.77-.31c-.53-.21-.99-.51-1.36-.9-.37-.39-.66-.86-.87-1.41-.2-.55-.31-1.17-.31-1.86s.1-1.3.31-1.86c.21-.55.5-1.02.87-1.41.38-.38.83-.68,1.36-.89.53-.21,1.12-.31,1.77-.31Zm0,7.35c.72,0,1.26-.24,1.6-.73.35-.49.53-1.2.53-2.14s-.18-1.65-.53-2.14c-.34-.49-.88-.74-1.6-.74s-1.28.25-1.64.75c-.35.49-.53,1.2-.53,2.14s.18,1.64.53,2.14c.36.49.9.73,1.64.73Zm-104.85,12.69c.18-.18.36-.34.55-.48.2-.15.4-.28.62-.38.22-.11.45-.19.7-.25.25-.06.52-.09.81-.09.47,0,.9.08,1.26.25.37.16.67.38.92.68.25.29.43.64.56,1.04.13.4.19.84.19,1.33v5.53h-2.09v-5.53c0-.53-.12-.94-.36-1.23-.24-.29-.61-.44-1.11-.44-.36,0-.7.08-1.02.25s-.62.39-.9.67v6.29h-2.09v-8.69h1.28c.27,0,.45.13.53.38l.14.69Zm15.1-1.07v8.69h-1.28c-.28,0-.45-.13-.53-.38l-.14-.69c-.36.36-.75.66-1.18.88-.43.22-.93.33-1.52.33-.47,0-.9-.08-1.26-.24-.36-.16-.67-.39-.92-.69-.25-.29-.44-.64-.57-1.04-.12-.41-.19-.85-.19-1.34v-5.52h2.09v5.52c0,.53.12.94.36,1.24.25.29.62.43,1.11.43.36,0,.7-.08,1.02-.24.32-.16.62-.39.9-.67v-6.29h2.09Zm4.17-3.9v7.21h.39c.14,0,.25-.02.33-.05.08-.04.17-.12.25-.23l2.16-2.67c.09-.12.19-.21.3-.27.11-.06.26-.09.43-.09h1.91l-2.7,3.23c-.19.25-.4.45-.63.58.12.08.22.18.31.3.1.11.19.23.27.36l2.9,4.22h-1.89c-.16,0-.31-.03-.42-.08-.12-.06-.22-.16-.3-.3l-2.22-3.3c-.08-.13-.16-.21-.25-.25s-.21-.06-.38-.06h-.47v3.98h-2.09v-12.59h2.09Zm12.11,7.24c0-.27-.04-.53-.12-.76-.07-.24-.19-.45-.34-.64-.15-.18-.35-.32-.58-.42-.23-.11-.5-.16-.81-.16-.6,0-1.08.17-1.43.52-.34.34-.56.83-.66,1.47h3.95Zm-3.99,1.26c.03.45.11.83.24,1.16.12.32.29.59.49.8.2.21.44.37.72.47.28.1.59.15.93.15s.63-.04.87-.12c.25-.08.46-.17.64-.26.19-.1.35-.18.48-.26.14-.08.28-.12.41-.12.18,0,.31.06.39.19l.6.76c-.23.27-.49.5-.78.69-.29.18-.59.33-.91.44-.31.11-.63.18-.96.23-.32.05-.64.07-.94.07-.6,0-1.17-.1-1.69-.3-.52-.2-.97-.5-1.36-.89-.38-.4-.69-.88-.91-1.46-.22-.58-.33-1.25-.33-2.02,0-.59.1-1.15.29-1.67.19-.53.47-.98.82-1.36.36-.39.8-.7,1.31-.92.52-.23,1.1-.34,1.75-.34.55,0,1.05.09,1.52.26s.86.43,1.19.77c.33.33.59.75.78,1.24.19.49.29,1.04.29,1.67,0,.32-.03.53-.1.64-.07.11-.2.16-.39.16h-5.38Zm20.31,1.19c.12,0,.23.05.33.14l.9.97c-.5.62-1.11,1.09-1.84,1.41-.72.33-1.59.49-2.61.49-.91,0-1.73-.16-2.46-.47-.72-.31-1.34-.74-1.86-1.3-.51-.55-.91-1.21-1.19-1.98-.27-.77-.41-1.61-.41-2.52s.15-1.76.44-2.52c.29-.77.71-1.43,1.24-1.98.54-.55,1.17-.98,1.91-1.29.74-.31,1.56-.47,2.46-.47s1.68.15,2.37.44c.69.29,1.29.68,1.77,1.15l-.76,1.06c-.05.07-.1.13-.18.18-.07.05-.16.08-.29.08-.08,0-.17-.02-.26-.07-.09-.05-.19-.11-.3-.18-.11-.07-.23-.15-.37-.24s-.31-.16-.49-.23c-.19-.07-.4-.13-.65-.18-.24-.05-.53-.08-.85-.08-.55,0-1.05.1-1.51.3-.45.19-.84.47-1.17.85-.33.37-.58.82-.76,1.36-.18.53-.27,1.14-.27,1.82s.1,1.3.29,1.84c.2.54.46.99.8,1.36.33.37.73.65,1.18.85.45.19.94.29,1.46.29.31,0,.59-.02.84-.05.25-.03.49-.09.69-.16.21-.07.42-.17.6-.28.19-.12.38-.26.57-.43.06-.05.12-.09.18-.12.06-.03.13-.05.19-.05Zm4.55-4.87c.34-.32.71-.57,1.12-.77.41-.2.88-.3,1.43-.3.47,0,.9.08,1.26.25.37.16.67.38.92.68.25.29.43.64.56,1.04.13.4.19.84.19,1.33v5.53h-2.09v-5.53c0-.53-.12-.94-.36-1.23-.24-.29-.61-.44-1.11-.44-.36,0-.7.08-1.02.25s-.62.39-.9.67v6.29h-2.09v-12.59h2.09v4.83Zm9.64-.93v8.69h-2.1v-8.69h2.1Zm.29-2.53c0,.18-.04.35-.11.51-.07.16-.17.3-.3.42-.12.12-.26.21-.42.29-.16.07-.34.1-.53.1s-.35-.03-.52-.1c-.16-.07-.3-.17-.42-.29-.12-.12-.21-.26-.29-.42-.07-.16-.1-.33-.1-.51s.03-.36.1-.53c.07-.16.17-.31.29-.42.12-.12.26-.21.42-.28.16-.07.34-.11.52-.11s.36.04.53.11c.16.07.31.16.42.28.12.12.22.26.3.42.07.16.11.34.11.53Zm3.8,3.6c.18-.18.36-.34.55-.48.2-.15.4-.28.62-.38.22-.11.45-.19.7-.25.25-.06.52-.09.81-.09.47,0,.9.08,1.26.25.37.16.67.38.92.68.25.29.43.64.56,1.04.13.4.19.84.19,1.33v5.53h-2.09v-5.53c0-.53-.12-.94-.36-1.23-.24-.29-.61-.44-1.11-.44-.36,0-.7.08-1.02.25s-.62.39-.9.67v6.29h-2.09v-8.69h1.28c.27,0,.45.13.53.38l.14.69Zm12.2,3.91c-.6.03-1.11.08-1.53.16-.41.07-.74.17-.99.29s-.43.26-.53.42c-.11.16-.16.33-.16.52,0,.37.11.63.32.79.22.16.51.24.86.24.43,0,.8-.08,1.11-.23.32-.16.62-.4.92-.71v-1.47Zm-4.8-3.77c1-.92,2.2-1.37,3.61-1.37.51,0,.96.08,1.36.25.4.16.74.4,1.02.69.28.29.49.65.63,1.06.15.41.22.86.22,1.36v5.49h-.95c-.2,0-.35-.03-.46-.08-.11-.06-.19-.18-.25-.36l-.19-.63c-.22.2-.43.37-.64.53-.21.15-.43.27-.65.37-.23.1-.47.18-.73.23-.25.06-.54.08-.85.08-.37,0-.71-.05-1.02-.14-.31-.1-.58-.25-.8-.45-.23-.2-.4-.44-.53-.74-.12-.29-.19-.64-.19-1.03,0-.22.04-.44.11-.65.07-.22.19-.43.36-.63.17-.2.39-.38.65-.56s.59-.33.97-.46c.39-.13.84-.23,1.36-.31.51-.08,1.1-.14,1.76-.15v-.51c0-.58-.12-1.01-.37-1.29-.25-.28-.61-.42-1.08-.42-.34,0-.62.04-.85.12-.22.08-.42.17-.58.27-.17.1-.32.18-.47.26-.14.08-.29.12-.46.12-.15,0-.27-.04-.37-.11-.1-.08-.18-.17-.25-.27l-.37-.67Zm11.15-4.77v4.85c0,.51-.03,1.02-.08,1.52-.05.49-.12,1.01-.19,1.57h-1.42c-.08-.55-.14-1.08-.19-1.57-.05-.5-.08-1-.08-1.52v-4.85h1.97Zm-2.3,11.1c0-.18.03-.34.09-.5.07-.16.16-.29.27-.41.12-.11.26-.2.42-.27.16-.07.33-.1.51-.1s.34.03.5.1c.16.07.29.16.41.27.12.11.21.25.28.41s.1.32.1.5-.03.35-.1.51c-.07.15-.16.29-.28.4-.11.11-.25.2-.41.26-.16.07-.32.1-.5.1s-.35-.03-.51-.1c-.16-.06-.3-.15-.42-.26-.11-.11-.2-.25-.27-.4-.06-.16-.09-.33-.09-.51Z"/><path class="cls-16" d="m19.95,85.04h126.62c1.69,0,3.06,1.37,3.06,3.06h0c0,1.69-1.37,3.06-3.06,3.06H19.95c-1.69,0-3.06-1.37-3.06-3.06h0c0-1.69,1.37-3.06,3.06-3.06Z"/><path class="cls-16" d="m19.95,164.12h126.62c1.69,0,3.06,1.37,3.06,3.06h0c0,1.69-1.37,3.06-3.06,3.06H19.95c-1.69,0-3.06-1.37-3.06-3.06h0c0-1.69,1.37-3.06,3.06-3.06Z"/><path class="cls-12" d="m19.95,178.24h135.09c1.69,0,3.06,1.37,3.06,3.06h0c0,1.69-1.37,3.06-3.06,3.06H19.95c-1.69,0-3.06-1.37-3.06-3.06h0c0-1.69,1.37-3.06,3.06-3.06Z"/><path class="cls-12" d="m19.95,192.36h135.09c1.69,0,3.06,1.37,3.06,3.06h0c0,1.69-1.37,3.06-3.06,3.06H19.95c-1.69,0-3.06-1.37-3.06-3.06h0c0-1.69,1.37-3.06,3.06-3.06Z"/><path class="cls-16" d="m19.95,206.49h126.62c1.69,0,3.06,1.37,3.06,3.06h0c0,1.69-1.37,3.06-3.06,3.06H19.95c-1.69,0-3.06-1.37-3.06-3.06h0c0-1.69,1.37-3.06,3.06-3.06Z"/><path class="cls-16" d="m19.95,220.61h126.62c1.69,0,3.06,1.37,3.06,3.06h0c0,1.69-1.37,3.06-3.06,3.06H19.95c-1.69,0-3.06-1.37-3.06-3.06h0c0-1.69,1.37-3.06,3.06-3.06Z"/><path class="cls-16" d="m19.95,234.73h135.09c1.69,0,3.06,1.37,3.06,3.06h0c0,1.69-1.37,3.06-3.06,3.06H19.95c-1.69,0-3.06-1.37-3.06-3.06h0c0-1.69,1.37-3.06,3.06-3.06Z"/><path class="cls-16" d="m19.95,248.85h100.73c1.69,0,3.06,1.37,3.06,3.06h0c0,1.69-1.37,3.06-3.06,3.06H19.95c-1.69,0-3.06-1.37-3.06-3.06h0c0-1.69,1.37-3.06,3.06-3.06Z"/><rect class="cls-5" x="17.6" y="102.69" width="139.33" height="48.48" rx="3.53" ry="3.53"/><path class="cls-16" d="m60.39,121.05c.54-.94,1.9-.94,2.45,0l16.31,28.24c.54.94-.14,2.12-1.22,2.12h-32.61c-1.09,0-1.77-1.18-1.22-2.12l16.31-28.24Z"/><circle class="cls-16" cx="89.85" cy="122.23" r="12.24"/><rect class="cls-1" x="256.25" y="157.77" width="101.74" height="43.78" rx="11.06" ry="11.06"/><rect class="cls-12" x="263.08" y="164.59" width="88.09" height="30.13" rx="5.65" ry="5.65"/><path d="m288.05,184.47c.42,0,.78-.05,1.07-.15s.52-.24.69-.41c.18-.17.3-.37.37-.59.08-.23.12-.47.12-.72s-.04-.5-.13-.71c-.08-.21-.22-.4-.4-.54-.18-.15-.42-.27-.7-.35-.28-.08-.62-.12-1.03-.12h-2.3v3.59h2.3Zm-2.3-8.71v3.54h1.81c.78,0,1.37-.14,1.76-.42.4-.28.6-.73.6-1.35s-.18-1.09-.54-1.36c-.36-.27-.93-.41-1.69-.41h-1.94Zm1.94-1.76c.8,0,1.49.08,2.06.23.57.15,1.04.37,1.4.65.37.28.64.62.8,1.03.17.4.25.85.25,1.36,0,.29-.04.56-.13.83-.08.26-.22.51-.4.74-.18.23-.4.43-.68.62-.27.19-.6.34-.97.47,1.68.38,2.52,1.29,2.52,2.73,0,.52-.1,1-.3,1.44-.2.44-.49.82-.86,1.14-.38.32-.84.56-1.4.75s-1.19.27-1.9.27h-4.63v-12.25h4.22Zm8.62,3.56v8.69h-2.1v-8.69h2.1Zm.29-2.53c0,.18-.04.35-.11.51s-.17.3-.3.42c-.12.12-.26.21-.42.29-.16.07-.34.1-.53.1s-.35-.03-.52-.1c-.16-.07-.3-.17-.42-.29s-.21-.26-.29-.42c-.07-.16-.1-.33-.1-.51s.03-.36.1-.53c.07-.16.17-.31.29-.42.12-.12.26-.21.42-.28.16-.07.34-.11.52-.11s.36.04.53.11c.16.07.31.16.42.28.12.12.22.26.3.42s.11.34.11.53Zm6.44,7.52c-.6.03-1.11.08-1.53.16-.41.07-.74.17-.99.29-.25.12-.43.26-.53.42-.11.16-.16.33-.16.52,0,.37.11.63.32.79.22.16.51.24.86.24.43,0,.8-.08,1.11-.23.32-.16.62-.4.92-.71v-1.47Zm-4.8-3.77c1-.92,2.2-1.37,3.61-1.37.51,0,.96.08,1.36.25.4.16.74.4,1.02.69.28.29.49.65.63,1.06.15.41.22.86.22,1.36v5.49h-.95c-.2,0-.35-.03-.46-.08-.11-.06-.19-.18-.25-.36l-.19-.63c-.22.2-.43.37-.64.53-.21.15-.43.27-.65.37-.23.1-.47.18-.73.23-.25.06-.54.08-.85.08-.37,0-.71-.05-1.02-.14-.31-.1-.58-.25-.8-.45-.23-.2-.4-.44-.53-.74-.12-.29-.19-.64-.19-1.03,0-.22.04-.44.11-.65.07-.22.19-.43.36-.63.17-.2.39-.38.65-.56.27-.18.59-.33.97-.46.39-.13.84-.23,1.36-.31.51-.08,1.1-.14,1.76-.15v-.51c0-.58-.12-1.01-.37-1.29-.25-.28-.61-.42-1.08-.42-.34,0-.62.04-.85.12-.22.08-.42.17-.58.27-.17.1-.32.18-.47.26-.14.08-.29.12-.46.12-.15,0-.27-.04-.37-.11-.1-.08-.18-.17-.25-.27l-.37-.67Zm14.11.48c-.06.09-.12.16-.18.19-.06.03-.14.05-.24.05-.1,0-.21-.03-.33-.08-.11-.06-.25-.12-.4-.19-.15-.07-.33-.14-.53-.19-.19-.06-.42-.08-.69-.08-.41,0-.74.09-.97.26-.23.18-.35.4-.35.69,0,.19.06.34.18.47.12.12.29.23.48.33.2.1.43.18.69.26.25.07.51.16.77.25.27.09.53.19.78.31.25.11.48.26.68.44.2.18.36.39.48.64.12.25.19.55.19.9,0,.42-.08.8-.23,1.16-.15.35-.37.66-.66.92-.29.25-.66.45-1.09.6-.43.14-.93.21-1.49.21-.3,0-.59-.03-.88-.08-.28-.05-.56-.12-.82-.22-.26-.1-.5-.21-.73-.34-.22-.13-.42-.27-.58-.42l.48-.8c.06-.1.14-.17.22-.22.08-.05.19-.08.32-.08s.25.04.36.11c.12.07.25.15.41.24.15.08.33.16.53.24.21.07.47.11.79.11.25,0,.46-.03.64-.08.18-.06.33-.14.44-.24.12-.1.2-.21.25-.33.06-.13.08-.26.08-.4,0-.2-.06-.37-.19-.5-.12-.13-.28-.24-.48-.34-.2-.1-.43-.18-.69-.25-.25-.08-.52-.16-.79-.25-.27-.09-.53-.19-.79-.31-.25-.12-.48-.28-.69-.47-.2-.19-.36-.42-.48-.69-.12-.27-.18-.6-.18-.98,0-.36.07-.69.21-1.02.14-.32.35-.6.62-.84.28-.24.62-.43,1.03-.58.41-.15.89-.22,1.42-.22.6,0,1.14.1,1.64.3.49.2.9.46,1.23.78l-.47.75Zm7.74,1.65c0-.27-.04-.53-.12-.76-.07-.24-.19-.45-.34-.64-.15-.18-.35-.32-.58-.42-.23-.11-.5-.16-.81-.16-.6,0-1.08.17-1.43.52-.34.34-.56.83-.66,1.47h3.95Zm-3.99,1.26c.03.45.11.83.24,1.16.12.32.29.59.49.8.2.21.44.37.72.47.28.1.59.15.93.15s.63-.04.87-.12c.25-.08.46-.17.64-.26.19-.1.35-.18.48-.26.14-.08.28-.12.41-.12.18,0,.31.06.39.19l.6.76c-.23.27-.49.5-.78.69-.29.18-.59.33-.91.44-.31.11-.63.18-.96.23-.32.05-.64.07-.94.07-.6,0-1.17-.1-1.69-.3-.52-.2-.97-.5-1.36-.89-.38-.4-.69-.88-.91-1.46-.22-.58-.33-1.25-.33-2.02,0-.59.1-1.15.29-1.67.19-.53.47-.98.82-1.36.36-.39.8-.7,1.31-.92.52-.23,1.1-.34,1.75-.34.55,0,1.05.09,1.52.26.46.18.86.43,1.19.77.33.33.59.75.78,1.24.19.49.29,1.04.29,1.67,0,.32-.03.53-.1.64-.07.11-.2.16-.39.16h-5.38Zm12.9-2.39c-.24-.29-.5-.49-.78-.61-.28-.12-.58-.18-.9-.18s-.6.06-.86.18c-.25.12-.47.3-.65.54-.18.24-.32.54-.42.92-.1.37-.14.8-.14,1.3s.04.94.12,1.3c.08.35.2.64.36.86.15.22.34.38.56.48.22.1.47.14.74.14.43,0,.8-.09,1.11-.27.31-.18.59-.44.86-.77v-3.9Zm2.09-6.12v12.59h-1.28c-.28,0-.45-.13-.53-.38l-.18-.84c-.35.4-.75.73-1.21.97-.45.25-.98.37-1.58.37-.47,0-.91-.1-1.3-.3-.4-.2-.74-.48-1.03-.86-.28-.38-.5-.84-.66-1.4-.15-.55-.23-1.19-.23-1.9,0-.64.09-1.24.26-1.8s.43-1.03.75-1.44c.33-.41.72-.72,1.18-.95.46-.23.97-.35,1.54-.35.49,0,.9.08,1.25.23s.65.36.92.62v-4.58h2.09Z"/><rect class="cls-6" x="256.25" y="157.77" width="101.74" height="43.78" rx="11.06" ry="11.06"/><circle class="cls-8" cx="158.11" cy="181.07" r="8.24"/><circle class="cls-10" cx="158.11" cy="181.07" r="3.53"/><line class="cls-8" x1="158.11" y1="180.83" x2="255.54" y2="180.83"/><rect class="cls-1" x="207.77" y="219.43" width="84.26" height="55.54" rx="11.06" ry="11.06"/><path d="m227.01,260.45v8.17h-1.34v-5.28c0-.21.01-.44.03-.68l-2.47,4.64c-.12.22-.3.33-.54.33h-.21c-.24,0-.42-.11-.54-.33l-2.5-4.65c.01.12.02.25.03.37,0,.12.01.23.01.33v5.28h-1.34v-8.17h1.15c.07,0,.13,0,.18,0s.09.01.13.03c.04.02.08.04.11.07.03.03.07.08.1.14l2.45,4.54c.06.12.12.24.18.37.06.13.11.26.16.4.05-.14.11-.27.16-.4.06-.13.12-.26.18-.38l2.41-4.52c.03-.06.06-.1.1-.14.03-.03.07-.06.11-.07.04-.02.09-.02.14-.03s.11,0,.18,0h1.15Zm5.16,4.6c0-.18-.03-.35-.08-.51-.05-.16-.12-.3-.23-.42s-.23-.21-.39-.28c-.15-.07-.34-.11-.54-.11-.4,0-.72.11-.95.34-.23.23-.38.56-.44.98h2.63Zm-2.66.84c.02.3.08.56.16.77.08.21.19.39.33.54.14.14.3.24.48.32.19.07.4.1.62.1s.42-.03.58-.08c.17-.05.31-.11.43-.18.12-.06.23-.12.32-.18.09-.05.18-.08.27-.08.12,0,.2.04.26.13l.4.51c-.15.18-.33.33-.52.46-.19.12-.39.22-.6.29-.21.07-.42.12-.64.15-.21.03-.42.05-.63.05-.4,0-.78-.07-1.12-.2-.35-.14-.65-.33-.9-.59-.26-.26-.46-.59-.6-.97-.15-.39-.22-.84-.22-1.34,0-.4.06-.77.19-1.11.13-.35.31-.65.55-.91.24-.26.53-.47.88-.62.35-.15.74-.23,1.17-.23.37,0,.7.06,1.01.18.31.12.57.29.8.51.22.22.4.5.52.82.13.32.19.69.19,1.11,0,.21-.02.35-.07.43-.05.07-.13.11-.26.11h-3.59Zm8.6-1.59c-.16-.19-.33-.33-.52-.41-.18-.08-.38-.12-.6-.12s-.4.04-.57.12-.31.2-.43.36c-.12.16-.21.36-.28.61-.06.24-.1.53-.1.87s.03.63.08.86c.06.23.14.43.24.58.1.15.23.25.37.32.15.06.31.1.49.1.29,0,.54-.06.74-.18.2-.12.4-.29.58-.51v-2.6Zm1.4-4.08v8.39h-.85c-.18,0-.3-.08-.35-.25l-.12-.56c-.23.27-.5.48-.81.65-.3.17-.65.25-1.06.25-.32,0-.61-.07-.87-.2-.26-.13-.49-.32-.68-.57-.19-.25-.34-.56-.44-.93-.1-.37-.15-.79-.15-1.27,0-.43.06-.83.18-1.2.12-.37.28-.69.5-.96.22-.27.48-.48.79-.63.31-.15.65-.23,1.03-.23.32,0,.6.05.83.15s.43.24.62.41v-3.06h1.4Zm2.82,2.6v5.8h-1.4v-5.8h1.4Zm.19-1.69c0,.12-.02.23-.07.34s-.11.2-.2.28c-.08.08-.17.14-.28.19-.11.05-.23.07-.35.07s-.24-.02-.34-.07c-.11-.05-.2-.11-.28-.19s-.14-.17-.19-.28c-.05-.11-.07-.22-.07-.34s.02-.24.07-.35c.05-.11.11-.2.19-.28s.17-.14.28-.19c.11-.05.22-.07.34-.07s.24.02.35.07c.11.05.2.11.28.19.08.08.15.17.2.28.05.11.07.23.07.35Zm6.22,1.69v5.8h-.85c-.18,0-.3-.08-.35-.25l-.1-.46c-.24.24-.5.44-.79.59-.29.15-.62.22-1.01.22-.32,0-.6-.05-.84-.16-.24-.11-.44-.26-.61-.46-.17-.2-.29-.43-.38-.69-.08-.27-.12-.57-.12-.89v-3.68h1.4v3.68c0,.35.08.63.24.82.17.19.41.29.74.29.24,0,.47-.05.68-.16.21-.11.41-.26.6-.45v-4.19h1.4Zm1.38,5.8v-5.8h.85c.18,0,.3.08.36.25l.09.43c.1-.11.21-.22.32-.31.11-.09.23-.18.36-.24.13-.07.26-.12.41-.16.15-.04.31-.06.48-.06.37,0,.66.1.9.3.24.2.41.46.53.79.09-.19.2-.36.34-.49.14-.14.28-.25.45-.34.16-.09.33-.15.51-.19.18-.04.37-.06.55-.06.32,0,.6.05.85.15.25.1.46.24.63.43.17.19.3.42.38.69.09.27.14.58.14.93v3.69h-1.4v-3.69c0-.37-.08-.65-.24-.83-.16-.19-.4-.28-.71-.28-.14,0-.28.02-.4.07-.12.05-.23.12-.32.21-.09.09-.16.21-.21.34-.05.14-.08.3-.08.48v3.69h-1.4v-3.69c0-.39-.08-.67-.24-.85-.15-.18-.38-.27-.68-.27-.2,0-.39.05-.57.15-.17.1-.34.23-.49.41v4.24h-1.4Zm15.49-1.19c.28,0,.52-.03.71-.1.19-.07.34-.16.46-.27.12-.11.2-.24.25-.4.05-.15.08-.31.08-.48s-.03-.34-.08-.47c-.06-.14-.14-.26-.27-.36-.12-.1-.28-.18-.47-.23-.19-.05-.42-.08-.68-.08h-1.53v2.39h1.54Zm-1.54-5.81v2.36h1.21c.52,0,.91-.09,1.17-.28.27-.19.4-.49.4-.9s-.12-.73-.36-.91c-.24-.18-.62-.27-1.13-.27h-1.29Zm1.29-1.17c.53,0,.99.05,1.37.15.38.1.69.25.93.43.24.19.42.42.54.68.11.27.17.57.17.9,0,.19-.03.38-.08.55-.06.17-.15.34-.27.49-.12.15-.27.29-.45.41-.18.12-.4.23-.65.32,1.12.25,1.68.86,1.68,1.82,0,.35-.07.67-.2.96-.13.29-.32.55-.58.76-.25.21-.56.38-.93.5-.37.12-.79.18-1.27.18h-3.08v-8.17h2.81Zm5.75,2.37v5.8h-1.4v-5.8h1.4Zm.19-1.69c0,.12-.02.23-.07.34s-.11.2-.2.28c-.08.08-.17.14-.28.19-.11.05-.23.07-.35.07s-.24-.02-.34-.07c-.11-.05-.2-.11-.28-.19-.08-.08-.14-.17-.19-.28-.05-.11-.07-.22-.07-.34s.02-.24.07-.35c.05-.11.11-.2.19-.28.08-.08.17-.14.28-.19.11-.05.22-.07.34-.07s.24.02.35.07c.11.05.2.11.28.19.08.08.15.17.2.28.05.11.07.23.07.35Zm4.29,5.01c-.4.02-.74.05-1.02.11-.27.05-.5.11-.66.19-.17.08-.28.17-.36.28s-.11.22-.11.34c0,.24.07.42.21.53.15.11.34.16.57.16.29,0,.53-.05.74-.15.21-.11.42-.26.62-.47v-.98Zm-3.2-2.51c.67-.61,1.47-.92,2.41-.92.34,0,.64.06.91.17.27.11.49.26.68.46.18.2.32.43.42.71.1.27.15.58.15.9v3.66h-.63c-.13,0-.23-.02-.31-.06-.07-.04-.13-.12-.17-.24l-.12-.42c-.15.13-.29.25-.43.35-.14.1-.28.18-.43.25-.15.07-.31.12-.49.15-.17.04-.36.06-.56.06-.24,0-.47-.03-.68-.1-.21-.07-.39-.17-.54-.3-.15-.13-.27-.3-.35-.49-.08-.2-.12-.42-.12-.68,0-.15.02-.29.07-.43.05-.15.13-.29.24-.42.11-.13.26-.26.43-.37.18-.12.39-.22.65-.31.26-.09.56-.16.9-.21.34-.06.73-.09,1.17-.1v-.34c0-.39-.08-.67-.25-.86-.17-.19-.4-.28-.72-.28-.23,0-.41.03-.56.08-.15.05-.28.11-.39.18-.11.06-.22.12-.31.18-.09.05-.19.08-.31.08-.1,0-.18-.02-.25-.07-.07-.05-.12-.11-.16-.18l-.25-.45Zm9.41.32c-.04.06-.08.1-.12.13-.04.02-.09.03-.16.03-.07,0-.14-.02-.22-.06-.08-.04-.16-.08-.27-.12-.1-.05-.22-.09-.35-.13-.13-.04-.28-.06-.46-.06-.27,0-.49.06-.65.18-.15.12-.23.27-.23.46,0,.12.04.23.12.32.08.08.19.16.32.22.14.06.29.12.46.18.17.05.34.1.51.16.18.06.35.13.52.21.17.08.32.17.45.29.14.12.24.26.32.42.08.17.12.37.12.6,0,.28-.05.54-.15.77-.1.23-.24.44-.44.61-.2.17-.44.3-.73.4-.29.09-.62.14-.99.14-.2,0-.4-.02-.59-.06-.19-.03-.37-.08-.55-.15-.17-.06-.34-.14-.49-.23-.15-.09-.28-.18-.39-.28l.32-.53c.04-.06.09-.11.15-.15.06-.03.13-.05.21-.05s.17.02.24.07c.08.05.17.1.27.16s.22.11.36.16c.14.05.31.07.53.07.17,0,.31-.02.42-.06.12-.04.22-.09.29-.16.08-.06.14-.14.17-.22.04-.09.06-.18.06-.27,0-.14-.04-.25-.12-.33-.08-.09-.19-.16-.32-.23-.13-.06-.28-.12-.46-.17-.17-.05-.34-.11-.53-.17-.18-.06-.35-.13-.53-.21-.17-.08-.32-.19-.46-.31-.13-.12-.24-.28-.32-.46-.08-.18-.12-.4-.12-.66,0-.24.05-.46.14-.68.09-.21.23-.4.41-.56.18-.16.41-.29.68-.38.27-.1.59-.15.95-.15.4,0,.76.07,1.09.2.33.13.6.31.82.52l-.32.5Z"/><rect x="245.26" y="241.99" width="1.8" height="9.66" transform="translate(-64.65 404.65) rotate(-72)"/><path class="cls-9" d="m241.65,244.47l-1.05.07c-.44.03-.62.58-.28.86l.81.67c.1.08.22.12.35.11l1.05-.07c.44-.03.62-.58.28-.86l-.81-.67c-.1-.08-.22-.12-.35-.11Z"/><path class="cls-1" d="m231.98,249.52c-1.28,0-2.34-1.04-2.19-2.32.52-4.57,2.57-8.85,5.85-12.14,3.83-3.83,9.03-5.99,14.45-5.99s10.62,2.15,14.45,5.99c3.28,3.28,5.33,7.57,5.85,12.14.15,1.27-.91,2.32-2.19,2.32h0c-1.28,0-2.31-1.05-2.49-2.31-.49-3.33-2.04-6.44-4.46-8.85-2.96-2.96-6.98-4.63-11.17-4.63s-8.21,1.66-11.17,4.63c-2.41,2.41-3.96,5.52-4.46,8.85-.19,1.27-1.21,2.31-2.49,2.31h0Z"/><g class="cls-14"><path class="cls-4" d="m231.98,249.52c-1.28,0-2.34-1.04-2.19-2.32.52-4.57,2.57-8.85,5.85-12.14,3.83-3.83,9.03-5.99,14.45-5.99s10.62,2.15,14.45,5.99c3.28,3.28,5.33,7.57,5.85,12.14.15,1.27-.91,2.32-2.19,2.32h0c-1.28,0-2.31-1.05-2.49-2.31-.49-3.33-2.04-6.44-4.46-8.85-2.96-2.96-6.98-4.63-11.17-4.63s-8.21,1.66-11.17,4.63c-2.41,2.41-3.96,5.52-4.46,8.85-.19,1.27-1.21,2.31-2.49,2.31h0Z"/></g><g class="cls-13"><path class="cls-2" d="m231.98,249.52c-1.28,0-2.34-1.04-2.19-2.32.19-1.66.58-3.29,1.17-4.85.45-1.2,1.86-1.65,3.01-1.07h0c1.14.58,1.58,1.98,1.17,3.2-.3.89-.52,1.8-.66,2.73-.19,1.27-1.21,2.31-2.49,2.31h0Z"/></g><path class="cls-12" d="m230.82,242.72c1.44-4.08,4.13-7.59,7.69-10.04l2.63,3.83c-2.75,1.89-4.83,4.61-5.95,7.76l-4.38-1.55Z"/><line class="cls-6" x1="238.81" y1="232.24" x2="241.96" y2="236.7"/><circle cx="250.32" cy="248.4" r="1.35"/><line class="cls-6" x1="230.35" y1="242.79" x2="235.29" y2="244.59"/><rect class="cls-6" x="207.77" y="219.43" width="84.26" height="55.54" rx="11.06" ry="11.06"/><circle class="cls-8" cx="182.58" cy="252.14" r="8.24"/><circle class="cls-12" cx="182.58" cy="252.14" r="2.82"/><line class="cls-8" x1="182.58" y1="251.91" x2="207.06" y2="251.91"/><circle class="cls-8" cx="183.53" cy="67.15" r="8.24"/><circle class="cls-12" cx="183.53" cy="67.15" r="2.82"/><rect class="cls-1" x="217.18" y="25.03" width="180.75" height="84.08" rx="11.06" ry="11.06"/><rect class="cls-15" x="224.01" y="31.85" width="167.1" height="70.43"/><path d="m257.49,84.56c0,.67.09,1.28.27,1.81.18.53.44.98.77,1.36.34.37.75.65,1.22.85.48.2,1.02.3,1.62.3s1.14-.1,1.61-.3c.48-.2.89-.48,1.22-.85.33-.37.59-.82.77-1.36.18-.54.27-1.14.27-1.81s-.09-1.27-.27-1.8c-.18-.54-.44-.99-.77-1.36s-.74-.66-1.22-.86c-.47-.2-1.01-.3-1.61-.3s-1.14.1-1.62.3c-.47.2-.88.48-1.22.86-.33.37-.59.83-.77,1.36-.18.53-.27,1.13-.27,1.8Zm10.72,8.52h-1.88c-.27,0-.52-.04-.74-.11-.21-.07-.41-.21-.59-.41l-1.8-1.98c-.29.08-.58.14-.89.18-.3.04-.61.06-.94.06-.93,0-1.77-.16-2.53-.47-.76-.32-1.42-.75-1.97-1.31-.54-.56-.96-1.22-1.26-1.98-.3-.77-.45-1.6-.45-2.5s.15-1.73.45-2.49c.3-.77.72-1.43,1.26-1.99.55-.56,1.2-.99,1.97-1.3.76-.32,1.61-.47,2.53-.47.62,0,1.21.07,1.75.22.55.14,1.05.34,1.51.61.46.26.87.58,1.23.96.37.37.68.79.93,1.25.25.46.45.97.58,1.51.14.54.2,1.11.2,1.71,0,.55-.06,1.07-.17,1.58-.11.5-.28.96-.49,1.4-.21.43-.47.84-.77,1.2-.31.36-.65.68-1.04.96l3.11,3.39Zm8.4-11.09v8.69h-1.28c-.28,0-.45-.13-.53-.38l-.14-.69c-.36.36-.75.66-1.18.88-.43.22-.93.33-1.52.33-.47,0-.9-.08-1.26-.24-.36-.16-.67-.39-.92-.69-.25-.29-.44-.64-.57-1.04-.12-.41-.19-.85-.19-1.34v-5.52h2.09v5.52c0,.53.12.94.36,1.24.25.29.62.43,1.11.43.36,0,.7-.08,1.02-.24.32-.16.62-.39.9-.67v-6.29h2.09Zm7.68,3.35c0-.27-.04-.53-.12-.76-.07-.24-.19-.45-.34-.64-.15-.18-.35-.32-.58-.42-.23-.11-.5-.16-.81-.16-.6,0-1.08.17-1.43.52-.34.34-.56.83-.66,1.47h3.95Zm-3.99,1.26c.03.45.11.83.24,1.16.12.32.29.59.49.8.2.21.44.37.72.47.28.1.59.15.93.15s.63-.04.87-.12c.25-.08.46-.17.64-.26.19-.1.35-.18.48-.26.14-.08.28-.12.41-.12.18,0,.31.06.39.19l.6.76c-.23.27-.49.5-.78.69-.29.18-.59.33-.91.44-.31.11-.63.18-.96.23-.32.05-.64.07-.94.07-.6,0-1.17-.1-1.69-.3-.52-.2-.97-.5-1.36-.89-.38-.4-.69-.88-.91-1.46-.22-.58-.33-1.25-.33-2.02,0-.59.1-1.15.29-1.67.19-.53.47-.98.82-1.36.36-.39.8-.7,1.31-.92.52-.23,1.1-.34,1.75-.34.55,0,1.05.09,1.52.26s.86.43,1.19.77c.33.33.59.75.78,1.24.19.49.29,1.04.29,1.67,0,.32-.03.53-.1.64-.07.11-.2.16-.39.16h-5.38Zm12.75-2.91c-.06.09-.12.16-.18.19-.06.03-.14.05-.24.05-.1,0-.21-.03-.33-.08-.11-.06-.25-.12-.4-.19-.15-.07-.33-.14-.53-.19-.19-.06-.42-.08-.69-.08-.41,0-.74.09-.97.26-.23.18-.35.4-.35.69,0,.19.06.34.18.47.12.12.29.23.48.33.2.1.43.18.69.26.25.07.51.16.77.25.27.09.53.19.78.31.25.11.48.26.68.44.2.18.36.39.48.64.12.25.19.55.19.9,0,.42-.08.8-.23,1.16-.15.35-.37.66-.66.92-.29.25-.66.45-1.09.6-.43.14-.93.21-1.49.21-.3,0-.59-.03-.88-.08-.28-.05-.56-.12-.82-.22-.26-.1-.5-.21-.73-.34-.22-.13-.42-.27-.58-.42l.48-.8c.06-.1.14-.17.22-.22s.19-.08.32-.08.25.04.36.11c.12.07.25.15.41.24.15.08.33.16.53.24.21.07.47.11.79.11.25,0,.46-.03.64-.08.18-.06.33-.14.44-.24.12-.1.2-.21.25-.33.06-.13.08-.26.08-.4,0-.2-.06-.37-.19-.5-.12-.13-.28-.24-.48-.34-.2-.1-.43-.18-.69-.25-.25-.08-.52-.16-.79-.25-.27-.09-.53-.19-.79-.31-.25-.12-.48-.28-.69-.47-.2-.19-.36-.42-.48-.69-.12-.27-.18-.6-.18-.98,0-.36.07-.69.21-1.02.14-.32.35-.6.62-.84.28-.24.62-.43,1.03-.58.41-.15.89-.22,1.42-.22.6,0,1.14.1,1.64.3s.9.46,1.23.78l-.47.75Zm10.91,7h-2.09v-7.13h-4.03v4.71c0,.27.06.48.19.64.14.15.32.23.55.23.13,0,.24-.01.32-.04.09-.03.17-.07.23-.1.07-.03.13-.06.18-.09.05-.03.1-.05.15-.05.06,0,.11.02.15.05.04.03.08.07.13.14l.63,1.02c-.31.25-.66.45-1.05.58-.4.13-.8.19-1.23.19-.76,0-1.34-.21-1.75-.64-.4-.43-.6-1.02-.6-1.77v-4.85h-.89c-.11,0-.21-.04-.29-.11-.08-.07-.12-.18-.12-.33v-.83l1.4-.24.44-2.36c.03-.11.08-.2.16-.26.08-.06.18-.09.31-.09h1.08v2.74h6.13v8.62Zm.36-11.26c0,.18-.04.35-.11.52-.07.16-.17.3-.3.42-.12.12-.26.21-.43.29-.16.07-.34.1-.53.1s-.35-.03-.51-.1c-.16-.07-.3-.17-.42-.29s-.21-.26-.29-.42c-.07-.16-.1-.34-.1-.52s.03-.36.1-.52c.07-.16.17-.31.29-.42.12-.12.26-.22.42-.29.16-.07.33-.11.51-.11s.36.04.53.11c.17.07.31.16.43.29.12.12.22.26.3.42.07.16.11.33.11.52Zm5.62,2.43c.64,0,1.23.1,1.75.31.53.21.98.51,1.36.89.38.38.67.85.87,1.41s.31,1.17.31,1.86-.1,1.31-.31,1.86-.49,1.03-.87,1.41c-.37.39-.82.69-1.36.9-.53.21-1.11.31-1.75.31s-1.24-.1-1.77-.31-.99-.51-1.36-.9c-.37-.39-.66-.86-.87-1.41-.2-.55-.31-1.17-.31-1.86s.1-1.3.31-1.86c.21-.55.5-1.02.87-1.41.38-.38.83-.68,1.36-.89.53-.21,1.12-.31,1.77-.31Zm0,7.35c.72,0,1.26-.24,1.6-.73.35-.49.53-1.2.53-2.14s-.18-1.65-.53-2.14c-.34-.49-.88-.74-1.6-.74s-1.28.25-1.64.75c-.35.49-.53,1.2-.53,2.14s.18,1.64.53,2.14c.36.49.9.73,1.64.73Zm7.84-6.14c.18-.18.36-.34.55-.48.2-.15.4-.28.62-.38.22-.11.45-.19.7-.25.25-.06.52-.09.81-.09.47,0,.9.08,1.26.25.37.16.67.38.92.68.25.29.43.64.56,1.04.13.4.19.84.19,1.33v5.53h-2.09v-5.53c0-.53-.12-.94-.36-1.23-.24-.29-.61-.44-1.11-.44-.36,0-.7.08-1.02.25s-.62.39-.9.67v6.29h-2.09v-8.69h1.28c.27,0,.45.13.53.38l.14.69Zm12.2,3.91c-.6.03-1.11.08-1.53.16-.41.07-.74.17-.99.29-.25.12-.43.26-.53.42-.11.16-.16.33-.16.52,0,.37.11.63.32.79.22.16.51.24.86.24.43,0,.8-.08,1.11-.23.32-.16.62-.4.92-.71v-1.47Zm-4.8-3.77c1-.92,2.2-1.37,3.61-1.37.51,0,.96.08,1.36.25.4.16.74.4,1.02.69.28.29.49.65.63,1.06.15.41.22.86.22,1.36v5.49h-.95c-.2,0-.35-.03-.46-.08-.11-.06-.19-.18-.25-.36l-.19-.63c-.22.2-.43.37-.64.53-.21.15-.43.27-.65.37-.23.1-.47.18-.73.23-.25.06-.54.08-.85.08-.37,0-.71-.05-1.02-.14-.31-.1-.58-.25-.8-.45s-.4-.44-.53-.74c-.12-.29-.19-.64-.19-1.03,0-.22.04-.44.11-.65.07-.22.19-.43.36-.63.17-.2.39-.38.65-.56.27-.18.59-.33.97-.46.39-.13.84-.23,1.36-.31.51-.08,1.1-.14,1.76-.15v-.51c0-.58-.12-1.01-.37-1.29-.25-.28-.61-.42-1.08-.42-.34,0-.62.04-.85.12-.22.08-.42.17-.58.27-.17.1-.32.18-.47.26-.14.08-.29.12-.46.12-.15,0-.27-.04-.37-.11-.1-.08-.18-.17-.25-.27l-.37-.67Zm10.9,5.23c.24.29.49.49.77.61.28.12.58.18.89.18s.61-.06.86-.17c.26-.12.48-.3.66-.54.18-.25.32-.56.42-.94.1-.38.14-.84.14-1.37,0-.95-.16-1.64-.47-2.07-.32-.43-.77-.64-1.36-.64-.4,0-.75.09-1.05.28-.3.18-.58.44-.86.77v3.9Zm0-5.37c.35-.37.74-.66,1.16-.87.43-.22.92-.33,1.47-.33.5,0,.95.1,1.36.3.41.2.75.48,1.03.86.29.37.51.81.66,1.34.15.53.23,1.12.23,1.77,0,.71-.09,1.35-.26,1.92-.18.58-.43,1.07-.75,1.48-.32.41-.71.72-1.17.95-.46.23-.97.34-1.53.34-.27,0-.52-.03-.74-.08-.22-.05-.42-.12-.61-.22-.19-.1-.36-.21-.52-.35-.15-.14-.3-.3-.44-.47l-.09.58c-.03.15-.09.25-.18.31-.08.06-.19.09-.33.09h-1.38v-12.59h2.09v4.97Zm9.64-4.97v12.59h-2.09v-12.59h2.09Zm7.69,7.24c0-.27-.04-.53-.12-.76-.07-.24-.19-.45-.34-.64-.15-.18-.35-.32-.58-.42-.23-.11-.5-.16-.81-.16-.6,0-1.08.17-1.43.52-.34.34-.56.83-.66,1.47h3.95Zm-3.99,1.26c.03.45.11.83.24,1.16.12.32.29.59.49.8.2.21.44.37.72.47.28.1.59.15.93.15s.63-.04.87-.12c.25-.08.46-.17.64-.26.19-.1.35-.18.48-.26.14-.08.28-.12.41-.12.18,0,.31.06.39.19l.6.76c-.23.27-.49.5-.78.69-.29.18-.59.33-.91.44-.31.11-.63.18-.96.23-.32.05-.64.07-.94.07-.6,0-1.17-.1-1.69-.3-.52-.2-.97-.5-1.36-.89-.38-.4-.69-.88-.91-1.46-.22-.58-.33-1.25-.33-2.02,0-.59.1-1.15.29-1.67.19-.53.47-.98.82-1.36.36-.39.8-.7,1.31-.92.52-.23,1.1-.34,1.75-.34.55,0,1.05.09,1.52.26s.86.43,1.19.77c.33.33.59.75.78,1.24.19.49.29,1.04.29,1.67,0,.32-.03.53-.1.64-.07.11-.2.16-.39.16h-5.38Zm9.78-8.17v4.85c0,.51-.03,1.02-.08,1.52-.05.49-.12,1.01-.19,1.57h-1.42c-.08-.55-.14-1.08-.19-1.57-.05-.5-.08-1-.08-1.52v-4.85h1.97Zm-2.3,11.1c0-.18.03-.34.09-.5.07-.16.16-.29.27-.41.12-.11.26-.2.42-.27s.33-.1.51-.1.34.03.5.1.29.16.41.27c.12.11.21.25.28.41.07.16.1.32.1.5s-.03.35-.1.51c-.07.15-.16.29-.28.4-.11.11-.25.2-.41.26-.16.07-.32.1-.5.1s-.35-.03-.51-.1c-.16-.06-.3-.15-.42-.26-.11-.11-.2-.25-.27-.4-.06-.16-.09-.33-.09-.51Z"/><line class="cls-7" x1="302.38" y1="53.74" x2="312.27" y2="53.74"/><path class="cls-11" d="m307.57,39.18c-.19-.06-.38-.04-.54.01l-.11.04-12.71,4.37h0c-.35.12-.59.45-.59.83v4.78c0,5.04,1.35,9.12,3.7,12.46,2.34,3.34,5.66,5.92,9.58,7.97h0c.26.13.56.13.82,0h0c3.92-2.06,7.24-4.64,9.58-7.97,2.34-3.34,3.7-7.42,3.7-12.46v-4.78c0-.37-.24-.71-.59-.83,0,0,0,0,0,0l-12.37-4.26.47-.16h-.95Zm-12.18,5.87l11.93-4.11,11.94,4.11v4.16c0,4.66-1.19,8.35-3.28,11.36-2.07,2.99-5.04,5.32-8.65,7.27-3.61-1.95-6.58-4.28-8.65-7.27-2.09-3.01-3.28-6.71-3.28-11.36v-4.16Z"/><rect class="cls-6" x="217.18" y="25.03" width="180.75" height="84.08" rx="11.06" ry="11.06"/><line class="cls-8" x1="183.53" y1="66.92" x2="216.47" y2="66.92"/><circle class="cls-8" cx="183.53" cy="129.29" r="8.24"/><circle class="cls-12" cx="183.53" cy="129.29" r="2.82"/><rect class="cls-1" x="217.18" y="118.23" width="84.26" height="21.65" rx="6.35" ry="6.35"/><path d="m236.67,129.44c0,.6-.1,1.15-.3,1.67-.2.51-.47.95-.84,1.32-.36.37-.8.66-1.3.88-.51.21-1.07.31-1.69.31s-1.18-.1-1.69-.31c-.51-.21-.95-.5-1.31-.88-.36-.37-.64-.81-.84-1.32-.2-.51-.3-1.07-.3-1.67s.1-1.15.3-1.66c.2-.51.48-.95.84-1.33.37-.37.8-.66,1.31-.87.51-.21,1.07-.32,1.69-.32.41,0,.8.05,1.17.15.37.09.7.23,1.01.41.31.17.58.39.82.64.24.25.45.53.62.84.17.31.3.64.38,1.01.09.36.14.74.14,1.14Zm-1.55,0c0-.45-.06-.85-.18-1.2-.12-.36-.29-.66-.51-.91-.22-.25-.49-.44-.81-.57-.32-.13-.67-.2-1.07-.2s-.76.07-1.08.2c-.32.13-.59.32-.81.57-.22.25-.39.55-.51.91-.12.35-.18.76-.18,1.2s.06.85.18,1.21c.12.35.29.66.51.9.23.24.5.43.81.56.32.13.68.2,1.08.2s.76-.07,1.07-.2c.32-.13.59-.32.81-.56.22-.25.39-.55.51-.9.12-.36.18-.76.18-1.21Zm3.96,2.58c.16.19.33.33.51.41.19.08.39.12.61.12s.4-.04.57-.12c.17-.08.31-.2.43-.36.12-.16.21-.37.28-.61.06-.25.1-.54.1-.88s-.03-.63-.08-.86c-.05-.24-.13-.43-.23-.58s-.23-.25-.37-.32c-.14-.07-.31-.1-.49-.1-.29,0-.54.06-.74.19-.2.12-.4.29-.58.51v2.6Zm-.07-3.5c.24-.27.51-.48.81-.65.3-.17.66-.25,1.06-.25.32,0,.6.07.86.2.26.13.49.32.68.58.19.25.34.56.44.93.11.37.16.79.16,1.26,0,.43-.06.83-.18,1.2-.12.37-.28.69-.5.96-.21.27-.48.48-.79.64-.31.15-.65.23-1.03.23-.32,0-.6-.05-.83-.15-.23-.1-.43-.24-.62-.42v2.37h-1.4v-7.69h.85c.18,0,.3.08.36.25l.11.54Zm6.55-.79v5.8h-1.4v-5.8h1.4Zm.19-1.69c0,.12-.02.23-.07.34-.05.11-.11.2-.2.28-.08.08-.17.14-.28.19-.11.05-.23.07-.35.07s-.24-.02-.34-.07c-.11-.05-.2-.11-.28-.19-.08-.08-.14-.17-.19-.28-.05-.11-.07-.22-.07-.34s.02-.24.07-.35c.05-.11.11-.2.19-.28.08-.08.17-.14.28-.19.11-.05.22-.07.34-.07s.24.02.35.07c.11.05.2.11.28.19.08.08.15.17.2.28.05.11.07.23.07.35Zm2.53,2.4c.12-.12.24-.22.37-.32.13-.1.27-.19.41-.25.15-.07.3-.13.47-.16.17-.04.35-.06.54-.06.32,0,.6.05.84.16.24.11.45.26.61.45.17.19.29.42.37.69.09.27.13.56.13.89v3.69h-1.4v-3.69c0-.35-.08-.63-.24-.82-.16-.2-.41-.29-.74-.29-.24,0-.47.05-.68.16-.21.11-.41.26-.6.45v4.19h-1.4v-5.8h.85c.18,0,.3.08.36.25l.1.46Zm6.52-.71v5.8h-1.4v-5.8h1.4Zm.19-1.69c0,.12-.02.23-.07.34-.05.11-.11.2-.2.28-.08.08-.17.14-.28.19-.11.05-.23.07-.35.07s-.24-.02-.34-.07c-.11-.05-.2-.11-.28-.19-.08-.08-.14-.17-.19-.28-.05-.11-.07-.22-.07-.34s.02-.24.07-.35c.05-.11.11-.2.19-.28.08-.08.17-.14.28-.19.11-.05.22-.07.34-.07s.24.02.35.07c.11.05.2.11.28.19.08.08.15.17.2.28.05.11.07.23.07.35Zm3.79,1.6c.43,0,.82.07,1.17.21.35.14.66.34.9.59.25.26.45.57.58.94s.2.78.2,1.24-.07.87-.2,1.24c-.14.37-.33.68-.58.94-.25.26-.55.46-.9.6-.35.14-.74.21-1.17.21s-.83-.07-1.18-.21c-.35-.14-.66-.34-.91-.6-.25-.26-.44-.57-.58-.94-.14-.37-.2-.78-.2-1.24s.07-.87.2-1.24c.14-.37.33-.68.58-.94.25-.26.56-.45.91-.59.35-.14.75-.21,1.18-.21Zm0,4.9c.48,0,.84-.16,1.07-.49.23-.32.35-.8.35-1.42s-.12-1.1-.35-1.43c-.23-.33-.59-.49-1.07-.49s-.85.17-1.09.5c-.23.33-.35.8-.35,1.42s.12,1.1.35,1.42c.24.32.6.49,1.09.49Zm5.23-4.1c.12-.12.24-.22.37-.32.13-.1.27-.19.41-.25.15-.07.3-.13.47-.16.17-.04.35-.06.54-.06.32,0,.6.05.84.16.24.11.45.26.61.45.17.19.29.42.37.69.09.27.13.56.13.89v3.69h-1.4v-3.69c0-.35-.08-.63-.24-.82-.16-.2-.41-.29-.74-.29-.24,0-.47.05-.68.16-.21.11-.41.26-.6.45v4.19h-1.4v-5.8h.85c.18,0,.3.08.36.25l.1.46Zm8.13,2.61c-.4.02-.74.05-1.02.11-.27.05-.5.11-.66.19s-.28.17-.36.28c-.07.11-.11.22-.11.34,0,.24.07.42.21.53.15.11.34.16.57.16.29,0,.53-.05.74-.15.21-.11.42-.26.62-.47v-.98Zm-3.2-2.51c.67-.61,1.47-.92,2.41-.92.34,0,.64.06.91.17.27.11.49.26.68.46.18.2.32.43.42.71.1.27.15.58.15.9v3.66h-.63c-.13,0-.23-.02-.31-.06-.07-.04-.13-.12-.17-.24l-.12-.42c-.15.13-.29.25-.43.35-.14.1-.28.18-.43.25s-.31.12-.49.15c-.17.04-.36.06-.56.06-.24,0-.47-.03-.68-.1-.21-.07-.39-.17-.54-.3s-.27-.3-.35-.49c-.08-.2-.12-.42-.12-.68,0-.15.02-.29.07-.43.05-.15.13-.29.24-.42.11-.13.26-.26.43-.37s.39-.22.65-.31c.26-.09.56-.16.9-.21.34-.06.73-.09,1.17-.1v-.34c0-.39-.08-.67-.25-.86-.17-.19-.4-.28-.72-.28-.23,0-.41.03-.56.08-.15.05-.28.11-.39.18-.11.06-.22.12-.31.18-.09.05-.19.08-.31.08-.1,0-.18-.02-.25-.07-.07-.05-.12-.11-.16-.18l-.25-.45Zm7.73,5.08c-.5,0-.89-.14-1.16-.42-.27-.29-.4-.68-.4-1.18v-3.24h-.59c-.08,0-.14-.02-.19-.07s-.08-.12-.08-.22v-.55l.93-.15.29-1.58c.02-.08.05-.13.11-.18s.12-.06.2-.06h.72v1.82h1.55v.99h-1.55v3.14c0,.18.04.32.13.42.09.1.21.15.37.15.09,0,.16,0,.21-.03.06-.02.11-.05.15-.07.05-.02.08-.04.12-.06.03-.02.07-.03.1-.03.04,0,.08.01.1.03.03.02.05.05.08.09l.42.68c-.2.17-.44.3-.7.38-.26.09-.54.13-.82.13Zm5.96-3.65c0-.18-.03-.35-.08-.51-.05-.16-.12-.3-.23-.42s-.23-.21-.39-.28c-.15-.07-.34-.11-.54-.11-.4,0-.72.11-.95.34-.23.23-.38.56-.44.98h2.63Zm-2.66.84c.02.3.08.56.16.77.08.21.19.39.33.54.14.14.3.24.48.32.19.07.4.1.62.1s.42-.03.58-.08c.17-.05.31-.11.43-.18.12-.06.23-.12.32-.18.09-.05.18-.08.27-.08.12,0,.2.04.26.13l.4.51c-.15.18-.33.33-.52.46-.19.12-.39.22-.6.29-.21.07-.42.12-.64.15-.21.03-.42.05-.63.05-.4,0-.78-.07-1.12-.2-.35-.14-.65-.33-.9-.59-.26-.26-.46-.59-.6-.97-.15-.39-.22-.84-.22-1.34,0-.4.06-.77.19-1.11.13-.35.31-.65.55-.91.24-.26.53-.47.88-.62.35-.15.74-.23,1.17-.23.37,0,.7.06,1.01.18.31.12.57.29.8.51.22.22.4.5.52.82.13.32.19.69.19,1.11,0,.21-.02.35-.07.43-.05.07-.13.11-.26.11h-3.59Zm8.6-1.59c-.16-.19-.33-.33-.52-.41-.18-.08-.38-.12-.6-.12s-.4.04-.57.12-.31.2-.43.36c-.12.16-.21.36-.28.61-.06.24-.1.53-.1.87s.03.63.08.86c.06.23.14.43.24.58.1.15.23.25.37.32.15.06.31.1.49.1.29,0,.54-.06.74-.18s.4-.29.58-.51v-2.6Zm1.4-4.08v8.39h-.85c-.18,0-.3-.08-.35-.25l-.12-.56c-.23.27-.5.48-.81.65-.3.17-.65.25-1.06.25-.32,0-.61-.07-.87-.2s-.49-.32-.68-.57c-.19-.25-.34-.56-.44-.93-.1-.37-.15-.79-.15-1.27,0-.43.06-.83.18-1.2s.28-.69.5-.96c.22-.27.48-.48.79-.63.3-.15.65-.23,1.03-.23.32,0,.6.05.83.15.23.1.43.24.62.41v-3.06h1.4Z"/><rect class="cls-6" x="217.18" y="118.23" width="84.26" height="21.65" rx="6.35" ry="6.35"/><line class="cls-8" x1="183.53" y1="129.05" x2="216.47" y2="129.05"/></svg>