<?xml version="1.0" encoding="UTF-8"?><svg id="Ebene_1" xmlns="http://www.w3.org/2000/svg" viewBox="0 0 400 300"><defs><style>.cls-1{fill:#ffeea1;}.cls-2,.cls-3{fill:#fff;}.cls-4{opacity:.5;}.cls-3{opacity:.3;}.cls-5,.cls-6,.cls-7,.cls-8,.cls-9,.cls-10{stroke-miterlimit:10;}.cls-5,.cls-6,.cls-7,.cls-8,.cls-10{stroke:#000;}.cls-5,.cls-7,.cls-8{stroke-width:2.4px;}.cls-11{fill:#5928e5;}.cls-12{fill:#ffcbcb;}.cls-13{opacity:.1;}.cls-6{fill:none;}.cls-6,.cls-10{stroke-width:2.8px;}.cls-14{fill:#b3b3b3;}.cls-7{fill:#e6e6e6;}.cls-8,.cls-9{fill:#4d4d4d;}.cls-9{stroke:#666;stroke-width:.8px;}.cls-10{fill:#c8b5ff;}</style></defs><g><path class="cls-14" d="m199.8,266.36c0,12.5-39.56,22.64-88.36,22.64s-88.36-10.14-88.36-22.64c0-2.52,1.6-4.94,4.56-7.2,23.14,8.48,57.67,7,94.21,7,30.66,0,57.22,1.04,76.68-3.63.83,1.25,1.26,2.53,1.26,3.83Z"/><path id="mochi_fill" class="cls-10" d="m208.31,225.09c0,54.11-38.86,49.49-92.97,49.49s-102.98,4.62-102.98-49.49,43.86-97.97,97.97-97.97,97.97,43.86,97.97,97.97Z"/><path class="cls-3" d="m106.22,149.55c-1.54,2.08-5.55.8-9.62.8,0,0-6.83.26-14.43,2.4-5.54,1.57-8.9,4.38-15.63,10.02-4.18,3.5-9.24,7.75-14.02,14.83-3.47,5.13-7.71,11.42-9.22,20.44-1.05,6.3-.36,11.54-3.61,13.22-1.53.79-3.82.73-5.21-.4-1.75-1.43-1.64-4.23-1.6-5.21.08-1.91.72-2.47.8-5.21.06-1.87-.22-2.48-.4-2.8-.69-1.24-2.24-2.16-3.61-2-1.98.22-3.04,2.63-4.01,4.81-1.17,2.64-1.64,5.15-2,9.22-.16,1.77-.33,4.24-.4,8.82-.12,7.35.99,10.47-.4,13.22-.54,1.08-2,2.8-4.81,2.8-1.94,0-4.07-2.06-5.65-6.52-.04-.95-.05-1.92-.05-2.9,0-48.9,35.83-89.44,82.67-96.78,2.32,2.08,3.39,4.08,2.77,5.62-1.6,4.01-4.68,1.63-8.01,4.41-2.4,2-1.38,5.05.4,5.21,4.41.4,3.4.12,8.41.4,2.42.14,7.07.4,8.01,2.8.34.89.18,2.02-.4,2.8Z"/><path class="cls-13" d="m208.31,225.09c0,54.11-38.86,49.49-92.97,49.49-42.98,0-82.65,2.91-97.16-23,18.64,5.73,54.62,10.04,112.07,5.77,31.32-2.33,41.5-5.16,49.29-13.62,15.85-17.23,10.21-45.18,8.01-56.1-.3-1.49-4.78-22.16-19.62-41.79,24.47,17.81,40.37,46.68,40.37,79.26Z"/><path class="cls-6" d="m179.5,270.94c18.06-5.19,28.81-17.4,28.81-45.85,0-32.58-15.9-61.45-40.37-79.26-16.17-11.77-36.07-18.72-57.6-18.72-5.21,0-10.31.4-15.3,1.19-46.84,7.35-82.67,47.88-82.67,96.78,0,.99.02,1.96.05,2.9.33,9.75,2.35,17.47,5.77,23.59,4.19,7.48,10.47,12.56,18.33,16"/><path class="cls-2" d="m52.99,160.39c6.36-5.97,13.92-10.58,22.21-13.32,2.19-.72,1.25-4.21-.96-3.48-8.89,2.93-16.98,7.84-23.8,14.24-1.7,1.59.86,4.14,2.55,2.55h0Z"/><path class="cls-2" d="m37.84,183.13c.33-.91.69-1.82,1.07-2.72l-.18.43c.39-.93.81-1.85,1.25-2.75.21-.44.32-.9.18-1.39-.12-.42-.44-.87-.83-1.08-.81-.43-2.03-.26-2.47.65-.93,1.92-1.76,3.89-2.5,5.9-.15.42-.04,1.02.18,1.39s.65.73,1.08.83c1.02.23,1.87-.31,2.22-1.26h0Z"/></g><g><g class="cls-4"><ellipse class="cls-11" cx="111.11" cy="233.72" rx="8.38" ry="6.01"/></g><g class="cls-4"><ellipse class="cls-11" cx="171.39" cy="233.72" rx="8.38" ry="6.01"/></g><g><ellipse cx="121.29" cy="221.1" rx="10.78" ry="10.82"/><path d="m121.29,232.11c-6.06,0-10.99-4.94-10.99-11.01s4.93-11.01,10.99-11.01,10.99,4.94,10.99,11.01-4.93,11.01-10.99,11.01Zm0-21.64c-5.83,0-10.57,4.77-10.57,10.63s4.74,10.63,10.57,10.63,10.57-4.77,10.57-10.63-4.74-10.63-10.57-10.63Z"/></g><g><ellipse cx="160.21" cy="221.3" rx="10.78" ry="10.82"/><path d="m160.21,232.31c-6.06,0-10.99-4.94-10.99-11.01s4.93-11.01,10.99-11.01,10.99,4.94,10.99,11.01-4.93,11.01-10.99,11.01Zm0-21.64c-5.83,0-10.57,4.77-10.57,10.63s4.74,10.63,10.57,10.63,10.57-4.77,10.57-10.63-4.74-10.63-10.57-10.63Z"/></g><path class="cls-2" d="m114.35,215.62c-2.21,3.01-2.41,7.04-.05,8.38,1.6.91,4.79.51,7.59-2.7,2.45-2.81,3.38-6.4,1.2-8.01s-6.52-.67-8.73,2.34Z"/><path class="cls-2" d="m153.47,215.62c-2.21,3.01-2.41,7.04-.05,8.38,1.6.91,4.79.51,7.59-2.7,2.45-2.81,3.38-6.4,1.2-8.01s-6.52-.67-8.73,2.34Z"/><ellipse class="cls-2" cx="124.68" cy="224.3" rx="1.8" ry="1.2" transform="translate(-129 185.54) rotate(-52.24)"/><ellipse class="cls-2" cx="163.8" cy="224.3" rx="1.8" ry="1.2" transform="translate(-113.83 216.47) rotate(-52.24)"/><g><ellipse cx="142.24" cy="235.32" rx="6.39" ry="6.41"/><path d="m142.24,241.98c-3.67,0-6.65-2.99-6.65-6.66s2.98-6.66,6.65-6.66,6.65,2.99,6.65,6.66-2.98,6.66-6.65,6.66Zm0-12.82c-3.38,0-6.12,2.77-6.12,6.17s2.75,6.17,6.12,6.17,6.12-2.77,6.12-6.17-2.75-6.17-6.12-6.17Z"/></g></g><g><g><path class="cls-12" d="m131.89,99.09c-3.13,1.97-4.02,7.68-1.03,10.18,2.69-.71,3.25-7.15,1.01-10.09"/><path d="m131.28,98.05c-3.24,2.09-4.37,6.81-2.7,10.23.39.79,1.28,2.19,2.27,2.19.78,0,1.59-.63,2.06-1.2,1.11-1.35,1.48-3.17,1.54-4.88.06-1.98-.35-4.2-1.55-5.82-.39-.52-1.04-.78-1.64-.43-.51.3-.82,1.12-.43,1.64,1.09,1.46,1.34,3.21,1.2,5.09-.04.49-.05.62-.19,1.19-.05.21-.11.43-.19.63-.03.1-.07.2-.11.3.08-.19,0,.01-.05.09-.09.17-.18.34-.29.5-.02.03-.18.24-.07.1s-.09.09-.11.11c-.06.06-.12.12-.19.18s.21-.11-.02,0c-.07.04-.14.08-.21.12-.08.04-.05.02.1-.04-.05.02-.1.03-.15.05l1.17.31c-.38-.32-.55-.52-.75-.83-.28-.44-.34-.57-.48-1.01-.27-.87-.32-1.54-.2-2.54.01-.12-.02.09.02-.11.02-.12.04-.25.07-.37.05-.22.11-.45.18-.66.15-.48.2-.61.46-1.08.11-.19.22-.39.35-.57.02-.03.22-.3.1-.14.06-.08.13-.15.19-.23.14-.16.3-.31.46-.46,0,0,.29-.23.12-.1.09-.07.19-.13.29-.2.54-.35.77-1.07.43-1.64-.32-.54-1.1-.79-1.64-.43h0Z"/></g><g><path class="cls-12" d="m131.26,92.63c-2.24-7.68-1.59-15.86-.91-23.83.19-2.31.43-4.74,1.78-6.63s4.2-2.91,6.04-1.51c1.9,1.44,1.66,4.32,1.24,6.67-1.26,6.96-2.53,13.92-3.79,20.87-.23,1.25-.47,2.54-1.17,3.61s-2.82,2.29-3.03,1.04"/><path d="m132.42,92.31c-1.3-4.59-1.61-9.33-1.48-14.08.06-2.36.23-4.73.41-7.08.17-2.15.2-4.42.87-6.49.56-1.72,1.88-3.42,3.85-3.45s2.47,2.05,2.41,3.67c-.07,2.18-.65,4.37-1.04,6.5-.44,2.43-.88,4.85-1.32,7.28-.5,2.75-1,5.5-1.5,8.25-.21,1.14-.35,2.36-.78,3.45-.22.54-.49.97-.94,1.33-.12.1-.25.19-.38.26-.11.08-.24.14-.37.18-.3.07-.17.2.41.39-.45-1.48-2.77-.85-2.32.64.69,2.26,3.22,1.29,4.48.13,1.91-1.76,2.05-4.81,2.49-7.2,1.15-6.31,2.42-12.62,3.44-18.96.34-2.11.53-4.54-.76-6.39s-3.54-2.32-5.57-1.63c-5.39,1.83-5.14,8.82-5.48,13.44-.51,6.82-.62,13.75,1.26,20.39.42,1.49,2.74.85,2.32-.64h0Z"/></g></g><g><g><path class="cls-1" d="m203.32,86.71c.18-5.22-1.92-10.47-5.58-14.2-3.66-3.73-8.82-5.92-14.05-6.07-4.2-.12-8.46,1.08-11.9,3.51s-6,6.1-6.95,10.2c-1.88,8.13,2.53,17.05-.49,24.83.57.26,1.13.51,1.7.77.02,0,.04.02.06.03,0,0,0-.01.01-.02l7.16,3.26c3.09,1.4,6.17,2.79,9.26,4.19,1.14-2.89,3.42-5.96,6.04-7.74,2.62-1.78,5.56-3.09,8.01-5.1,4.05-3.3,6.54-8.42,6.72-13.65Z"/><path d="m204.53,86.71c.27-11.47-9.09-20.93-20.42-21.46-5.54-.26-11.19,1.69-15.21,5.55s-5.78,8.9-5.72,14.3c.06,6.49,2.39,13.22.03,19.55-.17.45.1,1.15.55,1.36.59.27,1.17.53,1.76.8s1.3.18,1.64-.43v-.02c-.54.14-1.09.29-1.63.43,5.47,2.49,10.94,4.97,16.42,7.45.77.35,1.45.05,1.77-.72,1.12-2.74,3.05-5.33,5.49-7.02,2.57-1.79,5.45-3.07,7.92-5.01,4.52-3.55,7.15-9.06,7.41-14.77.07-1.55-2.33-1.54-2.4,0-.27,6.02-3.53,11.17-8.59,14.35-2.46,1.54-5.16,2.78-7.32,4.76s-3.73,4.4-4.82,7.06l1.77-.72c-5.48-2.48-10.95-4.96-16.42-7.45-.58-.26-1.3-.18-1.64.43v.02c.54-.14,1.09-.29,1.63-.43-.59-.27-1.17-.53-1.76-.8l.55,1.36c3.62-9.72-3.29-20.58,2.6-29.79s18.84-10.16,26.99-3.76c4.56,3.58,7.15,9.19,7.02,14.96-.04,1.55,2.37,1.55,2.4,0Z"/></g><g><path class="cls-2" d="m164.13,109.73c5.05,2.28,10.1,4.55,15.15,6.83-5.05-2.28-10.1-4.55-15.15-6.83-.72,1.74-1.19,3.54-1.07,5.4.19,2.93,2,5.73,4.63,7.04,2.63,1.31,5.8.94,8.1-.84,2.58-2,4.37-5.44,5.22-8.8l-7.72-3.51c-2.39-1.08-4.78-2.16-7.17-3.24-.71,1.28-1.43,2.6-1.99,3.95Zm-1.03,4.78c4.44,1.95,8.89,3.9,13.33,5.85-4.44-1.95-8.89-3.9-13.33-5.85Z"/><g><path d="m163.52,110.76l15.15,6.83c1.4.63,2.62-1.44,1.21-2.08l-15.15-6.83c-.77-.35-1.45-.05-1.77.72-.98,2.41-1.49,5.05-.81,7.62.58,2.2,1.94,4.15,3.78,5.49,4.13,3,9.52,1.57,12.57-2.19,1.77-2.18,2.95-4.76,3.65-7.47.12-.47-.07-1.14-.55-1.36-4.96-2.26-9.92-4.51-14.89-6.75-.58-.26-1.3-.18-1.64.43-.72,1.29-1.41,2.59-1.99,3.95-.26.6-.18,1.28.43,1.64.5.3,1.39.17,1.64-.43.58-1.36,1.27-2.66,1.99-3.95l-1.64.43c4.97,2.24,9.93,4.5,14.89,6.75l-.55-1.36c-1.14,4.38-4.24,10.16-9.61,9.5-2.33-.29-4.26-1.91-5.27-3.99-1.22-2.5-.68-5.2.32-7.67l-1.77.72,15.15,6.83c1.4.63,2.62-1.44,1.21-2.08l-15.15-6.83c-1.4-.63-2.62,1.44-1.21,2.08Z"/><path d="m162.49,115.54c4.44,1.95,8.89,3.9,13.33,5.85.59.26,1.29.17,1.64-.43.3-.51.17-1.38-.43-1.64-4.44-1.95-8.89-3.9-13.33-5.85-.59-.26-1.29-.17-1.64.43-.3.51-.17,1.38.43,1.64,4.44,1.95,8.89,3.9,13.33,5.85.59.26,1.29.17,1.64-.43.3-.51.17-1.38-.43-1.64-4.44-1.95-8.89-3.9-13.33-5.85-.59-.26-1.29-.17-1.64.43-.3.51-.17,1.38.43,1.64Z"/></g></g><g><path class="cls-2" d="m166.12,105.77c2.39,1.08,4.78,2.16,7.17,3.24l-7.16-3.26s0,.01-.01.02Z"/><path d="m165.51,106.81c2.39,1.08,4.78,2.16,7.17,3.24.57.26,1.32.18,1.64-.43.28-.53.18-1.37-.43-1.64-2.09-.95-4.18-1.9-6.26-2.85l-.9-.41c-.58-.26-1.3-.18-1.64.43v.02c-.32.55-.16,1.34.42,1.64s1.32.16,1.64-.43v-.02c-.54.14-1.09.29-1.63.43,2.09.95,4.18,1.9,6.26,2.85l.9.41,1.21-2.08c-2.39-1.08-4.78-2.16-7.17-3.24-.57-.26-1.32-.18-1.64.43-.28.53-.18,1.37.43,1.64Z"/></g><path d="m169.85,107.65c3.18-3.47,5.57-7.58,6.97-12.08.68-2.18,1.1-4.43,1.3-6.7.15-1.79.33-4.07-1.06-5.46s-3.69-.92-4.9.54-1.17,3.69-.24,5.35c2.31,4.14,7.66,3.65,11.24,1.63,1.89-1.07,3.5-2.55,4.79-4.29,1.17-1.58,2.44-3.82,2.53-5.84s-1.88-3.26-3.71-2.45-3.13,3.3-3.86,5.13c-1.62,4.06-1.67,9.82,2.11,12.74,2.96,2.29,8.66,1.25,8.39-3.32-.14-2.31-2.29-4.01-4.56-3.52-2.57.55-4.07,3.31-5.39,5.34-3.12,4.82-5.5,10.11-7.13,15.62-.44,1.49,1.88,2.12,2.32.64.98-3.32,2.23-6.55,3.79-9.64,1.45-2.87,3.09-5.93,5.19-8.38.81-.95,2.95-2.18,3.36-.11.31,1.55-1.39,2.36-2.67,2.25-3.4-.3-4.23-4.58-4-7.3.13-1.55.58-3.11,1.3-4.49.31-.6.67-1.2,1.08-1.74.38-.5,1.53-1.73,1.28-.39-.52,2.81-2.78,5.54-5.07,7.1s-6.04,2.96-8.29.65c-.8-.82-1.45-2.31-.68-3.36.32-.43.94-.85,1.43-.45.46.38.44,1.29.45,1.82.09,6.94-3.03,13.97-7.66,19.03-1.04,1.14.65,2.84,1.7,1.7h0Z"/></g><path class="cls-5" d="m239.99,237.43l74.63,45.98c.4.25.88.32,1.34.2l57.76-15.52c1.45-.39,1.73-2.32.45-3.1l-73.72-45.51c-.39-.24-.87-.32-1.32-.2l-58.68,15.05c-1.46.37-1.75,2.32-.47,3.11Z"/><path class="cls-7" d="m317.95,164.7l70.27,42.58c1.34.81,1.98,2.41,1.57,3.92l-14.65,54.25-75.3-46.36,12.88-52.23c.57-2.3,3.2-3.39,5.23-2.16Z"/><path class="cls-9" d="m271.46,252.13l18.65,11.36c1.76,1.07,3.87,1.43,5.89.99l12.15-2.63c1.04-.23,1.3-1.6.4-2.18l-19.13-12.36c-2.14-1.38-4.78-1.75-7.21-1l-10.42,3.19c-1.2.37-1.41,1.98-.33,2.64Z"/><g><path d="m355.99,199.14l-6.67,11.37-.57-.31c-.09-.05-.15-.11-.18-.19-.03-.08-.04-.19-.04-.33l.61-10.64c-.08.15-.15.29-.23.43-.08.14-.15.27-.22.39l-4.58,7.8-.98-.54,6.67-11.37.58.32c.1.05.16.11.19.17.03.06.04.17.03.32l-.6,10.65c.08-.16.16-.31.24-.46.08-.15.16-.29.23-.41l4.55-7.75.98.53Z"/><path d="m356.67,212.73l-.81,1.37-4.68-2.56,6.67-11.37,4.68,2.56-.8,1.37-3.56-1.94-2.12,3.6,2.86,1.56-.78,1.32-2.86-1.56-2.18,3.71,3.56,1.95Z"/><path d="m373.79,208.87l-9.03,10.09-1.01-.55,3.11-9.44c.06-.19.14-.42.25-.67-.18.22-.34.41-.47.55l-6.81,7.42-1-.55,4.32-12.66.94.51c.1.05.16.13.18.24.02.11.01.23-.04.36l-2.98,8.42c-.06.16-.13.34-.21.53-.08.19-.16.38-.25.59.14-.18.27-.35.4-.5.13-.16.25-.3.38-.43l6.17-6.68c.08-.09.18-.16.3-.2.11-.04.22-.04.31.01l.32.18c.1.05.16.13.18.24s0,.23-.03.36l-2.77,8.54c-.11.33-.25.69-.41,1.08.26-.34.49-.65.72-.92l5.96-6.79c.08-.1.18-.16.29-.21.12-.04.22-.04.32.02l.87.48Z"/><path d="m377.61,213.4c-.09.07-.16.12-.23.14-.06.02-.12.02-.18-.02-.06-.03-.11-.12-.14-.25-.03-.13-.07-.28-.13-.46-.06-.17-.15-.35-.26-.53s-.29-.33-.53-.46c-.22-.12-.44-.18-.66-.19s-.43.04-.63.13-.39.22-.57.39c-.18.17-.34.38-.47.61-.18.31-.28.59-.29.85s.02.5.11.74c.08.23.2.46.36.69.15.22.31.45.46.69.16.24.3.49.43.75.13.26.21.56.25.87.04.32.01.66-.08,1.05-.09.38-.27.81-.54,1.28-.29.5-.63.94-1,1.32-.37.38-.76.67-1.17.88-.41.21-.83.32-1.26.33-.43.01-.84-.09-1.25-.31-.24-.13-.46-.3-.64-.49-.19-.2-.34-.41-.47-.65-.13-.24-.23-.5-.3-.78-.07-.28-.11-.57-.12-.87l.8-.63c.07-.05.14-.08.21-.1.07-.02.13-.01.19.02.07.04.12.14.15.31s.07.36.13.58c.06.22.15.44.28.66.13.22.34.41.62.57.23.13.47.19.7.2s.47-.04.69-.14c.22-.1.44-.26.65-.46s.4-.46.57-.75c.2-.33.3-.63.33-.9.02-.27,0-.52-.09-.75-.08-.23-.2-.46-.36-.68-.16-.22-.31-.44-.47-.67s-.31-.48-.44-.74-.21-.55-.25-.87c-.03-.32,0-.68.1-1.08.1-.4.3-.86.6-1.36.24-.41.52-.77.85-1.09s.68-.58,1.05-.76c.37-.18.76-.28,1.16-.3.4-.02.79.08,1.17.29.42.23.75.55.99.94s.38.86.42,1.38l-.74.65Z"/></g><path class="cls-8" d="m316.12,176.98l-8.27,35.24c-.46,1.96.36,4,2.05,5.09l10.3,6.66c2.68,1.73,6.27.39,7.17-2.67l9.56-33.98c.36-1.25-.12-2.59-1.21-3.32l-15.04-8.82c-1.73-1.15-4.08-.23-4.56,1.8Z"/><path d="m340.23,214.54c8.88,4.48,17.32,9.79,25.18,15.88.6.47,1.46-.38.85-.85-7.94-6.16-16.44-11.55-25.42-16.07-.69-.35-1.3.69-.61,1.04h0Z"/><path d="m339.21,218.4c8.1,5.26,16.19,10.52,24.29,15.78.65.42,1.25-.62.61-1.04-8.1-5.26-16.19-10.52-24.29-15.78-.65-.42-1.25.62-.61,1.04h0Z"/><path d="m337.15,222.46c8.03,4.53,16.06,9.06,24.09,13.59.67.38,1.28-.66.61-1.04-8.03-4.53-16.06-9.06-24.09-13.59-.67-.38-1.28.66-.61,1.04h0Z"/><path d="m335.08,225.64c6.13,4.98,12.85,9.17,20.03,12.46.7.32,1.31-.72.61-1.04-7.08-3.24-13.74-7.36-19.79-12.27-.6-.48-1.45.36-.85.85h0Z"/><path class="cls-9" d="m273.4,230.87l25.86-6.67c.11-.03.23-.01.33.05l65.44,40.7c.31.19.24.66-.11.76l-27.56,7.91c-.12.03-.24.01-.35-.05l-63.74-41.94c-.3-.2-.23-.67.13-.76Z"/><path d="m208.73,144.99s28.41-17.94,33.32-17.85,1.31,3.71,1.31,3.71c0,0-31.23,18.98-33.47,20.85-4.63,3.85-5.08,1.79-5.08,1.79,0,0-.88-.97-1.56-4.05-.6-2.71-1.79-10.72-3.08-14.67s1.55-3.99,1.55-3.99c0,0,1.65.53,2.79,2.06s4.23,12.14,4.23,12.14Z"/></svg>