<?xml version="1.0" encoding="UTF-8"?><svg id="Ebene_1" xmlns="http://www.w3.org/2000/svg" viewBox="0 0 400 300"><defs><style>.cls-1{fill:#9d9d9d;}.cls-2,.cls-3{fill:#fff;}.cls-4{fill:#8b8b8b;}.cls-5{fill:none;}.cls-5,.cls-6,.cls-7,.cls-8,.cls-9,.cls-10,.cls-11,.cls-12,.cls-13,.cls-14,.cls-15,.cls-16,.cls-17,.cls-18{stroke:#000;stroke-miterlimit:10;}.cls-5,.cls-17{stroke-width:3.23px;}.cls-19{fill:#dbdbdb;}.cls-6{opacity:0;}.cls-6,.cls-7,.cls-8,.cls-9,.cls-10,.cls-11,.cls-12,.cls-13,.cls-14,.cls-15,.cls-16,.cls-18{stroke-width:1.61px;}.cls-20{fill:#9c9c9c;}.cls-21,.cls-11,.cls-22{opacity:.5;}.cls-7{opacity:.6;}.cls-23{fill:#070606;}.cls-8{opacity:.05;}.cls-3,.cls-16{opacity:.3;}.cls-24{fill:#c9c9c9;}.cls-9{opacity:.4;}.cls-10,.cls-25{opacity:.1;}.cls-26{fill:#707070;}.cls-27{fill:gray;}.cls-28{fill:#ff9494;}.cls-29,.cls-22{fill:#5928e5;}.cls-30{fill:#c8c8c8;}.cls-31{fill:#ffcbcb;}.cls-32{font-family:Lato-Bold, Lato;font-size:16.63px;font-weight:700;letter-spacing:.2em;}.cls-13{opacity:.7;}.cls-33{fill:#dcdcdc;}.cls-34{fill:#b3b3b3;}.cls-14{opacity:.8;}.cls-35{fill:#9e9e9e;}.cls-36{fill:#666;}.cls-15{opacity:.9;}.cls-17{fill:#c8b5ff;}.cls-18{opacity:.2;}</style></defs><g><path class="cls-34" d="m229.73,259.61c0,14.41-45.59,26.09-101.83,26.09s-101.83-11.68-101.83-26.09c0-2.9,1.85-5.69,5.26-8.3,26.66,9.77,66.47,8.07,108.58,8.07,35.33,0,65.94,1.2,88.37-4.19.96,1.44,1.46,2.91,1.46,4.42Z"/><path id="mochi_fill" class="cls-17" d="m239.55,212.05c0,62.36-44.78,57.03-107.14,57.03s-118.69,5.33-118.69-57.03,50.55-112.91,112.91-112.91,112.91,50.55,112.91,112.91Z"/><path class="cls-3" d="m121.89,124.99c-1.77,2.4-6.4.92-11.08.92,0,0-7.87.3-16.63,2.77-6.39,1.81-10.26,5.05-18.01,11.55-4.82,4.04-10.65,8.93-16.16,17.09-3.99,5.92-8.89,13.16-10.62,23.55-1.21,7.26-.42,13.31-4.16,15.24-1.76.91-4.41.84-6-.46-2.02-1.65-1.89-4.88-1.85-6,.09-2.2.83-2.84.92-6,.06-2.16-.25-2.86-.46-3.23-.8-1.43-2.58-2.49-4.16-2.31-2.28.26-3.51,3.03-4.62,5.54-1.35,3.05-1.89,5.94-2.31,10.62-.18,2.04-.38,4.88-.46,10.16-.14,8.47,1.14,12.07-.46,15.24-.63,1.24-2.31,3.23-5.54,3.23-2.24,0-4.69-2.38-6.51-7.51-.04-1.09-.06-2.21-.06-3.34,0-56.36,41.29-103.08,95.28-111.54,2.67,2.39,3.9,4.7,3.19,6.48-1.85,4.62-5.4,1.88-9.24,5.08-2.77,2.31-1.59,5.82.46,6,5.08.46,3.92.14,9.7.46,2.78.16,8.15.46,9.24,3.23.4,1.02.2,2.33-.46,3.23Z"/><path class="cls-25" d="m239.55,212.05c0,62.36-44.78,57.03-107.14,57.03-49.53,0-95.25,3.36-111.97-26.5,21.48,6.6,62.95,11.57,129.16,6.65,36.1-2.68,47.83-5.95,56.8-15.7,18.27-19.85,11.77-52.07,9.24-64.65-.35-1.72-5.5-25.54-22.62-48.16,28.2,20.52,46.53,53.79,46.53,91.34Z"/><path class="cls-5" d="m206.35,264.89c20.81-5.98,33.2-20.05,33.2-52.85,0-37.55-18.33-70.82-46.53-91.34-18.63-13.57-41.57-21.57-66.39-21.57-6,0-11.89.47-17.64,1.37-53.99,8.47-95.28,55.18-95.28,111.54,0,1.14.02,2.25.06,3.34.38,11.24,2.71,20.14,6.65,27.19,4.83,8.62,12.07,14.47,21.12,18.44"/><path class="cls-2" d="m60.54,137.48c7.32-6.88,16.04-12.2,25.59-15.35,2.53-.83,1.45-4.85-1.1-4.01-10.24,3.38-19.57,9.04-27.43,16.42-1.95,1.83.99,4.77,2.94,2.94h0Z"/><path class="cls-2" d="m43.09,163.69c.39-1.05.8-2.1,1.23-3.13l-.21.5c.45-1.07.93-2.13,1.44-3.17.25-.51.36-1.04.21-1.6-.13-.48-.51-1-.96-1.24-.93-.49-2.34-.3-2.84.75-1.07,2.22-2.03,4.49-2.88,6.8-.18.48-.04,1.17.21,1.6s.75.84,1.24.96c1.17.27,2.16-.36,2.56-1.45h0Z"/></g><g><g class="cls-21"><ellipse class="cls-29" cx="127.52" cy="213.22" rx="9.66" ry="6.93"/></g><g class="cls-21"><ellipse class="cls-29" cx="196.99" cy="213.22" rx="9.66" ry="6.93"/></g><g><ellipse cx="139.25" cy="198.68" rx="12.42" ry="12.47"/><path d="m139.25,211.37c-6.98,0-12.66-5.69-12.66-12.69s5.68-12.69,12.66-12.69,12.66,5.69,12.66,12.69-5.68,12.69-12.66,12.69Zm0-24.94c-6.72,0-12.18,5.49-12.18,12.25s5.47,12.25,12.18,12.25,12.18-5.49,12.18-12.25-5.47-12.25-12.18-12.25Z"/></g><g><ellipse cx="184.11" cy="198.91" rx="12.42" ry="12.47"/><path d="m184.11,211.6c-6.98,0-12.66-5.69-12.66-12.69s5.68-12.69,12.66-12.69,12.66,5.69,12.66,12.69-5.68,12.69-12.66,12.69Zm0-24.94c-6.72,0-12.18,5.49-12.18,12.25s5.47,12.25,12.18,12.25,12.18-5.49,12.18-12.25-5.47-12.25-12.18-12.25Z"/></g><path class="cls-2" d="m131.26,192.36c-2.55,3.47-2.78,8.11-.06,9.65,1.84,1.05,5.52.58,8.74-3.11,2.83-3.24,3.9-7.37,1.38-9.24s-7.51-.78-10.06,2.69Z"/><path class="cls-2" d="m176.35,192.36c-2.55,3.47-2.78,8.11-.06,9.65,1.84,1.05,5.52.58,8.74-3.11,2.83-3.24,3.9-7.37,1.38-9.24s-7.51-.78-10.06,2.69Z"/><ellipse class="cls-2" cx="143.16" cy="202.37" rx="2.08" ry="1.38" transform="translate(-104.49 191.65) rotate(-52.24)"/><ellipse class="cls-2" cx="188.25" cy="202.37" rx="2.08" ry="1.38" transform="translate(-87.01 227.29) rotate(-52.24)"/><g><ellipse cx="166.35" cy="240.79" rx="35.03" ry="22.12" transform="translate(-15.31 11.33) rotate(-3.73)"/><path d="m202.76,238.42c-.82-12.64-17.82-21.86-37.9-20.55-18.18,1.18-32.75,10.6-34.71,21.76-.21,1.16-.28,2.34-.2,3.53.82,12.64,17.83,21.85,37.9,20.55,13.71-.9,25.36-6.47,31.11-13.94,2.67-3.47,4.06-7.35,3.8-11.35Zm-69.91,4.56c-.1-1.47.05-2.93.42-4.35,2.51-9.86,15.55-18.02,31.7-19.07,18.48-1.21,34.13,7.34,34.89,19.05.13,1.97-.17,3.9-.85,5.76-3.34,9.22-15.9,16.65-31.27,17.66-18.47,1.21-34.13-7.34-34.89-19.05Z"/></g><path class="cls-22" d="m192.86,237.02c1.37.41,2.36.99,3.13,1.74,1.54,1.51,1.98,3.51,2.1,4.13.17.83.23,1.7.21,2.58-.01.84-.1,1.68-.25,2.51-5.56,7.04-16.83,12.3-30.09,13.14-19.42,1.23-35.87-7.46-36.66-19.36-.08-1.12,0-2.24.19-3.33.49-.17.99-.33,1.5-.49,0,0,.73-.23,1.52-.45,6-1.7,11.91-2.64,11.91-2.64,18.88-3,41.97.83,46.46,2.18Z"/></g><g><path class="cls-33" d="m249.25,239.31c3.68.02,7.36.02,11.04.06.61,0,1.25-.17,1.84.11-.02.47-.42.45-.72.56-.37.07-.74.12-1.08.27-.58.27-1.13.53-1.07,1.34.03.35-.25.63-.43.92-.19.27-.38.55-.58.81-.09.13-.18.31-.32.34-1.49.31-1.71,1.64-2.07,2.74-.49,1.49-1.37,2.79-1.76,4.33-.46,1.8-.94,3.56-.64,5.43.14.87-.03,1.75-.06,2.61-.04,1.29.57,2.44.49,3.7-.01.25.02.56.19.72.74.67.66,1.56.71,2.41.05.75.36,1.38.75,2,.42.67.2,1.06-.59,1.1-.9.05-1.75-.52-2-1.32,0-.09.02-.18.05-.27.31-.59.5-1.11-.52-.99-.27.03-.47-.11-.68-.26-.51-.38-1.02-.42-1.52.03-.24.1-.44.04-.63-.12-.57-1.03-.71-1.06-1.8-.48-.29.08-.54,0-.74-.22-.58-.85-1.33-1.1-2.29-.67-.09,0-.17-.02-.25-.07-.72-1.06-1.97-.88-2.98-1.28-.33-.13-.74-.06-1.04-.34-.25-.35-.19-.63.22-.8.69-.16,1.42-.04,2.03.13,1.1.32,2.36-.16,3.33.69.1.09.31.09.46.06.95-.23,1.82.06,2.74.3,1.11.3,1.37.02,1.47-1.14.11-1.31-.2-2.63.04-3.94.16-.87.17-1.75.3-2.62.16-1.09-.09-1.44-1.18-1.52-2.66-.19-5.29-.64-7.92-1.06-.85-.14-1.71-.18-2.56-.43-.95-.28-1.48.07-1.72,1.08-.45,1.87-.44,3.8-.46,5.71,0,.61-.13,1.26.16,1.86.13.32.56.49.49.92-.18.33-.48.2-.75.18-.65-.05-1.3-.13-1.95.07-.1,0-.18-.02-.26-.07-.25-.27-.35-.6,0-.81.76-.47.75-1.23.68-1.93-.22-2.27.55-4.42.78-6.63.04-.38.34-.67.46-1.03.21-.6.1-.96-.66-.96-2.3.02-4.54-.45-6.77-.91-.81-.17-1.3-.02-1.68.74-.5.98-.69,2-.81,3.07-.12,1.15-.37,2.28-.4,3.45-.01.64.19,1.24.11,1.88-.08.66-.29.99-1.09.87-2.42-.38-4.82-.88-7.23-1.24-1.12-.16-2.28-.44-3.44-.3-.81.1-1.46-.61-2.29-.41-1.41.2-2.63-.45-3.87-.94-.52-.2-.11-.56.19-.62.83-.18,1.6-.55,2.47-.59,1.07-.06,1.35-.44,1.26-1.52-.26-3.11-.24-6.19.92-9.17.25-.64,1-1.21.59-1.99-.34-.66-1.2-.62-1.74-1.05-.5-.4-1.1-.62-1.7-.81-1.53-.49-2.9-1.3-4.28-2.08-.81-.46-1.45-.29-1.68.58-.45,1.74-1.29,3.34-1.81,5.06-.61,2.02-.66,4.07-.74,6.14-.06,1.6-.21,3.2.21,4.78.13.49-.24.81-.67,1.02-.39.19-.77.28-1.16,0-.44-.31-.28-.69-.2-1.1.14-.78-.05-1.56-.02-2.35.13-3.47.14-6.94,1.35-10.27.41-1.14.43-2.4,1.09-3.49.35-.57-.24-.98-.7-.9-1.68.28-3.31-.43-4.95-.21-1.31.18-2.46-.43-3.71-.52-1.42-.11-2.72-.72-4.13-.86-1.01-.1-1.57.25-1.92,1.21-1.05,2.84-1.59,5.79-1.86,8.78-.18,1.97-.28,3.95-.15,5.93.04.57.29.8.82.97,1.57.51,3.23.19,4.81.59,1.08.27,2.22.32,3.29.68.03.09.03.18,0,.28-.32.55-.82.59-1.39.51-3.57-.48-7.16-.59-10.76-.58-.61,0-1.25-.25-1.82.2-.33.26-.66.53-.58,1,.07.41.46.47.8.55,1.04.24,2.07.23,3.15.16,1.32-.09,2.68-.37,4.05.09,1.55.52,3.19.52,4.83.37.61-.05,1.21.29,1.86.15.37-.08.74-.14,1.04-.39.12-.07.25-.1.39-.05.47.67,1.06.82,1.88.66.81-.16,1.64-.11,2.48.23,1.05.42,2.21.34,3.34.33.55,0,1.06.03,1.51.38.35.37.13.55-.24.64-.36.08-.75.03-1.11.15-.5.06-1,.17-1.49-.06-1.14-.69-2.36-.49-3.57-.32-.55.05-1.09.19-1.64.05-.86-.31-1.73-.4-2.66-.42-1.74-.03-3.5-.09-5.24-.15-.99-.04-2.06-.39-3.04.22-.35.22-.65-.24-.97-.21-1.24.12-2.55-.65-3.74.27-.21.16-.42.03-.6-.1-.25-.18-.51-.2-.8-.08-.73.31-1.19-.09-1.37-.72-.24-.79-.66-1.17-1.49-1.33-.74-.15-1.21-.67-1.28-1.54-.08-.96-.08-1.95-.55-2.85-.14-.28-.09-.62-.08-.93.13-3.5.33-7.02,1.25-10.41.55-2.01.79-4.12,1.77-6.01.13-.25.2-.53.38-.75.59-.7.75-1.49.47-2.37.18-.59.56-1.05.99-1.48,1.07-.14,1.99-.95,3.15-.71.23.05.49-.06.47-.33-.02-.42.19-.91-.17-1.25-.72-.67-3.05.01-3.38.96-.04.08-.1.14-.19.17-.96-.04-.44.74-.62,1.13-.07.22-.2.39-.38.54-.14.11-.31.19-.49.22-.64.09-.5.44-.28.82.04.2-.02.36-.2.46-.67-.09-.92.34-1.16.87-.78,1.69-1.44,3.47-1.72,5.26-.3,1.84-1.22,3.48-1.33,5.35-.06,1.15-.05,2.32-.29,3.45-.32,1.49-.02,2.98-.1,4.47-.03.59.25,1.09.72,1.48.25.3.31.67.36,1.04.14.94.5,1.78,1,2.58.14.22.43.41.22.73-2.14-1.56-3.26-3.78-3.82-6.28-1.4-6.22-.35-12.13,2.45-17.78,1.15-2.31,2.65-4.34,4.96-5.61,1.85-1.02,3.77-1.02,5.7-.13.82.38,1.76.46,2.56.91-.03.22-.2.27-.37.33-.54.13-1.09-.43-1.63,0-.3.6.02.94.52,1.18.2.09.43.07.64.14.21.07.46.16.46.41,0,.31-.31.26-.51.25-.53-.02-.89.22-1.16.65-.35.54-.26,1.01.33,1.21,1.29.43,2.6.82,3.97.93.35.03.53-.31.84-.37.14,0,.26.07.36.17.3.74.84.94,1.63.96,1.08.02,2.09.59,3.21.58.38,0,.73.02,1.07-.16.09,0,.17.02.24.09.08.58.39.84.99.89,1.21.11,2.34.64,3.56.79.7.09,1.36.04,2.02-.21.09,0,.18.03.26.07,1.22.94,2.69,1.21,4.15,1.43.86.13,1.74.13,2.56.44,1.03.39,2.06.37,3.1.03.09-.02.18-.01.27.02.84.52,1.71.94,2.74.78.22-.03.45,0,.64.12,1.32.82,2.8.78,4.28.79.22,0,.45-.03.65.07,1.69.82,3.6.43,5.34.99.15.05.32.02.47,0,.94-.2,1.88-.19,2.74.27,1.13.6,2.41.28,3.59.6.97.27,1.96.39,2.98.2.5-.09.98.19,1.45.34.47.15.41.55.34.94-.3,1.53-.31,3.11-.89,4.59-.31.79.1,1.27.92,1.36.93.1,1.86.38,2.75.44,1.37.1,2.68.66,4.07.48.13-.02.26-.03.37.03,1.28.63,2.74.15,4.04.68.49.2.91-.05,1.03-.54.49-2,1.28-3.94,1.32-6.04-.04-.25-.27-.47-.08-.74.42-.14.85.03,1.28-.08.33-.09.7-.14.79-.53.1-.45-.31-.53-.59-.71-.07-.05-.13-.11-.19-.19-.17-.53.17-.66.58-.72.44-.07.87.02,1.3.09.76.13,1.33-.18,1.81-.75.14-.17.02-.28-.06-.41-.14-.16-.28-.32-.41-.48-.18-.26-.42-.33-.73-.31-2.09.15-4.18-.06-6.28-.02-.43,0-.89.06-1.22-.34-.07-.19-.08-.36.11-.49Z"/><path class="cls-1" d="m252.33,279.76c-.07,0-.13-.02-.2-.03-.13-.28-.21-.63-.6-.65-.61-.03-1.16-.42-1.73-.41-1.52.03-2.94-.51-4.44-.63-2.38-.19-4.8-.32-7.14-.94-.96-.26-1.95-.48-2.96-.25-.27.06-.56-.02-.84-.1-2.24-.68-4.56-.82-6.87-.97-.35-.02-.69-.06-1-.23-.58-.31-1.22-.43-1.83-.31-.99.19-1.85-.16-2.76-.4-.99-.26-2.01-.38-3.02-.53-1.51-.23-3.03-.06-4.54-.45-1.34-.35-2.8-.25-4.2-.43-.53-.07-1.07-.08-1.48-.51-.19-.2-.45-.19-.71-.14-1.21.24-2.35-.16-3.53-.32-1.8-.25-3.56-.72-5.37-.85-2.08-.15-4.17-.23-6.19-.83-.57-.17-1.18-.3-1.77-.26-1.62.1-3.13-.54-4.73-.61-.94-.04-1.33-.9-1.16-1.88.33-1.83.99-3.62.83-5.52-.02-.29.12-.55.18-.82.14-.67.14-1.32-.43-1.83-.06-.08-.09-.16-.12-.25.06-.33.35-.23.55-.3,1.49.03,2.98,0,4.47.09.34.02.69-.03.99.19.09.11.12.24.13.39-.24,1.84-.42,3.68-.78,5.5-.13.64.06.88.72.99,3.41.54,6.84.97,10.26,1.45.43.06.89.04,1.24.37.1.11.06.26.11.39.02-.14.02-.29.17-.38.74-.06,1.47-.12,2.14.29.25.31.6.48.98.51,1.53.14,3.01.57,4.53.81,1.78.28,3.61.22,5.36.71.7.19,1.01-.09,1.12-.73.21-1.3.6-2.58.55-3.91-.03-1.12.62-2.1.6-3.22,0-.42.46-.43.83-.34.71.16,1.43.24,2.14.35,1.42.22,2.86.18,4.28.45.68.13,1.28.47,1.97.6,1.02.2,2.06.25,3.06.47,1.08.23,1.36.56,1.17,1.65-.33,1.88-.33,3.81-.76,5.67-.19.81.05,1.17.88,1.32.56.1,1.12.15,1.69.21.99.1,1.4-.22,1.45-1.24.09-1.75.39-3.48.56-5.22.09-.94.42-1.19,1.36-1.11.69.06,1.35.3,2.02.45.62.14.6.68.51,1.15-.33,1.7-.39,3.44-.68,5.14-.24,1.42-.17,1.5,1.23,1.67.09.01.19.01.28.04,1.95.62,2.06.11,2.59-1.98.25-.98.32-2.05.24-3.09-.02-.25.04-.5.1-.74.26-1.1.47-1.23,1.58-.95.27.07.55.14.83.19,1.23.24,1.36.56,1.41,1.78.07,1.54-.42,2.98-.5,4.49-.02.35-.07.71.27.95.92.65,2,.67,3.06.64.41-.01.48-.44.52-.8.14-1.56.4-3.11.64-4.66.14-.87.27-.97,1.11-.71,1.23.38,2.5.59,3.75.86.28.06.56.08.84.03.25-.04.54-.04.65-.31.12-.3-.22-.4-.34-.6-.53-.85-1.13-1.64-1.53-2.58-.42-.99-.67-2.06-1.33-2.94-.07-.07-.1-.16-.1-.26.23-.64.2-1.27.02-1.94-.21-.78,0-.98.83-.96.41.38.37.91.46,1.4.27,1.49.7,2.91,1.44,4.25,1.43,2.57,3.87,2.85,5.67.83.15-.16.3-.32.51-.41.59,0,1.36-.39,1.5.65h0c0,.16-.11.28-.25.35-.78.39-1.27.97-1.31,1.88,0,.13-.13.21-.23.27-.12.13-.23.25-.35.38-1-.13-1.71.52-2.49.96-.06,0-.13,0-.18-.03-1.24-.8-1.89-.54-2.03.89-.1.99-.31,1.99-.06,3,.07.29-.02.57-.14.82-.39.78-.32,1.58-.11,2.38,0,.06-.02.12-.05.17-.31.28-.55.59-.61,1.02-.05.39-.31.71-.69.61-.85-.23-1.75.13-2.57-.33-.6-.34-1.14.06-1.7.24Z"/><path class="cls-26" d="m214.69,284c-1.3,0-2.6.08-3.89.23-.54,0-1.08,0-1.62,0-.79-.14-1.59-.31-2.39-.07-.12.04-.26.07-.37.03-1.59-.65-3.12-.24-4.66.2-.49.14-.99-.06-1.48-.11-1.55-.14-3.06.19-4.6.2-.87,0-1.73.47-2.65.39-.84-.07-1.67.22-2.53-.08-.79-.28-1.6.19-2.4.3-1.69.24-3.37.23-5.06.27-1.03.03-2.07.06-3.07.42-.64.23-1.18-.04-1.23-.71-.04-.49-.34-.7-.6-1,0-.09-.02-.17-.02-.26.58-1.65.42-3.26-.29-4.84,0-.08,0-.17-.01-.25.26-1.11.37-2.21.27-3.37-.08-1.03-.25-2.08-.18-3.12.06-.92-.05-1.74-.61-2.48h0c.64-1.18.45-2.29-.22-3.38,0-.08-.01-.15-.02-.23.54-.83.35-1.79.5-2.69.1-.62-.49-.63-.72-.96,0-.08,0-.16,0-.24.32-.65.45-1.32.3-2.05-.09-.43.03-.88.5-1.12.44-.07.85,0,1.22.24.36.69.81.56,1.28.13.72-.01,1.44-.16,2.14.12.19.43-.12.79-.18,1.18-.12.84-.13,1.68-.05,2.53.18,2,.26,4,.45,6,.08.78,0,1.55.29,2.32.18.46.16,1,.11,1.49-.2,2.14-.07,4.25.24,6.37.06.38-.06.75-.05,1.13.02.75.53,1.31,1.2,1.09,1.38-.44,2.77.2,4.11-.18,1.62-.46,3.28-.11,4.93-.31,1.64-.19,3.36-.22,5.02-.37,2.47-.21,4.97.18,7.42-.39,1.05-.25,2.13-.06,3.2-.13,1.63-.11,1.96-.54,1.7-2.15-.16-.99.1-1.99.07-3-.01-.47.43-.56.85-.49,2.96.52,5.98.57,8.94,1.17.96.2,2,.03,2.98.33,1.06.33,1.2.47,1.24,1.56.03,1.05.43,1.4,1.47,1.29.16-.02.31-.04.47-.03,1.48.11,1.49.11,2.01-1.26.15-.41.42-.63.85-.61.63.03,1.25,0,1.88.13.61.13,1.17.23,1.3,1,.06.33.37.58.71.46.71-.23,1.45.01,2.14-.22,1.58-.54,3.22-.35,4.76-.02,2.59.55,5.22.77,7.83,1.17.68.1,1.34.36,2.05.22.21-.04.43.09.63.18.3.14.54.36.54.71,0,.4-.33.54-.63.6-1.15.22-2.31.5-3.5.28-.69-.13-1.34-.13-2.04.07-.64.19-1.35.18-2.04.2-1.48.03-2.99-.11-4.42.45-.29.11-.64-.05-.91.17-3.62.24-7.25.47-10.87.71-4.09.26-8.18.53-12.28.79Z"/><path class="cls-26" d="m237.84,282.51c.73-.27,1.3-.76,2.23-.74,1.6.03,3.28.09,4.81-.25,1.43-.32,2.74.16,4.05-.05.61-.1,1.31-.09,1.9-.38.16-.08.41-.06.38-.32-.03-.22-.15-.38-.37-.5-.74-.38-1.56-.17-2.34-.32-2.39-.44-4.84-.55-7.22-1.02-1.29-.26-2.58-.37-3.87-.47-.38-.03-.73-.03-1.1.12-.95.4-2.02.11-3,.46-.33.12-.75-.22-.77-.55-.09-1.26-1.15-.85-1.81-1.11-.16-.06-.37.03-.56.02q-1.19-.06-1.35,1.1c-.09.69-.88,1.09-1.76.85-.27-.07-.49-.2-.8-.12-1.1.29-1.9-.34-1.74-1.45.13-.87-.22-1.11-.97-1.38-1.35-.48-2.77-.11-4.14-.52-1.65-.5-3.43-.23-5.12-.7-.92-.25-1.97.07-2.94-.32-.36-.15-.52.19-.44.51.28,1.12-.2,2.25.09,3.4.25.99-.34,1.73-1.36,1.7-2.97-.08-5.89.66-8.88.46-1.27-.09-2.66.25-3.96.28-.99.02-1.99.5-2.98.14-.28-.1-.51-.04-.72.07-.57.28-1.14.28-1.74.17-1.61-.31-3.17.45-4.79.24-.76-.1-1.48-.22-2.27.16-.65.3-1.43-.44-1.46-1.19-.1-2.17-.17-4.33-.29-6.5-.03-.62.23-1.18.08-1.85-.5-2.08-.48-4.24-.63-6.36-.12-1.67-.39-3.35-.22-5.03.05-.52.31-1.01.47-1.52,1.16-.47,2.33-.45,3.49,0,.04.05.08.09.13.13,0,.05,0,.09.01.14-.03.03-.06.06-.09.1-.63.28-1.3.17-1.95.22-1.2.09-1.21.07-1.12,1.29.37,4.95.58,9.91.91,14.86.09,1.35.14,2.7.25,4.04.04.53.26.69.78.65,8.15-.49,16.31-.99,24.46-1.45.82-.05,1.08-.29,1-1.13-.14-1.43-.25-2.88-.26-4.32.04-.08.1-.15.18-.21,1.04-.29,2.05.08,3.06.21,3.69.48,7.37,1.03,11.05,1.55.25.04.5.08.72.18.64.39.44,1.05.5,1.62.11,1.06.12,1.1,1.19,1.03,1.38-.09,1.49-.15,1.32-1.3-.04-.28,0-.57.24-.77,1.55-.13,3.04.2,4.55.46.19.03.34.16.44.34.18.31.19.78.69.79.66,0,1.35.08,1.92-.32.4-.28.8-.31,1.25-.24,4.63.68,9.27,1.28,13.89,1.97.4.06.91-.05,1.13.49-.01.06-.04.12-.04.18-.03,1.66-.03,1.68-1.76,1.78-4.12.24-8.24.46-12.37.69Z"/><path class="cls-1" d="m265.1,267.15c-.24-.82-1.01-.28-1.45-.57-.1-.35.13-.6.27-.87,2.08-3.87,2.96-8.05,3.26-12.39.18-2.58.21-5.15-.56-7.66-.18-.57-.38-1.13-.67-1.66-1.35-2.37-3.59-2.64-5.53-.72-1.82,1.8-2.81,4.06-3.76,6.36-1.3,3.17-1.56,6.45-1.07,9.81.05.35.24.75-.15,1.04-.71,0-.75.41-.53.93.3.71.34,1.38-.17,2.01-.39-.11-.38-.46-.45-.75-1.29-5.82-.79-11.42,2-16.78.5-.95,1.21-1.73,1.75-2.63.21-.3.43-.59.64-.89.28-.12.43-.38.53-.62.39-1.02,1.21-1.53,2.17-1.88.25-.13.59-.09.75-.39,2.5-.78,4.2.61,5.26,2.77.95,1.95,1.29,4.06,1.4,6.2.3,5.59-.56,11-2.49,16.25-.31.85-.64,1.7-1.2,2.44Z"/><path class="cls-1" d="m185.8,259.82s.06-.1.09-.15c.83.35.87,1.18.68,1.76-.37,1.12.03,2.31-.37,3.35-.42,1.1-.24,2.3-.74,3.37-.31.67.26,1.49,1,1.59,2.69.37,5.4.54,8.06,1.15.77.18,1.69.6,2.32.4.91-.3,1.65.05,2.42.13,1.96.2,3.9.57,5.83.98.96.2,2,.55,3.02.09.18-.08.42-.14.53,0,.85,1.09,2.13.63,3.2.9,1.15.29,2.36-.03,3.55.52.59.27,1.51-.16,2.28.04.67.17,1.33.21,2.04.11.6-.09,1.28.19,1.79.4,1.37.58,2.81.33,4.16.63,2.57.58,5.18.62,7.76,1.05.54.09,1.02.58,1.59.46,1.72-.35,3.37.15,4.93.61,1.71.5,3.44.33,5.13.52,1.33.15,2.62.7,4.01.56.96-.1,1.83.56,2.82.58.43,0,.58.44.24.85-.03.05-.08.09-.13.12-1.01-.36-2.09-.42-3.14-.57-4.01-.58-8.02-1.12-12.03-1.67-.33-.04-.73-.28-.94.28-.09.25-2.37.45-2.61.29-.07-.05-.15-.15-.15-.22.03-1.1-.81-1-1.49-1.09-1.15-.15-2.3-.27-3.45-.4-1.15.1-2.26-.08-3.32-.53-4.63-.65-9.25-1.3-13.88-1.94-.31-.04-.62-.03-.94-.04-1.04.03-2.06-.13-3.09-.28-7.18-1.03-14.36-2.05-21.55-3.01-.67-.09-1.27-.21-1.15-1.11.4-3.05.82-6.1,1.28-9.14.03-.22.1-.43.24-.61Z"/><path class="cls-33" d="m249.25,239.31c-.02.14-.04.28-.07.42-.18.43-.55.33-.89.33-2.76-.02-5.51-.22-8.27-.34-1.45-.06-2.93-.12-4.38-.4-1.2-.23-2.44-.06-3.65-.3-.27-.05-.46.18-.68.29-.19.09-.36.06-.53-.06-.77-.79-1.82-.59-2.75-.74-2.17-.34-4.35-.58-6.53-.85-.52-.06-1.05-.23-1.57.04-.19.06-.37.02-.53-.09-1.21-.86-2.7-.73-4.05-1.08-.65-.17-1.37-.12-2.03-.35-.39-.14-.74-.03-1.08.15-.25.06-.48.02-.67-.17-.15-.31-.44-.4-.75-.48-1.58-.38-3.16-.75-4.74-1.12-3.19-.74-6.4-1.39-9.49-2.48-.39-.14-.78-.21-1.19-.06-.48.07-.89-.1-1.29-.35-.29-.23-.55-.48-.53-.9,1.5.14,2.9.72,4.35,1.08,4.96,1.21,9.93,2.37,14.95,3.3,4.43.83,8.87,1.6,13.34,2.17,7.21.92,14.45,1.6,21.72,1.84.44.01.87.08,1.31.12Z"/><path class="cls-35" d="m178.03,232.66c.12-.1.2-.22.12-.38-.09-.57.38-.78.7-1.09.15-.22.31-.43.46-.65.18-.41.24-.91.8-1.03h0c.72-.92,1.65-1.31,2.8-1.15.41.06.85.15.81.71-.04.48-.43.62-.82.58-1.03-.13-1.67.61-2.44,1.04-.4.56-.81,1.13-1.21,1.69-.02.7-.53,1.19-.77,1.8-2.33,5.99-3.62,12.16-3.24,18.62.06,1.07.29,2.12.67,3.13.27.69.65,1.3,1.45,1.49.44.11,1.03.09,1.04.73.01.72-.64.64-1.1.78-.28.15-.49-.04-.71-.15-.14-.41-.51-.57-.82-.81-1.01-1.22-1.38-2.69-1.67-4.19-.18-.4-.32-.81-.34-1.26-.16-4.07.33-8.07,1.26-12.04.47-2.03,1.07-4,1.86-5.92.28-.68.52-1.41,1.15-1.9Z"/><path class="cls-26" d="m178.15,284.08c.53.08,1.1.05.8.93-.15.44.43.76.93.59,1.75-.62,3.56-.49,5.36-.45.33,0,.65.2.93-.17.09-.12.42-.23.5-.17.46.38.91-.09,1.24-.02.78.16,1.4-.26,2.11-.3.31-.02.64-.12.88.15.21.24.38.29.59,0,.07-.08.27-.18.32-.14.53.36,1.1-.06,1.55.04.76.17,1.3-.24,1.93-.32.68-.09,1.42,0,2.12-.09,1.06-.14,2.14-.22,3.19-.11,1.54.15,2.96-.53,4.47-.42.43.03.87-.14,1.19.32.13.19.33.09.51.03.84-.3,1.65-.29,2.39.28-4.69.3-9.39.61-14.08.9-5.2.32-10.4.62-15.6.94q-1.25.08-1.33-1.24c-.01-.25-.01-.5-.01-.75Z"/><path class="cls-26" d="m177.31,269.76c.86.42.89,1.19.87,1.99-.02.75-.19,1.51.25,2.22.13.2.03.49-.09.72-.05.11-.22.26-.2.29.7.83,0,1.74.16,2.58.12.57-.08.88-.48,1.17-.24-2.99-.44-5.98-.52-8.98Z"/><path class="cls-1" d="m257.95,278.06c-.59-.76-.59-1.56-.13-2.37.16-.28.23-.51.16-.86-.23-1.29-.08-2.57.26-3.83.13-.45.44-.84.91-.79.45.05,1.04.09,1.13.76q-1.29-.07-1.49,1.26c-.29,1.95-.57,3.89-.85,5.84Z"/><path class="cls-1" d="m252.33,279.76c.29-.58.98-.81,1.34-.59.85.51,1.76.15,2.59.45.56.2.86,0,.82-.59-.04-.59.31-.76.8-.8q-.14,2.31-2.42,2c-1.05-.14-2.09-.31-3.14-.47Z"/><path class="cls-33" d="m193.58,230.79c.22.24.45.48.67.72-.22.32-.51.17-.76.1-1.94-.53-3.81-1.24-5.72-1.86-.24-.08-.47-.19-.51-.49.12-.07.25-.13.37-.2.75-.11,1.37.34,2.05.53,1.31.37,2.66.64,3.91,1.19Z"/><path class="cls-26" d="m177.84,278.98c.63.28.88.76.72,1.42-.1.42-.02.75.2,1.12.28.47-.16,1.91-.63,2.3-.1-1.61-.19-3.23-.29-4.84Z"/><path class="cls-26" d="m176.84,262.5c.86,0,1.18.37.9,1.22-.07.2-.1.45-.04.65.2.75.02,1.35-.63,1.79-.08-1.22-.15-2.44-.23-3.65Z"/><path class="cls-26" d="m176.59,258.77c.22.02.43.03.65.05.24-.02.4.07.46.32-.41.39-.51.98-.32,1.39.36.81.06,1.28-.53,1.74-.09-1.16-.17-2.32-.26-3.49Z"/><path class="cls-26" d="m177.09,266.38c1.05.79,1.17,2.57.22,3.37-.17-1.12-.21-2.24-.22-3.37Z"/><path class="cls-1" d="m263.31,269.66c-.15-1.37.65-2.07,1.79-2.52-.38.99-.97,1.83-1.79,2.52Z"/><path class="cls-1" d="m260.47,270.99c.79-1.09,1.66-1.43,2.49-.96-.71.62-1.51,1.04-2.49.96Z"/><path class="cls-33" d="m194.39,255.29c-1.75-.24-3.5-.64-5.23-.8-1.08-.1-2.17-.16-3.25-.37-.51-.1-.67-.36-.69-.83-.13-3.38.02-6.77.71-10.07.28-1.35.2-2.83,1.12-4.08.36-.49.21-1.32.72-1.87.4-.43.82-.64,1.41-.5,2.16.52,4.37.8,6.5,1.45.47.15.95.03,1.4-.05,1.48-.25,2.87.54,4.34.28.45-.08.89-.23,1.36.08.6.39.79.82.26,1.36-.24.24-.37.51-.43.81-.43,2.2-1.26,4.29-1.59,6.53-.19,1.27.11,2.54-.23,3.8-.38,1.42-.1,2.86.01,4.29.01.15,0,.32-.06.45-.13.28-.39.52-.01.81.33.26.63.18.96,0,.34-.18.73-.35.62-.82-.73-3.05-.24-6.09.05-9.13.19-2,1.09-3.83,1.85-5.67.17-.42.26-.83.36-1.25.24-1.04,1.1-1.38,1.98-.81,1.3.83,2.65,1.57,4.13,2.03,1.24.39,2.26,1.18,3.46,1.65.7.27.65,1.02.25,1.61-.8,1.18-.95,2.58-1.31,3.9-.58,2.14-.16,4.32-.06,6.49.04.83-.46,1.51-1.3,1.46-1.07-.06-1.95.59-2.99.76,1.07.35,2.15.68,3.21,1.04.3.1.44-.23.7-.18.04.27-.06.48-.25.65-.43.33-.91.15-1.36.09-9.75-1.35-19.56-2.06-29.4-2.33-.3,0-.63-.1-.92.23.29.33.68.23,1.02.24,4.31.12,8.61.31,12.9.65.39.03.84-.06,1.1.38-.49.88-1.39.65-2.09.6-.61-.04-1.21,0-1.79-.05-1.23-.12-2.49.04-3.7-.36-.7-.23-1.48-.15-2.14-.55-.02-.02-.07-.03-.09-.02-.69.55-1.54.19-2.22.37-1.31.34-2.45-.07-3.64-.3-.6-.11-.71-.73-.37-1.26.48-.74,1.11-.9,2.02-.83,1.2.09,2.42.02,3.62.03,1.39.01,2.84-.08,4.17.11,1.13.16,2.32.02,3.41.42.55.2.97.1,1.35-.31.82-.19,1.56.49,2.26.22-.66.08-1.4-.2-2.15-.38Z"/><path class="cls-33" d="m258.04,243.27c-.55,1.28-1.36,2.43-1.97,3.69-2.61,5.33-2.71,10.83-1.32,16.47,0,0,0,.01,0,.01.54.55.5,1.33.75,1.99.49,1.3,1.04,2.54,1.84,3.68.15.22.45.45.23.74-.19.25-.52.14-.79.07-1.84-.49-3.68-1.02-5.52-1.5-.99-.27-1.98-.5-2.97-.78-1.5-.35-3-.67-4.49-1.04-1.02-.28-2.06-.49-3.09-.7-1.52-.38-3.07-.61-4.6-.94-1.03-.25-2.09-.36-3.12-.61-4.04-.73-8.08-1.49-12.17-1.97-.37-.04-.75-.1-1.09-.28-1.65-.97-3.53-.78-5.31-1.01-1.18-.15-2.37-.27-3.56-.39-.42-.04-.9,0-1.19-.43.09-.47.46-.34.74-.32.84.06,1.68.11,2.48.3-1.27-.63-2.68-.28-4.01-.55-.97-.19-1.96-.48-2.97-.23-.35.09-.55-.27-.86-.27-1.23-.49-2.55-.2-3.82-.36-.34-.04-.71,0-.99-.19-.86-.57-1.76-.39-2.66-.2-.82.17-1.41-.12-1.6-.87.12-.31.41-.27.64-.25,2.39.21,4.78.38,7.17.67.19.02.36.09.53.17,1.4.8,2.94.45,4.42.54.46-.05.9.02,1.34.16.35.2.71.3,1.1.12,1.24-.09,2.45.14,3.66.33,4.79.74,9.58,1.42,14.33,2.36,4.93.97,9.85,2.03,14.74,3.22,2.96.72,5.89,1.54,8.85,2.24.13.03.23.09.31.19.32.76,1.41,1.36,2.18,1.19.42-.1.51-.27.2-.65-.8-.99-1.11-2.12-.89-3.39.03-.18.1-.39-.13-.49-.82-.37-.76-1.12-.76-1.81,0-.28.02-.54-.1-.82-.51-1.25-.47-2.58-.34-3.88.11-1.15-.19-2.27-.09-3.43.07-.81.23-1.63.45-2.37.38-1.31.74-2.65,1.42-3.88.54-.96.9-2.03,1.27-3.08.2-.59.41-1.05,1.14-.98.35.03.45-.3.63-.5Z"/><path class="cls-33" d="m254.4,242.79c.45.08.87.17.84.78-.03.57-.44.69-.88.79-.49.11-.98.18-1.45-.09-.29.15-.58.15-.74.07.28.09.76.09.98.57.24.7-.04,1.37-.18,2.03-.24,1.19-.59,2.36-.88,3.53-.33,1.34-.65,1.63-1.92,1.21-1.03-.34-2.06-.14-3.09-.32-1.43-.24-2.86-.65-4.32-.59-.89.04-1.58-.67-2.49-.5-.19.03-.46-.1-.72-.08-1.43.08-1.75-.82-1.25-1.97.42-.98.34-2,.64-2.96.06-.2.08-.45.02-.65-.14-.47.86-1.2-.22-1.41-.5-.1-.98-.39-1.59-.21-1.05.31-2.09-.16-3.13-.32-.23-.04-.46-.16-.7-.1-1.04.24-1.96-.24-2.86-.56-.68-.24-1.29-.27-1.93-.13-.73.16-1.39-.12-2.08-.24-1.33-.23-2.68-.21-4-.66-1.05-.36-2.3-.02-3.38-.38-1.34-.46-2.76-.54-4.1-.99-.36-.12-.82-.18-.95-.67.37-.45.82-.17,1.22-.1,7.15,1.31,14.35,2.27,21.57,3.1,5.38.62,10.76,1.09,16.16,1.45.61.04,1.12-.01,1.45-.59Z"/><path class="cls-35" d="m204.22,258.37c-2.73-.44-5.48-.65-8.23-.77-.08,0-.17,0-.25,0-3.09-.4-6.19-.47-9.3-.63-1.73-.09-3.45-.11-5.18-.18-.36-.02-.95.18-.94-.47.01-.59.55-.48.94-.47,4.68.12,9.35.33,14.02.7,3.1.24,6.2.51,9.29.82,2.15.22,4.28.54,6.43.81.4.05.79.2,1.2.1,1.12-.28,2.19.13,3.25.3,1.09.17,2.18.26,3.26.44,5.09.84,10.17,1.7,15.22,2.76.44.09.84.25,1.24.43h0c1.16-.13,2.22.34,3.31.58,2.11.45,4.24.8,6.25,1.62h0c.85-.05,1.63.22,2.39.57.22.17.46.26.74.26.66-.14,1.23.18,1.81.4.18.1.32.29.57.18.92-.11,1.72.38,2.58.57.42.09.4.49.35.84l-.06.06s-.05.07-.05.07c-1.33.17-2.48-.51-3.7-.82-5.58-1.41-11.17-2.71-16.8-3.89-5.91-1.24-11.87-2.15-17.83-3.07-1.2-.18-2.42-.27-3.63-.41-.38.1-.73-.1-1.09-.12-.42-.06-.84-.11-1.26-.17-1.52-.11-3.05-.15-4.55-.52Z"/><path class="cls-33" d="m237.31,261.18c-.46-.8-.33-1.74-.27-2.53.12-1.52.05-3.07.37-4.57.05-.24.09-.49.16-.73.32-1.08.91-1.53,1.96-1.17,1.71.58,3.55.37,5.23.91,1.33.42,2.75-.03,4.04.64.47.24,1.13-.16,1.74.05.78.27,1.03.57.92,1.48-.21,1.59-.65,3.17-.36,4.81.09.54-.02,1.12-.04,1.68-.04,1.69-.35,2.11-1.87,1.59-1.03-.35-1.98-.17-2.96-.29-.32-.04-.62-.01-.79-.36-.09-.18-.26-.3-.46-.25-1.42.29-2.76-.29-4.14-.35-.64-.02-1.26-.14-1.91-.04-.69.11-1.2-.35-1.62-.87Z"/><path class="cls-35" d="m254.4,242.79c.19.89-.4.92-.99.87-2.81-.21-5.61-.42-8.42-.66-6.55-.56-13.07-1.35-19.58-2.28-3.44-.49-6.86-1.12-10.3-1.68-.37-.06-.74-.08-1.11-.11,0,0,0,0,0,0-.6.11-1.19-.02-1.77-.14-2.46-.48-4.94-.92-7.4-1.43-.31-.06-.59-.21-.89-.3-.05-.03-.11-.05-.16-.08-2.1-.14-4.09-.79-6.14-1.2-.18-.04-.36-.1-.46-.29-.06-.03-.11-.06-.17-.09-.47.2-.91,0-1.37-.09-1.32-.24-2.59-.65-3.91-.89-.28-.05-.54-.15-.73-.38-.11-.05-.23-.1-.34-.16-.31.12-.61.1-.93.02-1.04-.25-2.07-.52-3.1-.81-.47-.13-.98-.33-.82-.93.14-.55.69-.48,1.12-.41,1.03.15,2.01.49,3.02.74,5.55,1.37,11.13,2.65,16.74,3.77,5.02,1.01,10.06,1.94,15.12,2.73.4.06.81.14,1.21.16.09,0,.18.01.27.03.41.13.82.24,1.25.11.32-.03.62.08.92.18.7.31,1.46.35,2.2.45,2.14.29,4.27.69,6.42.89,2.93.27,5.85.65,8.79.93,3.68.36,7.37.5,11.05.87.13.01.23.1.36.12.03.03.07.05.12.07Z"/><path class="cls-33" d="m235.18,262.21c-2.18-.41-4.35-.84-6.53-1.23-3.57-.64-7.13-1.31-10.71-1.83-1.91-.28-3.82-.59-5.73-.86.14-.2.29-.4.43-.6.65-.09,1.23.42,1.78.4,1.02-.04,1.98.37,2.93.3,1.29-.11,2.44.44,3.68.52,1.44.1,2.83.68,4.3.66.37,0,.78.55,1,.12.23-.43.17-1,.13-1.55-.1-1.16-.19-2.36.2-3.5.12-.34.14-.66.13-1.01-.02-1.32.43-2.51,1.11-3.61.35-.58.92-.57,1.5-.35,1.21.46,2.5.45,3.76.63,1.19.18,2.35.61,3.6.27.46-.13.7.71.43,1.35-.95,2.31-1.23,4.73-1.27,7.21-.01.86.37,1.93-.86,2.43-.29.12.03.43.11.65Z"/><path class="cls-35" d="m225.29,239.58c-.24-.05-.48-.1-.72-.15-.45.1-.86-.17-1.31-.15h.01c-10.66-1.54-21.13-3.89-31.39-7.17-1.86-.59-3.71-1.19-5.54-1.86-.49-.18-1.08-.35-.83-1.11.62-.45,1.16.12,1.75.12,2.3.84,4.6,1.7,7,2.24.33.25.72.36,1.13.36,1.51.12,2.88.78,4.33,1.15,3.78.95,7.57,1.89,11.37,2.74.22.05.42.11.56.3.17.16.38.14.59.15.87-.3,1.65.22,2.47.32,1.36.17,2.71.48,4.06.71.24.04.5.07.68.28.14.02.27.04.41.06,1.39.02,2.76.19,4.08.67.07.54.51.54.9.63.33.08.82.03.68.63-.07.06-.15.08-.23.05Z"/><path class="cls-33" d="m185.5,229.15c.03.77.69.8,1.19.97,3.62,1.23,7.25,2.42,10.93,3.46,7.16,2.02,14.38,3.73,21.72,4.94,1.32.22,2.66.35,3.94.76-.44.23-.87.02-1.29-.04-9.76-1.54-19.46-3.44-29.06-5.8-1.8-.44-3.58-.91-5.38-1.35-.27-.07-.55-.13-.83-.16-.31-.04-.69-.1-.75.33-.05.39.28.51.61.59,1.37.34,2.74.69,4.1,1.03-.29.44-.57.88-1.18.4-.07-.05-.19-.08-.27-.06-1.15.28-2.07-.56-3.14-.66-.63-.06-1.06-.44-1.02-1.12.03-.55.89-1.31,1.41-1.31.21,0,.41.03.81.07-.45-.35-.79-.3-1.12-.34-.82-.11-1.18-1.04-.66-1.71Z"/><path class="cls-35" d="m225.46,239.46c-.27-.57-.84-.33-1.26-.44-.44-.11-.62-.23-.29-.64.58-.38,1.15.02,1.73.05,1.47.08,2.93.3,4.39.44.28.03.56.07.78.28.13.07.26.14.42.05.78-.26,1.56,0,2.33.07,6.97.69,13.95.97,20.95.98,1.01,0,2.06-.28,3.05.17.1.16.2.31.29.47-.05.81-.73.69-1.2.71-1.19.04-2.39.07-3.58.06-8.26-.07-16.51-.46-24.7-1.64-.98-.14-2-.07-2.92-.55Z"/><path class="cls-33" d="m177.7,259.13c-.15-.11-.31-.21-.46-.32.02-.05.04-.15.07-.15.39-.02.91.11.93-.5.02-.58-.51-.41-.85-.47-1.09-.22-1.47-1.08-1.8-1.98-.51-1.4-.65-2.88-.67-4.35-.06-5.93,1.14-11.63,3.29-17.14.25-.65.69-1.24,1.04-1.85.45.43.38,1.3-.1,2.05-.84,1.3-1.39,2.7-1.64,4.25-.13.82-.43,1.64-.69,2.45-.26.84-.5,1.75-.58,2.64-.14,1.49-.3,2.98-.48,4.46-.16,1.32-.18,2.63-.14,3.92.03,1.1.56,2.21.55,3.35,0,.68.32.96.78,1.25.15.09.35.2.52.18.97-.11,1.21.55,1.4,1.27.21.78.51.92,1.21.59.11-.05.31-.14.34-.11.67.79,1.26-.01,1.89-.06.74-.06,1.49.1,2.24.12.43.01.88-.16,1.21.28.13.17.26.08.4,0,1.11-.62,2.29-.23,3.43-.14.41.03.81,0,1.2-.04,1.56-.14,3.1.32,4.68.07.53-.08,1.21.19,1.75.53-.11.28-.35.24-.56.2-1.99-.33-4-.14-6-.22-1.1-.04-2.19-.03-3.29-.12-.39-.03-.75.01-1.1.18-.18.02-.35.05-.53.07-1.16-.06-2.33-.1-3.49,0-.69.12-1.39.05-2.09.03-.48.21-.93.15-1.35-.14-.37-.1-.75-.2-1.12-.31Z"/><path class="cls-33" d="m225.46,239.46c5.75.85,11.53,1.35,17.34,1.67,4.51.25,9.03.32,13.55.25.54,0,1.16.15,1.5-.5.54-.03.51.29.28.57-.59.7-1.33,1.17-2.29.86-.41-.13-.8-.07-1.2-.08-.34,0-.45.16-.35.48-1.99.15-3.96-.24-5.94-.33-2.17-.1-4.34-.34-6.5-.55-1.95-.19-3.91-.38-5.86-.63-3.18-.4-6.36-.84-9.54-1.26-.4-.05-.82-.09-1.15-.36.06-.04.11-.08.17-.12Z"/><path class="cls-33" d="m178.03,232.66c-3.19,6.69-4.4,13.74-3.92,21.11-.83-.47-.79-1.25-.88-2.07-.09-.8.28-1.61-.12-2.38-.09-.17-.14-.37-.03-.54.59-.95.45-2.08.49-3.06.04-1.22.16-2.41.51-3.53.39-1.27.65-2.56.99-3.83.46-1.72.96-3.45,1.74-5.07.23-.47.38-1.3,1.23-.64Z"/><path class="cls-19" d="m186.28,259.47c.24-.41.61-.46,1.05-.43,1.17.08,2.35.13,3.52.16,1.26.03,2.53.1,3.79,0,.89-.07,1.71.31,2.59.22.49-.04.98-.07,1.47-.11,1.24.03,2.5-.1,3.71.33.45.25.91.04,1.36.05,1.99-.04,3.96.06,5.9.51,1.58.44,3.21.42,4.82.64,1.57.21,3.19.13,4.7.71.23.09.43.24.65.36-.43.41-.92.11-1.39.13-.09-.01-.18-.03-.27-.05-5.85-.79-11.74-1.3-17.62-1.73-2.63-.19-5.27-.27-7.91-.36-.34-.01-.7.07-.96-.24-1.8-.07-3.61-.13-5.41-.2Z"/><path class="cls-33" d="m257.56,240.41c-8.65.19-17.27-.19-25.88-1.11-.15-.02-.3-.07-.45-.1.21-.38.54-.56.94-.44.89.26,1.81.09,2.68.26,1.58.31,3.19.23,4.78.48,1.33.2,2.72.02,4.09.19,1.6.19,3.22-.07,4.83.18.2.03.42-.09.63-.14,1.53.39,3.09.21,4.64.21,1.02,0,2.04.29,3.06-.05.39-.13.53.24.67.51Z"/><path class="cls-33" d="m203.95,237.05c1.14-.07,2.19.34,3.28.54,2.26.41,4.52.88,6.77,1.33-.64.33-1.33.71-2.03.5-1.37-.42-2.74-.77-4.18-.8-1.17-.03-2.12-.9-3.33-.83-.29.02-.34-.48-.51-.73Z"/><path class="cls-33" d="m244.74,264.41c-.71.25-1.34-.23-1.94-.39-2.41-.65-4.86-1.08-7.27-1.68-.12-.03-.23-.09-.35-.13.85-.69,1.78-.15,2.68-.17.98,0,1.85.49,2.81.62.95.24,1.89.52,2.85.69.66.12,1.08.41,1.23,1.06Z"/><path class="cls-33" d="m209.68,260.2c-1.98.03-3.94-.33-5.9-.51.35-.22.73-.1,1.09-.13.21-.01.52-.04.18-.36,2.17-.26,4.28.56,6.44.42.73-.04,1.27.37,2.09.79-1.47.07-2.67-.41-3.9-.22Z"/><path class="cls-33" d="m180.46,230.68c.56-.89,1.33-1.4,2.42-1.25.36.05.66.03.72-.38.06-.48-.37-.41-.65-.48-1.13-.28-1.94.45-2.83.93-.17-.49-.18-.79.45-1.04.96-.38,1.91-.64,2.91-.37,1.09.28.45,1.21.54,1.81.09.65-.56.37-.91.33-.44-.05-.81-.05-1.24.21-.39.23-.87.56-1.4.25Z"/><path class="cls-33" d="m197.19,235.48c2.21.46,4.43.84,6.6,1.49-.49.61-1.16.43-1.78.38-1.51-.13-2.92-.77-4.44-.89-.65-.05-.55-.53-.38-.98Z"/><path class="cls-33" d="m191.02,234.03c2,.45,4,.91,6.01,1.36-.2.37-.48.44-.92.43-1.34-.04-2.56-.71-3.92-.67-.63.02-1.26-.25-1.16-1.12Z"/><path class="cls-33" d="m253.17,267.23c-.07-.43-.27-.65-.74-.77-.73-.18-1.5-.27-2.19-.64.22-.4.5-.6.99-.44.63.21,1.18.5,1.91.57.79.07.39.82.03,1.28Z"/><path class="cls-33" d="m240.66,262.66c-1.04.26-1.91-.23-2.81-.62.03-.42-.58-.43-.55-.86.72.56,1.47.93,2.41.47.47-.23.69.42,1.12.44-.27.12-.36.31-.18.57Z"/><path class="cls-33" d="m261.38,239.88c-1.06.66-1.79,1.67-2.7,2.5.19-.33.51-.58.35-1.08-.17-.55.33-.72.7-.93.51-.28,1.02-.58,1.65-.49Z"/><path class="cls-33" d="m247.13,264.98c-.85.05-1.6-.34-2.39-.57.97-.69,2.11-.42,2.39.57Z"/><path class="cls-33" d="m249.68,265.64c-.67.18-1.21-.27-1.81-.4.33-.66.91-.5,1.45-.42.53.07.22.55.36.82Z"/><path class="cls-33" d="m202.41,259.65c-1.23-.16-2.49-.05-3.71-.33,1.27-.21,2.53-.42,3.71.33Z"/><path class="cls-33" d="m194.39,255.29c.92.09,1.84.18,2.77.28-.01.08-.02.16-.03.24-.98.23-1.91-.13-2.84-.36l.11-.15Z"/><path class="cls-33" d="m180.11,229.5c-.27.34-.53.69-.8,1.03-.28-1.25-.23-1.31.8-1.03Z"/><path class="cls-33" d="m178.85,231.18c-.23.36-.47.73-.7,1.09-.6-.7-.53-.82.7-1.09Z"/><path class="cls-33" d="m253.15,244.9c-.34-.3-.77-.4-1.18-.52-.19-.06-.6.13-.49-.29.08-.3.37-.13.53,0,.28.23.6.12.9.17.08.21.16.42.24.64Z"/><path class="cls-1" d="m218.47,261.86c.46.02.91.04,1.37.06,2.53.4,5.07.79,7.6,1.21,1.88.32,3.75.69,5.63,1.04.4.41.15.89.08,1.31-.32,1.88-.46,3.79-.81,5.67-.13.72.08,1.08.82,1.12.22.01.44.05.65.1.63.17.91-.06,1-.71.27-1.95.49-3.92.84-5.86.07-.38,0-.84.47-1.06,1.56.28,3.12.52,4.64,1,.28,1-.08,1.98-.17,2.96-.11,1.22-.38,2.41-.5,3.63-.06.63.06.97.74.98.25,0,.5.05.74.12.71.19.94-.1,1-.8.13-1.81.6-3.59.74-5.4.03-.36.06-.77.54-.89,1.51.37,3.01.74,4.52,1.12.4.25.19.62.15.93-.24,1.65-.35,3.31-.7,4.94-.17.79.1,1.12.87,1.15.22,0,.44.05.65.07.58.08.86-.16.95-.75.23-1.52.47-3.04.66-4.57.04-.36-.02-.77.38-1,2.02.53,4.05,1.05,6.26,1.63-1.54-1.99-2.4-4.11-2.84-6.41.34.03.64.16.71.52.33,1.69,1.19,3.15,2.05,4.6.11.19.16.38.41.46.34.11.52.39.46.73-.06.33-.4.35-.66.43-.88.29-1.72-.04-2.55-.19-1.09-.2-2.15-.55-3.2-.83-.31,1.09-.21,2.19-.56,3.25-.21.64-.04,1.41-.17,2.12-.17.91-.63,1.31-1.52,1.06-.24-.07-.45-.17-.71-.2-1.97-.19-2.38-.57-2.04-2.54.22-1.3.32-2.58.46-3.88.1-.91-.33-1.1-.96-1.28-.27-.08-.57-.04-.83-.12-1.39-.42-1.74-.14-1.7,1.33.04,1.72-.08,3.42-.79,5.02-.25.55-.75.64-1.27.53-.67-.15-1.34-.29-2.04-.32-.75-.04-.9-.53-.81-1.19.28-1.95.51-3.91.81-5.86.1-.63.04-.92-.7-.94-.54-.01-1.08-.27-1.63-.37-.68-.12-1.13,0-1.14.88-.02,1.81-.48,3.58-.5,5.4,0,1.12-.59,1.45-1.77,1.29-.59-.08-1.19-.11-1.78-.18-.89-.1-1.27-.65-1.04-1.51.33-1.26.48-2.54.48-3.85,0-.73.37-1.43.42-2.19.03-.59-.14-.84-.69-1.02-1.14-.35-2.35-.19-3.49-.57-1.18-.38-2.4-.66-3.62-.87-.76-.13-1.54.07-2.35-.14-.76-.19-1.6-.18-2.38-.4-.46-.12-.62-.05-.64.45-.07,1.55-.59,3.03-.63,4.59-.03.86-.28,1.72-.48,2.57-.13.57-.38.78-1.13.69-1.25-.14-2.46-.83-3.77-.41-.11.04-.25,0-.37-.03-1.92-.49-3.89-.75-5.84-1.12-.41-.08-1-.03-1.12-.67.25-.39.62-.21.93-.16,3.13.49,6.27.84,9.4,1.32.99.15,1.06.11,1.17-.91.23-2.09.65-4.15.85-6.24.03-.33.02-.71.44-.86Z"/><path class="cls-36" d="m255.44,260.5c-.19-2.03-.48-4.05-.24-6.09.33-2.87,1.36-5.51,2.71-8.05.61-1.14,1.29-2.21,2.22-3.12,2.19-2.14,4.46-2.08,6.02.64,1.07,1.85,1.34,3.93,1.37,6,.08,4.9-.59,9.69-2.54,14.24-.37.86-.81,1.69-1.34,2.47-.59.79-1.26,1.48-2.24,1.77-1.58.46-3.11-.27-4.07-1.91-.8-1.37-1.3-2.84-1.57-4.39-.09-.52-.22-1.04-.33-1.55Z"/><path class="cls-30" d="m218.47,261.86c-.33,2.26-.7,4.51-.99,6.77-.21,1.67-.17,1.66-1.84,1.42-3.32-.46-6.65-.89-9.97-1.34-.67-.29-1.4-.15-2.09-.32-.08.04-.17.05-.26.03-2.29-.55-4.65-.68-6.96-1.06-1.73-.28-3.47-.52-5.21-.75-.36-.05-.41-.18-.36-.48.33-2.07.64-4.15.97-6.22.33.03.48.29.66.51.35,1.23-.06,2.41-.35,3.57-.3,1.19-.21,1.49,1,1.64.63.08,1.25.13,1.74.6.23.22.52.17.8.13.63-.09,1.25-.06,1.86.16.06.02.12.06.18.05,1.88-.29,3.59.79,5.42.73,2.58-.09,4.97.69,7.42,1.26.25.06.52.16.72-.02.58-.51,1.08-.31,1.6.09.32.25.68.31,1.07.23.28-.06.56-.05.84,0,1.46.23,1.48.23,1.67-1.26.22-1.73.46-3.46.88-5.16.31-.3.68-.5,1.07-.68.05.03.1.07.15.1Z"/><path class="cls-30" d="m218.32,261.76c-.23.35-.49.67-.96.7-1.16.42-2.3-.02-3.44-.09-2.31-.14-4.58-.77-6.92-.68-.72.03-1.43-.45-2.13-.29-1.78.41-3.45-.45-5.2-.36-1.76.09-3.51-.14-5.26-.3-.71-.06-1.45.13-2.13-.23-.25-.14-.39-.37-.52-.6-.02-.08-.04-.17-.05-.25,6.03.1,12.04.56,18.04,1.16,2.86.29,5.72.62,8.58.94Z"/><path class="cls-1" d="m188.96,260.25c.13.1.25.24.11.37-.2.19-.47.12-.68,0-.14-.08-.15-.27-.01-.39.19-.17.39-.1.58.03Z"/><path class="cls-1" d="m193.79,267.96c-.43.21-.73.17-.95-.16-.03-.04.02-.2.07-.22.39-.17.61.08.87.39Z"/><path class="cls-1" d="m203.33,268.41c.09,0,.17-.02.26-.03,0,.03,0,.06-.02.09-.06.27.17.56-.04.81-.03.04-.2.04-.24,0-.28-.29.07-.58.04-.87Z"/><path class="cls-26" d="m178.82,259.44c.45.04.9.09,1.35.14-.22.38-.52.63-.99.55-.4-.07-.23-.46-.36-.68Z"/><path class="cls-4" d="m185.8,259.82c-.22,1.76-.44,3.53-.67,5.29-.2,1.49-.39,2.98-.63,4.47-.1.59.11.77.66.84,5.96.82,11.91,1.66,17.87,2.49,1.99.28,3.98.52,5.96.79.37.05.76.03,1.08.27-.04.04-.07.08-.1.13,0,.18-.06.33-.22.38-.57.18-.53.42-.22.87.46.65.29,2.76-.18,3.35-.13.16-.3.26-.49.24-1.1-.1-2.17.18-3.27.19-1.11.01-2.3.03-3.39.43-.24.09-.46.25-.72.18-1.25-.34-2.47-.02-3.71.11-1.03.11-2.08-.22-3.1,0-1.71.37-3.45.07-5.19.4-1.07.2-2.27.71-3.47.15-.42-.2-.91.2-1.38.19-.33,0-.74-.05-.46-.52.52-.87.17-1.7,0-2.55-.08-.37-.28-.72-.16-1.1.35-1.07,0-2.11-.04-3.17-.04-1.45-.37-2.85-.58-4.26-.04-.25-.03-.52.11-.73.38-.58.4-1.22.18-1.82-.58-1.6.05-3.25-.24-4.86-.09-.5.15-.87.68-.95.65-.09,1.06-.67,1.69-.81,0,0,0,0,0,0Z"/><path class="cls-4" d="m185.8,259.81c-.54.45-.96,1.08-1.8,1.06-.4,0-.39.31-.37.61.07.84.12,1.68.18,2.52,0,.06.06.14.04.18-.72,1.05.23,1.97.22,2.96,0,.22.03.51-.09.64-.62.67-.46,1.46-.2,2.14.47,1.23.18,2.51.45,3.75.2.93.34,1.86-.04,2.78-.11.28-.04.56.12.81.44.7.17,1.54.44,2.28.14.39-.49.43-.58.83.45.05.83-.04,1.21-.18.17-.06.44-.2.53-.12,1.04.85,2.11-.37,3.16.08.19.08.52,0,.73-.12.52-.3,1.04-.38,1.62-.26,1.28.27,2.53-.21,3.8-.23.63-.01,1.23.15,1.86.07.99-.11,1.98-.18,2.97-.29.4-.04.8-.18,1.17.13.21.18.48.21.69,0,.4-.41.93-.32,1.42-.39.55-.07,1.19.28,1.63-.36.04-.06.29,0,.44.05.67.2,1.32.34,1.99-.03.44-.24.9.15,1.38.01.25-.07.47-.04.52-.38.08-.53.24-1.04.32-1.57.1-.61.01-1.19-.48-1.63-.59-.52-.33-.69.28-.76.23-.03.43-.11.57-.3.39,1.66.24,3.36.45,5.04.05.37-.14.57-.55.58-2.62.12-5.25.24-7.87.4-3.22.19-6.43.41-9.65.62-2.68.17-5.37.34-8.05.52-.38.03-.59-.11-.62-.52-.17-3.03-.35-6.06-.53-9.09-.17-2.81-.34-5.62-.51-8.43-.05-.87-.07-1.75-.18-2.62-.06-.49.11-.62.53-.64.94-.04,1.87-.09,2.81-.13Z"/><path class="cls-4" d="m224.87,275.95c1.11.16,2.24.21,3.32.53-.29.51.04,1.03-.03,1.56-.05.37-.07.55-.51.54-.55-.01-1.11.05-1.67.12-.56.07-.74-.09-.79-.69-.06-.68.22-1.44-.32-2.05Z"/><path class="cls-33" d="m211.64,236.06c-3.88-.73-7.7-1.72-11.5-2.76-1.6-.44-3.21-.82-4.76-1.42.24-.33.58-.21.86-.13,1.85.54,3.66,1.22,5.54,1.61,1.22.25,2.4.6,3.61.86,1.97.43,3.94.88,5.91,1.3.35.07.37.27.34.54Z"/><path class="cls-33" d="m230.81,239.15c-2.31-.18-4.61-.43-6.9-.76-1.33-.38-2.74-.35-4.06-.8.49-.62,1.13-.2,1.66-.16,1.46.11,2.9.35,4.35.54,1.41.18,2.83.36,4.24.56.35.05.66.2.7.63Z"/><path class="cls-33" d="m219.44,237.52c-2.44-.26-4.82-.81-7.21-1.31.16-.25.37-.42.69-.36,1.9.35,3.81.68,5.71,1.09.28.06.82.02.81.59Z"/><path class="cls-30" d="m200.19,255.65c-2.27-.49-4.4-1.06-6.57-1.33-2.21-.28-4.42-.57-6.63-.77-.58-.05-.7-.27-.81-.76-.35-1.66-.2-3.33-.06-4.97.27-3.19.8-6.34,1.93-9.37.28-.76.58-.98,1.44-.81,4.06.81,8.12,1.65,12.3,1.5.37-.01.74.06.48.6-1.23,2.55-1.7,5.3-2.04,8.07-.31,2.54-.57,5.11-.04,7.84Z"/><path class="cls-24" d="m205.37,239.88c.17-.29.19-.71.73-.37.37.24.65.32.39.9-1.53,3.41-2.42,6.97-2.46,10.73-.02,1.6.02,3.19.29,4.77.08.46.01.66-.5.75-.53.09-.64-.11-.7-.56-.45-3.03-.41-6.04.09-9.07.41-2.5,1.25-4.83,2.17-7.15Z"/><path class="cls-24" d="m207.23,240.61c.16-.26.34-.44.69-.24.43.25.57.57.35,1.02-.7,1.41-1.15,2.9-1.53,4.42-.78,3.11-.86,6.26-.52,9.43.04.4.42.93-.4,1.08-.81.15-.7-.43-.76-.86-.73-5.1.06-9.99,2.1-14.69.02-.06.06-.11.09-.17Z"/><path class="cls-24" d="m210.02,241.41c.25.15.25.35.11.68-1.53,3.4-2.26,6.95-2.08,10.68.04.78.11,1.56.19,2.34.04.4.1.76-.43.87-.58.12-.7-.24-.77-.69-.47-3.24-.27-6.43.52-9.6.35-1.4.88-2.73,1.44-4.06.27-.64.55-.56,1.02-.21Z"/><path class="cls-24" d="m210.82,242.4c.2-.39.56-.37.93-.18.42.22.31.58.15.9-1.51,3.05-1.96,6.32-1.88,9.68.02.75.11,1.5.22,2.24.08.53-.31.44-.59.51-.29.07-.55.12-.61-.32-.64-4.42-.06-8.68,1.77-12.83Z"/><path class="cls-24" d="m212.21,254.97c-.25.26-.55.25-.82.26-.36.01-.35-.3-.39-.54-.31-2.03-.28-4.07.03-6.09.28-1.8.84-3.52,1.54-5.21.25-.6.53-.49.92-.34.45.17.39.46.22.83-1.53,3.37-1.94,6.91-1.54,10.56.02.18.03.37.04.53Z"/><path class="cls-30" d="m236.13,264.75c-.58,2.25-.75,4.57-1.06,6.86-.12.91-.36,1.2-1.32,1-1.78-.37-1.78-.3-1.52-2.11.3-2.11.56-4.22.84-6.33,1.02.19,2.04.38,3.06.57Z"/><path class="cls-30" d="m243.85,266.34c-.42.54-.31,1.19-.39,1.8-.23,1.68-.48,3.35-.7,5.02-.06.45-.17.64-.7.58-2.38-.24-2.38-.22-2.05-2.6.25-1.8.51-3.6.77-5.4,1.06.03,2.05.43,3.08.59Z"/><path class="cls-30" d="m251.33,268.23c-.29,1.95-.59,3.89-.85,5.84-.08.58-.25.77-.88.74-2.21-.13-2.19-.09-1.89-2.24.24-1.7.44-3.41.65-5.11.99.26,1.98.51,2.97.77Z"/><path class="cls-19" d="m204.22,258.37c1.53,0,3.05.18,4.55.52-.02.02-.05.06-.07.06-1.51-.05-3.08.32-4.48-.58Z"/><path class="cls-19" d="m210.02,259.05c.38-.15.75-.08,1.09.12-.42.47-.75.12-1.09-.12Z"/><path class="cls-30" d="m240.14,243.93c.43-.63.96-.37,1.41-.25.46.13.21.5.12.78-.44,1.44-.79,2.91-.94,4.41-.09.91-.66.72-1.21.69-.72-.04-.53-.53-.47-.96.2-1.46.6-2.88.95-4.31.04-.15.11-.29.14-.36Z"/><path class="cls-24" d="m249.69,244.84c.38.23.24.5.17.71-.55,1.5-.91,3.05-1.14,4.63-.1.74-.59.56-1.06.52-.5-.05-.72-.23-.62-.79.26-1.51.64-2.99,1.09-4.46.25-.82.91-1.04,1.56-.61Z"/><path class="cls-24" d="m244.35,244.11c.26.11.17.32.11.48-.56,1.6-.89,3.25-1.11,4.92-.07.57-.42.53-.81.45-.42-.08-.94-.04-.86-.72.19-1.68.66-3.3,1.13-4.92.11-.39,1.1-.5,1.54-.22Z"/><path class="cls-30" d="m252.42,245.2c.41.19.21.42.15.6-.47,1.59-1.04,3.15-1.19,4.81-.04.47-.29.58-.7.48-.39-.1-1.03.04-.96-.62.2-1.74.65-3.44,1.28-5.07.29-.74,1-.05,1.42-.2Z"/><path class="cls-30" d="m245.94,250.24c-.4.4-.82-.02-1.24.02-.36.04-.39-.24-.36-.51.21-1.75.7-3.44,1.24-5.11.22-.67.72-.26,1.11-.26.41,0,.55.25.45.64-.43,1.66-.99,3.3-1.15,5.02,0,.06-.03.12-.05.19Z"/><path class="cls-24" d="m245.11,253.69c.38.21.23.49.21.71-.21,2.34-.42,4.67-.43,7.02,0,.35-.07.59-.46.45-.46-.16-1.26.19-1.21-.77.1-1.72.2-3.44.31-5.15.03-.53.09-1.06.17-1.59.12-.77.82-1.06,1.41-.67Z"/><path class="cls-24" d="m238.47,252.92c.37-.27.73-.05,1.08,0,.51.08.5.5.46.88-.13,1.43-.3,2.87-.42,4.3-.06.75-.04,1.51-.12,2.25-.03.28.26.89-.46.74-.52-.11-1.3.1-1.21-.88.15-1.72.26-3.43.4-5.15.05-.56.12-1.12.18-1.68.02-.15.06-.31.09-.47Z"/><path class="cls-24" d="m242.37,253.28c.43.3.33.59.3.81-.31,2.3-.46,4.61-.47,6.92,0,.56-.37.49-.7.47-.51-.03-1.03-.04-.98-.8.1-1.53.15-3.06.25-4.59.04-.69.15-1.37.24-2.05.11-.77.89-1.1,1.35-.76Z"/><path class="cls-30" d="m250.56,254.5c.26.15.16.4.14.6-.25,2.34-.44,4.68-.33,7.03.02.47-.3.5-.63.45-.41-.06-1.01.22-1.03-.58-.05-1.73.04-3.45.15-5.17.04-.56.11-1.12.18-1.68.11-.78.88-1.11,1.52-.65Z"/><path class="cls-24" d="m247.62,262.18c-.44.2-.86-.04-1.29-.02-.39.01-.37-.4-.37-.65,0-.94.01-1.87.07-2.81.09-1.34.23-2.68.34-4.01.04-.56.34-.79.87-.71.49.08.92.26.81.9-.39,2.32-.38,4.67-.42,7.01,0,.09,0,.18-.01.29Z"/><path class="cls-33" d="m223.26,239.28c.47-.22.88.02,1.31.15-.47.27-.9.12-1.31-.15Z"/><path class="cls-30" d="m236.36,251.3c.32.29.04.59-.04.84-.77,2.27-1.07,4.61-1.1,7.01,0,.52.41,1.22-.02,1.49-.32.2-.99-.19-1.51-.27-1.86-.28-3.72-.59-5.59-.78-.62-.06-.81-.29-.87-.83-.19-1.83.05-3.63.41-5.41.17-.83.4-1.64.64-2.45.11-.38.32-.7.81-.58,2.26.54,4.56.81,6.88.92.12,0,.25.04.39.07Z"/><path class="cls-1" d="m262.94,265.91c-.13.18-.24.37-.39.53-1.36,1.56-3.06,1.47-4.24-.23-.75-1.07-1.18-2.29-1.46-3.55-.62-2.8-1.05-5.65-.69-8.51.33-2.59,1.29-5.02,2.55-7.32.57-1.05,1.15-2.08,2.05-2.9.3-.28.6-.55.94-.77,1.32-.82,2.31-.63,3.27.63.95,1.25,1.28,2.73,1.44,4.23.48,4.62-.09,9.14-1.47,13.56-.48,1.53-1.09,3-2,4.33Z"/><path class="cls-30" d="m192.27,260.51c1.57-.12,3.12.1,4.68.22,1.81.15,3.63.02,5.44.3.49.08.91.66,1.4.31.48-.35.98-.26,1.44-.18,2.37.43,4.78.36,7.15.75,1.64.27,3.31.36,4.97.53-.14,2.17-.8,4.27-.81,6.47,0,.85-.83.55-1.22.38-.59-.25-1.11-.33-1.71-.12-.51.18-.81-.26-1.15-.49-.37-.25-.66-.46-1.02.04-.27.38-.74.29-1.03.09-.83-.59-1.81-.36-2.69-.6-1.05-.29-2.1-.53-3.18-.7-.15-.02-.34-.17-.45-.12-1.14.55-2.25-.33-3.38-.07-.18.04-.35.14-.5-.07-.48-.64-1.03-.88-1.75-.32-.28.22-.61-.04-.9-.13-.78-.26-1.56-.43-2.35-.07-.13.06-.27.08-.33-.03-.5-.92-1.44-.73-2.23-.9-1.02-.23-1.18-.72-.86-1.79.33-1.12.65-2.29.47-3.5Z"/><path class="cls-4" d="m200.97,273.47c.14-.18.32-.16.49-.07.16.08.36.2.21.41-.12.17-.34.12-.5.02-.12-.08-.27-.16-.2-.36Z"/><path class="cls-30" d="m201.01,239.94c.3.17.12.33.07.5-.51,1.89-1.3,3.69-1.44,5.69-.05.69-.44,1.37-.37,2.09.1.98.05,2-.11,2.92-.19,1.03,0,2.03-.13,3.04-.05.39-.2.41-.47.32-1.49-.51-3.1-.47-4.57-1.05-.17-.07-.41-.2-.54-.14-1.25.62-2.33-.36-3.51-.36-.75,0-1.49-.11-2.24-.18-.38-.03-.53-.18-.64-.62-.39-1.62-.18-3.21-.07-4.83.13-1.82.64-3.57.85-5.37.1-.87.58-1.62.58-2.53,0-.44.38-.8,1.13-.77,2.77.11,5.4,1.13,8.16,1.25.93.04,1.85.3,2.79,0,.16-.05.37.02.51.03Z"/><path class="cls-36" d="m259.54,247.95c.46-.71,1.03-1.27,1.78-1.65,1.27-.63,2.49-.27,3.21.96.88,1.49,1.05,3.14,1.06,4.81.02,3.58-.58,7.04-2.24,10.26-.51.99-1.26,1.77-2.41,1.88-1.25.12-2.06-.64-2.59-1.68-1.08-2.09-1.29-4.38-1.37-6.67-.1-2.93,1.1-5.47,2.56-7.91Z"/><path class="cls-20" d="m262.3,262.26c-1,1.37-2.26,1.31-3.07-.05-.96-1.63-1.08-3.47-1.28-5.26-.35-3.2.77-6.02,2.51-8.64.52-.78,1.22-1.53,2.2-1.34,1.08.21,1.42,1.24,1.66,2.2.47,1.88.42,3.8.21,5.7-.27,2.44-.88,4.8-2,7-.08.17-.2.32-.24.39Z"/><path class="cls-36" d="m259.85,250.44c.14-.2.2-.28.25-.36.5-.79,1.19-1.4,2.14-1.28,1,.13,1.56.96,1.75,1.88.68,3.37.3,6.63-1.46,9.6-.96,1.62-2.79,1.46-3.48-.31-.93-2.38-1.26-4.85-.3-7.33.32-.82.59-1.66,1.1-2.2Z"/><path class="cls-1" d="m261.91,259.59c-.33.41-.5.9-1.13.8-.57-.09-.79-.52-.94-.94-1.13-3.26-.98-6.36,1.28-9.14.65-.8,1.26-.72,1.76.16.62,1.1.51,2.33.47,3.5-.06,1.76-.45,3.48-1.13,5.12-.08.2-.23.37-.31.5Z"/></g><g><g><path class="cls-31" d="m44.43,89.29c-2.6,3.38-1.3,9.91,2.93,11.42,2.63-1.84.67-9.03-2.92-11.31"/><path d="m43.24,88.59c-2.54,3.38-1.83,8.89,1.11,11.8.35.35.75.67,1.17.94.51.33,1.23.76,1.85.76,1.13,0,1.92-1.35,2.26-2.27.66-1.81.31-3.98-.29-5.76-.78-2.3-2.13-4.52-4.19-5.87-.63-.41-1.53-.13-1.9.5-.39.67-.13,1.49.5,1.9s1.38,1.25,1.84,1.98c.65,1.03.96,1.74,1.28,2.89.07.26.13.52.19.78.03.13.05.26.07.39.08.41-.02-.27.02.14.04.48.06.96.03,1.44-.01.15-.05.31,0,.07-.02.1-.04.21-.06.31s-.05.2-.08.3c-.04.16-.09.25,0,.04-.05.1-.1.2-.15.3-.02.04-.2.31-.07.13s-.07.07-.1.1c-.06.07-.34.27-.03.05l1.07-.14c-.3-.11.11.07-.15-.06-.11-.06-.23-.11-.34-.18s-.22-.13-.33-.2c-.05-.03-.32-.23-.13-.08-.2-.16-.39-.33-.57-.51-.09-.09-.18-.19-.26-.28-.01-.01-.26-.34-.1-.12-.31-.42-.57-.88-.79-1.36-.18-.39.08.24-.06-.16-.05-.13-.09-.25-.13-.38-.08-.25-.15-.51-.21-.78-.03-.13-.06-.26-.08-.4-.01-.06-.07-.44-.03-.16-.03-.27-.05-.53-.06-.8s0-.53.01-.8c0-.13.02-.26.03-.4.03-.3-.04.17.02-.15.1-.49.21-.96.39-1.43.04-.09.03-.08-.02.04.03-.06.05-.11.08-.17.06-.11.11-.22.17-.33.13-.24.28-.46.45-.68.45-.6.1-1.55-.5-1.9-.71-.41-1.44-.1-1.9.5h0Z"/></g><g><path class="cls-31" d="m41.18,82.55c-5.48-7.42-8.03-16.53-10.47-25.42-.71-2.58-1.42-5.3-.72-7.88s3.38-4.82,5.94-4.04c2.63.81,3.52,4.01,3.99,6.73,1.4,8.03,2.8,16.06,4.2,24.09.25,1.45.5,2.94.17,4.37s-2.14,3.6-2.87,2.33"/><path d="m42.38,81.85c-3.03-4.16-5.2-8.81-6.9-13.66-.84-2.39-1.57-4.82-2.27-7.25-.74-2.58-1.66-5.22-2.02-7.88-.32-2.35.09-5.23,2.51-6.34,2-.92,3.44.71,4.1,2.44.85,2.24,1.07,4.74,1.48,7.08.51,2.95,1.03,5.9,1.54,8.85.57,3.28,1.14,6.55,1.72,9.83.25,1.44.63,2.93.52,4.39-.04.6-.17,1.09-.49,1.6-.13.21-.31.38-.44.58l-.21.2c-.39.19-.16.3.7.34-1.04-1.42-3.45-.04-2.39,1.4,1.74,2.38,4.21.15,5.09-1.8,1.27-2.85.05-6.49-.45-9.41-1.25-7.15-2.3-14.36-3.76-21.47-.49-2.37-1.4-5.02-3.6-6.34s-5.06-.64-6.88,1.15c-2.22,2.18-2.55,5.29-2.1,8.23.51,3.36,1.66,6.71,2.63,9.97,2.04,6.85,4.59,13.66,8.84,19.49,1.04,1.43,3.45.05,2.39-1.4h0Z"/></g></g><g><g><path class="cls-31" d="m61.83,73.12c-3.07,2.96-2.73,9.61,1.23,11.73,2.87-1.44,1.98-8.83-1.24-11.62"/><path d="m60.85,72.14c-3.02,2.98-3.29,8.5-.77,11.87.63.84,1.57,1.88,2.62,2.17,1.11.3,2.2-.9,2.68-1.77.97-1.79.93-3.97.59-5.92-.39-2.28-1.4-4.68-3.16-6.24-.56-.5-1.41-.55-1.96,0-.51.51-.56,1.46,0,1.96.8.71,1.18,1.32,1.68,2.38.13.28-.02-.08.08.18.05.13.1.26.15.4.1.27.18.54.26.81s.14.55.2.83c.03.14.05.28.08.41.02.09.03.18.04.28-.01-.12-.02-.12,0-.02.06.53.09,1.07.07,1.61,0,.13-.01.26-.02.38,0,.04-.05.42-.02.25s-.03.19-.04.23c-.02.11-.05.23-.08.34s-.06.22-.09.32c-.01.04-.14.38-.06.19s-.06.13-.08.17c-.05.09-.1.17-.15.26-.14.27.05-.04-.01.03s-.13.14-.19.21c-.2.22.08-.03,0,.02-.09.06-.18.11-.28.17h1.4c-.84-.46-1.33-.98-1.8-1.81-.07-.12-.13-.23-.19-.35,0,0-.17-.4-.08-.16-.1-.25-.19-.51-.26-.77-.07-.24-.13-.49-.17-.73,0-.05-.07-.41-.05-.29s-.02-.25-.03-.3c-.04-.53-.03-1.06.02-1.59.03-.3-.03.15.02-.18.02-.14.05-.27.07-.4.05-.24.11-.49.19-.72.25-.82.71-1.64,1.32-2.24,1.27-1.26-.69-3.21-1.96-1.96h0Z"/></g><g><path class="cls-31" d="m59.6,65.97c-4.33-8.14-5.53-17.52-6.65-26.67-.32-2.65-.63-5.45.44-7.9s4.05-4.27,6.46-3.13c2.49,1.18,2.9,4.48,2.97,7.24.21,8.15.43,16.29.64,24.44.04,1.47.07,2.98-.47,4.35s-2.64,3.25-3.18,1.89"/><path d="m60.79,65.27c-2.43-4.63-3.86-9.66-4.83-14.78-.48-2.55-.86-5.12-1.2-7.7s-.85-5.32-.73-7.97c.1-2.23,1.03-4.66,3.35-5.38,2.06-.64,3.26,1.1,3.69,2.87.56,2.31.39,4.82.45,7.18.08,2.99.16,5.99.24,8.98.09,3.33.17,6.65.26,9.98.04,1.45.2,2.99-.08,4.43-.12.59-.3,1.1-.66,1.58-.16.2-.37.35-.53.55l-.18.14c-.44.18-.29.29.43.34-.83-1.58-3.23-.18-2.39,1.4,1.37,2.59,4.34.27,5.32-1.39,1.59-2.69.88-6.57.81-9.53-.1-3.74-.2-7.48-.29-11.22-.09-3.51-.03-7.07-.31-10.58-.19-2.4-.75-5.03-2.78-6.57-2.18-1.65-5.04-1.17-7.07.46-2.33,1.86-3.06,4.79-3.03,7.67.04,3.2.64,6.46,1.08,9.63,1.03,7.36,2.58,14.69,6.06,21.32.83,1.58,3.22.18,2.39-1.4h0Z"/></g></g><g><ellipse class="cls-13" cx="174.29" cy="147.05" rx="2.86" ry="2.22" transform="translate(24.5 318.98) rotate(-89.09)"/><ellipse class="cls-12" cx="158.65" cy="125.91" rx="2.86" ry="2.22" transform="translate(30.25 282.55) rotate(-89.09)"/><ellipse class="cls-9" cx="157.99" cy="167.39" rx="2.86" ry="2.22" transform="translate(-11.88 322.72) rotate(-89.09)"/><ellipse class="cls-10" cx="142.24" cy="146.4" rx="2.86" ry="2.22" transform="translate(-6.38 286.31) rotate(-89.09)"/><ellipse class="cls-14" cx="172.36" cy="136.66" rx="2.86" ry="2.22" transform="translate(32.99 306.83) rotate(-89.09)"/><ellipse class="cls-6" cx="150.56" cy="128.52" rx="2.86" ry="2.22" transform="translate(19.67 277.03) rotate(-89.09)"/><ellipse class="cls-11" cx="166.07" cy="164.7" rx="2.86" ry="2.22" transform="translate(-1.24 328.15) rotate(-89.09)"/><ellipse class="cls-18" cx="144.23" cy="156.77" rx="2.86" ry="2.22" transform="translate(-14.8 298.49) rotate(-89.09)"/><ellipse class="cls-15" cx="166.69" cy="128.96" rx="2.86" ry="2.22" transform="translate(35.11 293.59) rotate(-89.09)"/><ellipse class="cls-8" cx="144.57" cy="136.01" rx="2.86" ry="2.22" transform="translate(6.29 278.41) rotate(-89.09)"/><ellipse class="cls-7" cx="172.09" cy="157.19" rx="2.86" ry="2.22" transform="translate(12.2 326.78) rotate(-89.09)"/><ellipse class="cls-16" cx="150.01" cy="164.44" rx="2.86" ry="2.22" transform="translate(-16.78 311.83) rotate(-89.09)"/></g><path class="cls-27" d="m274.76,255.36c17.32,1.97,34.92.89,51.88-3.15.87-.21.5-1.54-.37-1.34-16.85,4.01-34.3,5.05-51.51,3.1-.88-.1-.88,1.29,0,1.39h0Z"/><path class="cls-27" d="m276.06,260.92c4.4.79,8.8,1.58,13.21,2.37.87.16,1.25-1.18.37-1.34-4.4-.79-8.8-1.58-13.21-2.37-.87-.16-1.25,1.18-.37,1.34h0Z"/><path class="cls-27" d="m273.88,264.14c10.45,4.26,20.28,9.92,29.23,16.79.71.54,1.4-.66.7-1.2-9.05-6.95-18.99-12.63-29.56-16.93-.83-.34-1.18,1-.37,1.34h0Z"/><ellipse class="cls-34" cx="215.86" cy="289.35" rx="3.11" ry="41.81" transform="translate(-88.94 482.78) rotate(-85.68)"/><g><path class="cls-28" d="m250.63,15.35l120.1,38.66c8.92,2.87,13.84,12.47,10.97,21.39l-8.41,26.14c-2.87,8.92-12.47,13.84-21.39,10.97l-12.93-4.16-14.07,12.74-4-18.56-89.11-28.69c-8.92-2.87-13.84-12.46-10.97-21.39l8.41-26.14c2.87-8.92,12.47-13.84,21.38-10.97Z"/><g><path class="cls-31" d="m252.37,9.93l120.1,38.66c8.25,2.66,12.78,11.49,10.13,19.74l-8.41,26.14c-2.65,8.25-11.49,12.78-19.74,10.12l-13.65-4.39-12.95,11.73-3.68-17.09-89.82-28.92c-8.24-2.65-12.78-11.49-10.12-19.74l8.41-26.14c2.65-8.25,11.49-12.78,19.74-10.13Z"/><path class="cls-23" d="m327.04,114.42l14.07-12.74,12.93,4.16c8.92,2.87,18.52-2.05,21.39-10.97l8.41-26.14c2.87-8.92-2.05-18.52-10.97-21.39L252.77,8.69c-8.92-2.87-18.51,2.05-21.38,10.97l-8.41,26.14c-2.87,8.92,2.05,18.52,10.97,21.39l89.11,28.69,4,18.56Zm45.03-64.59c7.55,2.43,11.71,10.55,9.28,18.09l-8.41,26.14c-2.43,7.55-10.55,11.71-18.09,9.28l-14.37-4.62-11.83,10.72-3.36-15.61-90.54-29.15c-7.55-2.43-11.71-10.55-9.28-18.09l8.41-26.14c2.43-7.55,10.55-11.71,18.09-9.28l120.1,38.66Z"/></g></g><text class="cls-32" transform="translate(265.93 52.08) rotate(17.84)"><tspan x="0" y="0">BIASED</tspan></text></svg>