<?xml version="1.0" encoding="UTF-8"?><svg id="Ebene_1" xmlns="http://www.w3.org/2000/svg" viewBox="0 0 300 200"><defs><style>.cls-1{stroke-width:5.26px;}.cls-1,.cls-2{fill:none;stroke:#5928e5;stroke-miterlimit:10;}.cls-2{stroke-linecap:round;stroke-width:3.51px;}.cls-3{fill:#5928e5;}</style></defs><circle class="cls-1" cx="123.68" cy="73.85" r="33.85"/><path class="cls-2" d="m98.77,74.2c0-3.52.72-6.88,2.02-9.92"/><path class="cls-2" d="m104.95,57.65c4.63-5.33,11.46-8.71,19.08-8.71"/><path class="cls-3" d="m208.96,150.36l-38.49-38.49c-1.2-1.2-2.95-1.51-4.44-.94l-13.67-13.67c-1.11-1.11-2.91-1.11-4.03,0l-.88.88c-1.11,1.11-1.11,2.91,0,4.03l13.67,13.67c-.58,1.49-.27,3.24.94,4.44l38.49,38.49c1.63,1.63,4.26,1.63,5.89,0l2.53-2.53c1.63-1.63,1.63-4.26,0-5.89Z"/></svg>