<?xml version="1.0" encoding="UTF-8"?><svg id="Ebene_1" xmlns="http://www.w3.org/2000/svg" viewBox="0 0 300 200"><defs><style>.cls-1,.cls-2{fill:#5928e5;}.cls-2{stroke:#5928e5;stroke-miterlimit:10;stroke-width:3.14px;}.cls-3{fill:#d9d9d9;}</style></defs><rect class="cls-1" x="44.32" y="113.54" width="115.28" height="8.73" rx="4.37" ry="4.37"/><rect class="cls-3" x="44.32" y="75.81" width="136.77" height="8.73" rx="4.37" ry="4.37"/><rect class="cls-1" x="44.32" y="56.95" width="98.52" height="8.73" rx="4.37" ry="4.37"/><rect class="cls-3" x="44.32" y="151.27" width="82.79" height="8.73" rx="4.37" ry="4.37"/><rect class="cls-3" x="44.32" y="132.4" width="128.91" height="8.73" rx="4.37" ry="4.37"/><rect class="cls-1" x="44.32" y="94.67" width="121.57" height="8.73" rx="4.37" ry="4.37"/><g><path class="cls-2" d="m161.17,118.02c1.95,2.45,5.12,3.96,8.57,4.49,2.41.37,4.93.25,7.26-.38,2.29-.62,4.38-1.72,5.97-3.32,2.16-2.18,3.43-5.35,3.05-9.56-2.2-1.68-4.63-2.59-6.97-2.51-2.32.09-4.6,1.18-6.54,3.53-.13.15-.21.26-.26.32-.63.81-1.22,1.62-1.74,2.34-2.82,3.87-3.8,5.23-9.33,5.09h0Zm8.11,7.54c-5.03-.77-9.64-3.38-11.85-7.69l-.12-.23h0c.04.09.1.21,0,0-.43-.83-.64-1.23-.17-2.04.53-.9,1-.86,1.92-.78,0,0,.01,0,.3.02,5.65.39,6.31-.51,8.65-3.73.49-.68,1.05-1.44,1.8-2.41.14-.19.25-.32.32-.4,2.54-3.08,5.62-4.52,8.8-4.64,3.12-.12,6.28,1.06,9.07,3.22.2.16.35.28.46.36h0c.29.24.49.59.55.99.71,5.58-.95,9.81-3.85,12.73-2,2.01-4.57,3.38-7.36,4.13-2.74.74-5.7.88-8.51.45h0Zm-9.24-9.35s0,0,0,.01c-.05-.1-.14-.27,0-.01h0Zm-2.72,1.43c-.05-.1-.03-.06,0,0h0Z"/><path class="cls-2" d="m186.72,107.72c-.41.74-1.35,1.01-2.09.6-.74-.41-1.01-1.35-.6-2.09,6.56-11.84,16.38-23.09,26.68-32.89,17.17-16.34,35.72-28.71,42.6-33.09.72-.46,1.67-.25,2.12.47.34.53.31,1.19-.02,1.68-4.45,6.99-17.06,25.88-33.68,43.21-9.97,10.39-21.39,20.24-33.4,26.66-.75.4-1.68.12-2.08-.63-.4-.75-.12-1.68.63-2.08,11.68-6.24,22.85-15.88,32.63-26.08,12.8-13.34,23.18-27.62,29.23-36.54-8.79,5.96-22.76,16.12-35.92,28.64-10.11,9.62-19.73,20.62-26.12,32.15Z"/></g></svg>