<?xml version="1.0" encoding="UTF-8"?><svg id="Ebene_1" xmlns="http://www.w3.org/2000/svg" viewBox="0 0 300 200"><defs><style>.cls-1{stroke-width:2.43px;}.cls-1,.cls-2,.cls-3{fill:#fff;}.cls-1,.cls-4,.cls-3{stroke:#fff;stroke-miterlimit:10;}.cls-4{fill:#5928e5;stroke-width:2.87px;}.cls-5{letter-spacing:-.02em;}.cls-3{stroke-width:2.28px;}.cls-6{stroke:#5928e5;stroke-width:6.21px;}.cls-6,.cls-7{fill:none;stroke-linecap:round;stroke-linejoin:round;}.cls-8{fill:#ff9494;}.cls-9{font-family:Lato-Bold, Lato;font-size:14.74px;font-weight:700;}.cls-7{stroke:#ff9494;stroke-width:4.11px;}</style></defs><g><g><rect class="cls-8" x="81.38" y="66.21" width="69.12" height="93.79" rx="14.66" ry="14.66"/><rect class="cls-2" x="91.44" y="85.2" width="49" height="2.44" rx="1.22" ry="1.22"/><rect class="cls-2" x="91.44" y="119.43" width="45.11" height="2.44" rx="1.22" ry="1.22"/><rect class="cls-2" x="91.44" y="139.55" width="33.75" height="2.44" rx="1.22" ry="1.22"/><rect class="cls-2" x="91.44" y="125.6" width="46.41" height="2.44" rx="1.22" ry="1.22"/><rect class="cls-2" x="91.44" y="132.74" width="43.81" height="2.44" rx="1.22" ry="1.22"/><rect class="cls-1" x="92.9" y="93.31" width="36.67" height="18.17" rx="6.55" ry="6.55"/></g><g><rect class="cls-4" x="136.89" y="40" width="69.12" height="93.79" rx="14.66" ry="14.66"/><rect class="cls-2" x="146.95" y="59.07" width="40.89" height="2.27" rx="1.14" ry="1.14"/><rect class="cls-2" x="146.95" y="93.22" width="47.71" height="2.44" rx="1.22" ry="1.22"/><rect class="cls-2" x="146.95" y="113.34" width="44.46" height="2.44" rx="1.22" ry="1.22"/><rect class="cls-2" x="146.95" y="120.16" width="17.2" height="2.44" rx="1.22" ry="1.22"/><rect class="cls-2" x="146.95" y="99.39" width="44.78" height="2.44" rx="1.22" ry="1.22"/><rect class="cls-2" x="146.95" y="106.53" width="47.71" height="2.44" rx="1.22" ry="1.22"/><rect class="cls-3" x="148.41" y="67.1" width="32.29" height="18.17" rx="6.55" ry="6.55"/></g><text class="cls-9" transform="translate(160.7 153.7)"><tspan class="cls-5" x="0" y="0">V</tspan><tspan x="9.97" y="0">S</tspan></text></g><path class="cls-6" d="m221.65,75.52l9.37,12.38,18.75-24.77"/><path class="cls-7" d="m66.61,95l-16.38,16.53m0-16.53l16.38,16.53"/></svg>