<?xml version="1.0" encoding="UTF-8"?><svg id="Ebene_1" xmlns="http://www.w3.org/2000/svg" viewBox="0 0 300 200"><defs><style>.cls-1,.cls-2{fill:#fff;}.cls-3{fill:#5928e5;}.cls-2{stroke:#fff;stroke-miterlimit:10;stroke-width:2.77px;}</style></defs><polygon points="107.12 121.47 107.12 130.2 114.97 135 122.83 130.2 122.83 121.47 114.97 116.68 107.12 121.47"/><polygon points="107.5 98.45 107.5 107.17 114.97 111.33 122.45 107.17 122.45 98.45 114.97 94.3 107.5 98.45"/><path class="cls-3" d="m126,61.62h27.03c3.67,0,6.7-3.03,6.7-6.7s-3.03-6.92-6.7-6.92h-5.41c-.65,0-1.3-.65-1.3-1.3,0-3.68-3.03-6.7-6.7-6.7s-6.7,3.03-6.7,6.7c0,.65-.65,1.3-1.3,1.3h-5.41c-3.67,0-6.7,3.03-6.7,6.7s2.59,6.92,6.49,6.92Z"/><polygon points="107.25 75.17 107.25 84.18 114.97 88.47 122.69 84.18 122.69 75.17 114.97 70.89 107.25 75.17"/><path class="cls-3" d="m176.6,102.7c-.43.43-.65.86-.43,1.51l1.51,9.73q.22.22.43.43c.22-.22.43-.43.43-.65l1.51-9.52c0-.43-.21-1.08-.43-1.51l-.22-.22h0c-.22-.22-.65-.43-1.08-.43-.87,0-1.3.22-1.73.65Z"/><path class="cls-3" d="m189.14,111.35c-3.25,0-6.27,1.3-8.43,3.68h0c-.65.65-1.08,1.51-1.51,2.16-.22.43-.65.65-1.3.65s-.86-.22-1.3-.65c-1.95-3.67-5.84-5.84-9.95-5.84-3.89,0-6.7,1.08-8.43,3.46-1.73,2.16-2.59,5.19-2.59,8.86,0,12.32,9.08,28.11,16,28.11.65,0,1.95-.22,3.46-.65.87-.22,1.73-.43,2.81-.43.65,0,1.51,0,2.16.22h0c.22,0,.43,0,.43.22,1.51.43,2.59.65,3.46.65,7.14,0,16-15.78,16-28.11,0-3.68-.86-6.92-2.59-8.86-1.51-2.16-4.32-3.46-8.22-3.46Z"/><path class="cls-3" d="m175.95,153.95c-1.73.43-3.03.65-4.11.65-9.3,0-18.81-17.94-18.81-30.92h-24.43c-.65,0-1.3-.65-1.3-1.3s.65-1.3,1.3-1.3h24.86c.43-3.24,1.3-5.84,3.03-8,2.38-3.03,6.06-4.54,10.6-4.54,2.81,0,5.4.86,7.57,2.16l-1.08-6.48v-.22c0-1.3.43-2.59,1.3-3.46.87-.86,2.16-1.51,3.46-1.51h.43v-40.43c0-2.81-2.38-5.19-5.19-5.19h-11.24v1.3c0,5.19-4.32,9.51-9.51,9.51h-26.81c-5.19,0-9.51-4.33-9.51-9.51v-1.3h-11.24c-2.81,0-5.19,2.38-5.19,5.19v96.22c0,2.81,2.38,5.19,5.19,5.19h68.11c2.81,0,5.19-2.38,5.19-5.19v-1.08c-.86,0-1.73,0-2.59.22Z"/><path d="m128.6,75.03h24.43c.65,0,1.3.65,1.3,1.3s-.65,1.3-1.3,1.3h-24.43c-.65,0-1.3-.65-1.3-1.3s.65-1.3,1.3-1.3Z"/><path d="m128.6,83.24h35.24c.65,0,1.3.65,1.3,1.3s-.65,1.3-1.3,1.3h-35.24c-.65,0-1.3-.65-1.3-1.3s.65-1.3,1.3-1.3Z"/><path d="m128.6,98.16h24.43c.65,0,1.3.65,1.3,1.3s-.65,1.3-1.3,1.3h-24.43c-.65,0-1.3-.65-1.3-1.3,0-.87.65-1.3,1.3-1.3Z"/><path d="m128.6,106.16h19.03c.65,0,1.3.65,1.3,1.3s-.65,1.3-1.3,1.3h-19.03c-.65,0-1.3-.65-1.3-1.3s.65-1.3,1.3-1.3Z"/><path class="cls-3" d="m121.46,128.86c0,.43-.22.87-.65,1.08l-5.19,3.03c-.22.22-.43.22-.65.22s-.43,0-.65-.22l-5.19-3.03c-.43-.22-.65-.65-.65-1.08v-6.05c0-.43.22-.86.65-1.08l5.19-3.03c.43-.22.87-.22,1.3,0l5.19,3.03c.43.22.65.65.65,1.08v6.05Z"/><path class="cls-3" d="m121.46,105.73c0,.43-.22.86-.65,1.08l-5.19,3.24c-.22.22-.43.22-.65.22s-.43,0-.65-.22l-5.19-3.03c-.43-.22-.65-.65-.65-1.08v-6.05c0-.43.22-.87.65-1.08l5.19-3.03c.43-.22.87-.22,1.3,0l5.19,3.03c.43.22.65.65.65,1.08v5.84Z"/><path class="cls-3" d="m121.46,82.81c0,.43-.22.86-.65,1.08l-5.19,3.03c-.22.22-.43.22-.65.22s-.43,0-.65-.22l-5.19-3.03c-.43-.22-.65-.65-.65-1.08v-6.05c0-.43.22-.87.65-1.08l5.19-3.03c.43-.22.87-.22,1.3,0l5.19,3.03c.43.22.65.65.65,1.08v6.05Z"/><path d="m142.22,131.89h-13.62c-.65,0-1.3-.65-1.3-1.3s.65-1.3,1.3-1.3h13.62c.65,0,1.3.65,1.3,1.3s-.65,1.3-1.3,1.3Z"/><rect class="cls-1" x="110.48" y="74.89" width="55.86" height="2.78" rx="1.39" ry="1.39"/><rect class="cls-1" x="110.48" y="113.91" width="45.87" height="2.78" rx="1.39" ry="1.39"/><rect class="cls-1" x="110.48" y="136.85" width="47.72" height="2.78" rx="1.39" ry="1.39"/><rect class="cls-1" x="110.48" y="120.94" width="43.65" height="2.78" rx="1.39" ry="1.39"/><rect class="cls-1" x="110.48" y="129.08" width="44.39" height="2.78" rx="1.39" ry="1.39"/><rect class="cls-3" x="123.8" y="80.99" width="44.02" height="7.4"/><rect class="cls-3" x="123.8" y="94.31" width="35.88" height="15.17"/><rect class="cls-2" x="112.15" y="84.14" width="41.8" height="20.72" rx="6.55" ry="6.55"/></svg>