<?xml version="1.0" encoding="UTF-8"?><svg id="Ebene_1" xmlns="http://www.w3.org/2000/svg" viewBox="0 0 300 200"><defs><style>.cls-1{stroke:#5928e5;stroke-miterlimit:10;stroke-width:1.85px;}.cls-1,.cls-2{fill:#5928e5;}.cls-3{fill:#ff9494;}</style></defs><path class="cls-1" d="m150.98,40.14c-.76-.23-1.5-.16-2.11.05l-.42.14-49.83,17.15h0c-1.38.48-2.32,1.77-2.32,3.24v18.75c0,19.75,5.3,35.76,14.5,48.86,9.18,13.09,22.21,23.21,37.59,31.27h0c1.01.52,2.21.52,3.22,0h0c15.37-8.06,28.4-18.19,37.59-31.27,9.19-13.1,14.5-29.11,14.5-48.86v-18.75c0-1.47-.93-2.78-2.33-3.24,0,0,0,0,0,0l-48.53-16.7-1.86-.64Zm-47.77,23.03l46.8-16.11,46.81,16.11v16.31c0,18.26-4.67,32.74-12.88,44.56-8.13,11.71-19.78,20.88-33.93,28.52-14.15-7.64-25.8-16.81-33.93-28.52-8.2-11.82-12.87-26.3-12.87-44.56v-16.31Z"/><g><path class="cls-2" d="m140.72,80.05c.49.63-.16-.38-.2-.44.08.15.21.69-.03-.08-.09-.3-.15-.62-.24-.91-.18-.58-.03.83-.02-.25,0-.25,0-.51,0-.76-.02-1.06-.23.59.06-.43.07-.25.15-.51.21-.77.17-.45.18-.5.03-.15.08-.18.17-.36.27-.53.16-.29.33-.57.51-.86.39-.64.2-.31.08-.15.4-.53.89-1.01,1.38-1.45-.07.06.93-.74.51-.44s.64-.41.56-.36c.22-.14.45-.27.68-.4.23-.13.46-.25.7-.36.4-.18.48-.22.24-.11-.5.2.71-.24.62-.21.31-.1.63-.19.95-.27s.64-.15.96-.21c.8-.16.28-.04.1-.02.65-.07,1.31-.09,1.97-.07.33.01.65.03.98.07.29.03.26.03-.1-.01.26.04.52.1.77.16.54.13,1.06.33,1.59.48.63.17-.78-.41.21.08.22.11.43.21.65.33.53.29,1.04.62,1.54.96.93.63-.48-.51.32.27.26.25.54.49.79.74.17.17.34.35.5.53.06.07.79,1,.29.31.32.44.62.89.89,1.37.12.2.75,1.57.46.83.29.72.51,1.47.66,2.23-.01-.06.17,1.19.11.63s.03.71.03.64c.03.66,0,1.31-.05,1.97-.01.14-.14.77-.01.1-.06.32-.13.64-.2.96s-.16.64-.26.95c0,.02-.43,1.19-.15.51-.25.6-.57,1.19-.92,1.74-.14.22-.29.44-.44.66-.68,1,.45-.41-.38.46-.94.99-1.89,1.93-2.94,2.81-2.07,1.74-4.29,3.3-6.14,5.28-2.54,2.71-4.38,5.93-4.71,9.68s1.18,7.35,3.69,9.99c1.45,1.53,4.25,1.57,5.7,0s1.55-4.06,0-5.7c-.04-.04-.79-1.01-.36-.39-.22-.33-.41-.66-.6-1.01-.56-1.04.09.35-.11-.3-.1-.31-.17-.63-.26-.94-.26-1.02-.1.57-.05-.48.02-.39-.01-.78.04-1.17-.03.22-.15.63.06-.08.04-.14.53-1.54.23-.86.26-.59.6-1.16.96-1.69.02-.02.79-1.02.32-.45.25-.31.52-.61.79-.9,1.01-1.07,2.13-2.03,3.27-2.96,2.62-2.13,5.2-4.15,7.22-6.9s3.01-5.97,3.32-9.31c.63-6.65-2.85-13.01-8.29-16.68-5.61-3.79-13.15-3.82-19-.59-3.47,1.92-6.24,5.05-7.59,8.78-1.5,4.14-.5,8.47,2.15,11.85,1.31,1.67,4.35,1.47,5.7,0,1.62-1.77,1.39-3.92,0-5.7h0Z"/><g><path class="cls-3" d="m154.46,126.29c-.73-.47-1.46-.94-2.29-1.19s-1.76-.26-2.51.17-1.22,1.38-.94,2.19c.3.87,1.26,1.3,2.14,1.6,1.19.4,2.63.71,3.62-.07.79-.63.96-1.89.38-2.71"/><path class="cls-2" d="m156.49,122.81c-.92-.59-1.82-1.06-2.85-1.45-.32-.12-.65-.22-.99-.28-.66-.11-1.34-.23-2.02-.16-1.17.13-1.73.26-2.79.76-.56.27-1.09.67-1.51,1.12-1.05,1.12-1.81,2.67-1.73,4.25s.67,3.09,1.87,4.1c.43.37.92.76,1.44,1.02.57.29,1.18.53,1.78.74,2.12.74,4.48.85,6.5-.25.42-.23.83-.56,1.18-.88s.64-.73.9-1.11c.09-.13.17-.27.23-.42.18-.41.4-.83.5-1.27.25-1.07.23-1.88.04-2.95-.03-.16-.07-.31-.13-.47-.17-.44-.33-.92-.6-1.32-.59-.87-1.36-1.56-2.41-1.85-.54-.17-1.07-.19-1.61-.07-.54.02-1.04.18-1.5.48-.86.55-1.62,1.38-1.85,2.41s-.2,2.21.41,3.1c.08.11.14.23.2.35l-.41-.96c.06.15.1.31.13.47l-.14-1.07c.02.19.03.38,0,.57l.14-1.07c-.03.19-.07.37-.14.55l.41-.96c-.08.18-.17.34-.28.49l.63-.82c-.09.11-.18.2-.29.29l.82-.63c-.14.11-.29.2-.46.28l.96-.41c-.22.09-.44.15-.68.18l1.07-.14c-.34.04-.67.03-1.01-.02l1.07.14c-.7-.1-1.39-.32-2.05-.59l.96.41c-.33-.14-.63-.3-.92-.52l.82.63c-.13-.11-.25-.22-.36-.35l.63.82c-.1-.14-.19-.28-.25-.43l.41.96c-.04-.11-.07-.22-.09-.33l.14,1.07c-.02-.17-.02-.33,0-.5l-.14,1.07c.03-.14.06-.28.11-.41l-.41.96c.08-.19.18-.36.3-.52l-.63.82c.11-.14.23-.26.37-.37l-.82.63c.15-.11.31-.2.48-.28l-.96.41c.22-.09.43-.15.66-.18l-1.07.14c.3-.04.6-.04.9,0l-1.07-.14c.41.06.8.17,1.19.33l-.96-.41c.63.27,1.21.64,1.78,1,.46.29.96.45,1.5.48.54.12,1.07.1,1.61-.07.93-.26,1.95-.98,2.41-1.85.49-.93.74-2.07.41-3.1s-.94-1.82-1.85-2.41h0Z"/></g></g></svg>